<svg width="496" height="446" viewBox="0 0 496 446" fill="none" xmlns="http://www.w3.org/2000/svg">
<path opacity="0.1" d="M403.987 50.4025C400.153 49.6786 396.191 50.1122 392.604 51.6481C390.451 52.6074 388.121 53.1031 385.764 53.1031C383.407 53.1031 381.076 52.6074 378.923 51.6481C376.376 50.5301 373.616 49.979 370.835 50.0327C368.053 50.0865 365.317 50.7439 362.815 51.9595C361.389 52.7167 359.8 53.1148 358.186 53.1191C351.657 53.1191 346.234 46.5477 345.106 37.8824C346.391 36.9247 347.484 35.7336 348.328 34.3712C352.151 28.2078 358.068 24.2456 364.726 24.2456C371.384 24.2456 377.226 28.1541 381.049 34.2531C382.188 36.0958 383.784 37.6123 385.683 38.6547C387.582 39.6972 389.719 40.2302 391.885 40.2017H392.057C397.308 40.1481 401.807 44.3143 403.987 50.4025Z" fill="#00B0FF"/>
<path opacity="0.1" d="M423.865 23.1826L413.32 29.8614L419.763 18.2218C417.948 16.7775 415.703 15.9802 413.384 15.9561H413.212C412.493 15.9659 411.774 15.912 411.064 15.7951L407.435 18.0607L408.97 15.2689C406.433 14.3907 404.24 12.7287 402.71 10.5229L396.266 14.5817L400.304 7.23718C396.567 2.74884 391.52 0 385.979 0C379.32 0 373.403 3.95145 369.57 10.1149C368.439 11.9578 366.842 13.4689 364.939 14.4948C363.036 15.5207 360.895 16.0249 358.734 15.9561H358.38C351.034 15.9561 345.085 24.2778 345.085 34.543C345.085 44.8082 351.034 53.1406 358.38 53.1406C359.993 53.1298 361.58 52.7322 363.008 51.9809C365.509 50.7623 368.245 50.1023 371.027 50.0466C373.808 49.991 376.569 50.5411 379.116 51.6588C381.268 52.6247 383.599 53.1241 385.957 53.1241C388.315 53.1241 390.646 52.6247 392.798 51.6588C395.325 50.5662 398.057 50.0285 400.81 50.0823C403.563 50.136 406.273 50.7798 408.756 51.9702C410.168 52.7092 411.736 53.0994 413.33 53.1084C420.676 53.1084 426.625 44.776 426.625 34.5108C426.669 30.5631 425.72 26.6676 423.865 23.1826Z" fill="#00B0FF"/>
<path opacity="0.1" d="M249.609 60.3192C246.922 59.8115 244.145 60.1143 241.63 61.1889C240.125 61.8614 238.495 62.2091 236.846 62.2091C235.197 62.2091 233.567 61.8614 232.062 61.1889C230.28 60.4066 228.35 60.0215 226.405 60.0604C224.459 60.0994 222.546 60.5614 220.797 61.4144C219.802 61.9334 218.698 62.2093 217.575 62.2197C213.011 62.2197 209.21 57.624 208.415 51.5572C209.326 50.8895 210.102 50.0552 210.702 49.0983C213.376 44.8033 217.522 42.0115 222.182 42.0115C226.843 42.0115 230.934 44.7496 233.608 49.0124C234.407 50.3028 235.526 51.3647 236.856 52.0947C238.187 52.8248 239.683 53.1982 241.201 53.1786H241.319C244.927 53.1572 248.074 56.0778 249.609 60.3192Z" fill="#00B0FF"/>
<path opacity="0.1" d="M263.516 41.2812L256.138 45.9628L260.617 37.813C259.351 36.7997 257.781 36.2402 256.16 36.2238H256.031C255.52 36.2329 255.01 36.1934 254.506 36.1057L252.004 37.6948L253.078 35.7406C251.304 35.1237 249.771 33.9625 248.696 32.4227L244.218 35.2574L247.053 30.1248C245.863 28.5876 244.345 27.3343 242.61 26.4559C240.876 25.5775 238.967 25.0959 237.023 25.0459C232.363 25.0459 228.217 27.8162 225.543 32.1327C224.751 33.4233 223.631 34.4815 222.298 35.1999C220.965 35.9184 219.465 36.2716 217.951 36.2238H217.704C212.56 36.2238 208.394 42.0436 208.394 49.2378C208.394 56.432 212.56 62.2518 217.704 62.2518C218.828 62.2431 219.933 61.9632 220.926 61.4358C222.674 60.5875 224.586 60.129 226.529 60.0919C228.472 60.0548 230.4 60.44 232.18 61.221C233.695 61.9116 235.337 62.2774 237.002 62.2948C238.64 62.2919 240.261 61.9482 241.759 61.2854C243.528 60.5201 245.44 60.1433 247.367 60.1803C249.293 60.2174 251.19 60.6675 252.928 61.5002C253.922 62.0209 255.027 62.2935 256.149 62.2948C261.282 62.2948 265.449 56.4642 265.449 49.2807C265.492 46.4936 264.827 43.7411 263.516 41.2812Z" fill="#00B0FF"/>
<path opacity="0.1" d="M212.805 155.813C215.489 155.306 218.262 155.609 220.774 156.683C222.281 157.355 223.913 157.703 225.563 157.703C227.213 157.703 228.845 157.355 230.353 156.683C232.134 155.901 234.064 155.516 236.009 155.553C237.954 155.59 239.867 156.049 241.618 156.897C242.61 157.426 243.715 157.706 244.839 157.713C249.403 157.713 253.205 153.107 253.989 147.04C253.079 146.375 252.305 145.54 251.712 144.581C249.027 140.286 244.882 137.505 240.232 137.505C235.582 137.505 231.48 140.232 228.795 144.506C227.998 145.795 226.881 146.856 225.552 147.586C224.224 148.316 222.729 148.69 221.214 148.672H221.096C217.477 148.694 214.319 151.604 212.805 155.813Z" fill="#00B0FF"/>
<path opacity="0.1" d="M123.039 78.4292L130.427 83.1108L125.938 74.9716C127.207 73.9552 128.78 73.3921 130.406 73.3717H130.524C131.038 73.3791 131.551 73.3432 132.059 73.2644L134.562 74.8428L133.488 72.8993C135.258 72.2811 136.787 71.1199 137.858 69.5813L142.336 72.4161L139.544 67.2728C140.736 65.7369 142.254 64.4853 143.988 63.6087C145.723 62.7321 147.631 62.2525 149.574 62.2046C154.224 62.2046 158.38 64.9749 161.054 69.2914C161.846 70.5804 162.964 71.6375 164.295 72.3559C165.626 73.0742 167.124 73.4284 168.636 73.3825H168.894C174.027 73.3825 178.193 79.213 178.193 86.3965C178.193 93.58 174.027 99.4105 168.894 99.4105C167.771 99.4056 166.665 99.1293 165.672 98.6052C163.923 97.7522 162.01 97.2902 160.064 97.2513C158.119 97.2123 156.188 97.5974 154.407 98.3797C152.898 99.0763 151.258 99.4424 149.596 99.4535C147.954 99.4521 146.33 99.1083 144.828 98.4442C143.061 97.6791 141.151 97.3023 139.226 97.3394C137.301 97.3764 135.406 97.8264 133.67 98.6589C132.676 99.1797 131.571 99.4523 130.449 99.4535C125.305 99.4535 121.138 93.6337 121.138 86.4395C121.088 83.652 121.742 80.897 123.039 78.4292Z" fill="#00B0FF"/>
<path d="M414.97 240.634C459.722 240.634 496 204.355 496 159.604C496 114.852 459.722 78.5742 414.97 78.5742C370.219 78.5742 333.941 114.852 333.941 159.604C333.941 204.355 370.219 240.634 414.97 240.634Z" fill="#3F3D56"/>
<path d="M431.957 169.97C430.582 168.557 427.275 166.425 425.635 165.629C423.743 164.695 423.047 164.712 421.708 165.706C420.593 166.519 419.87 167.302 418.59 167.014C417.31 166.726 414.773 164.76 412.319 162.247C409.866 159.733 407.961 157.142 407.688 155.806C407.416 154.47 408.166 153.743 408.965 152.598C409.929 151.222 409.956 150.507 409.04 148.562C408.249 146.877 406.199 143.486 404.812 142.065C403.425 140.643 403.125 140.956 402.366 141.252C401.585 141.589 400.835 141.997 400.125 142.471C398.75 143.417 397.98 144.205 397.439 145.39C396.897 146.576 396.285 148.777 399.434 154.539C401.757 158.947 404.7 162.98 408.166 166.506C411.61 170.077 415.547 173.107 419.851 175.497C425.454 178.746 427.599 178.1 428.753 177.548C429.907 176.995 430.673 176.212 431.59 174.786C432.052 174.057 432.449 173.287 432.775 172.484C433.036 171.704 433.344 171.387 431.957 169.97Z" fill="url(#paint0_radial)"/>
<path d="M415.011 78.5742C398.981 78.5662 383.309 83.3127 369.978 92.2133C356.646 101.114 346.254 113.769 340.116 128.576C333.978 143.384 332.37 159.68 335.496 175.402C338.621 191.124 346.339 205.566 357.674 216.901C369.008 228.235 383.45 235.953 399.172 239.079C414.894 242.204 431.19 240.596 445.998 234.458C460.806 228.32 473.46 217.928 482.361 204.596C491.261 191.265 496.008 175.593 496 159.563C495.989 138.087 487.453 117.493 472.267 102.307C457.081 87.1212 436.487 78.585 415.011 78.5742ZM415.011 229.792C401.121 229.792 387.543 225.673 375.994 217.956C364.445 210.239 355.444 199.271 350.128 186.439C344.813 173.606 343.422 159.485 346.132 145.863C348.842 132.24 355.53 119.726 365.352 109.904C375.173 100.083 387.687 93.3942 401.31 90.6844C414.933 87.9746 429.053 89.3654 441.886 94.6808C454.719 99.9962 465.687 108.998 473.404 120.547C481.12 132.096 485.239 145.674 485.239 159.563C485.239 168.786 483.423 177.918 479.893 186.439C476.364 194.959 471.191 202.701 464.67 209.222C458.148 215.744 450.407 220.917 441.886 224.446C433.366 227.975 424.233 229.792 415.011 229.792Z" fill="url(#paint1_radial)"/>
<path d="M72.8449 283.195C113.076 283.195 145.69 250.581 145.69 210.35C145.69 170.119 113.076 137.505 72.8449 137.505C32.6138 137.505 0 170.119 0 210.35C0 250.581 32.6138 283.195 72.8449 283.195Z" fill="#3F3D56"/>
<path d="M72.996 191L57 228.483L58.4932 230L73 223.501L87.5068 230L89 228.483L72.996 191Z" fill="#00B0FF"/>
<path d="M72.8813 137.505C58.4724 137.498 44.385 141.764 32.401 149.764C20.4169 157.764 11.0745 169.138 5.55546 182.448C0.036422 195.758 -1.41133 210.406 1.39529 224.539C4.20191 238.672 11.1368 251.655 21.3229 261.846C31.509 272.037 44.4887 278.979 58.6202 281.793C72.7517 284.606 87.4002 283.166 100.713 277.653C114.026 272.141 125.405 262.804 133.411 250.824C141.417 238.844 145.69 224.759 145.69 210.35C145.69 191.037 138.02 172.514 124.367 158.854C110.714 145.194 92.1947 137.515 72.8813 137.505ZM72.8813 273.448C60.3929 273.448 48.185 269.745 37.8018 262.806C27.4186 255.867 19.3265 246.004 14.549 234.466C9.77159 222.927 8.52346 210.231 10.9625 197.983C13.4015 185.735 19.4181 174.486 28.2513 165.658C37.0845 156.83 48.3374 150.82 60.5867 148.388C72.836 145.956 85.5314 147.211 97.0672 151.995C108.603 156.779 118.461 164.877 125.394 175.264C132.327 185.652 136.023 197.862 136.016 210.35C136.014 227.093 129.362 243.15 117.522 254.988C105.682 266.827 89.6244 273.477 72.8813 273.477V273.448Z" fill="url(#paint2_radial)"/>
<path d="M428.623 299.93C427.649 297.553 426.65 295.184 425.626 292.822C424.783 290.517 423.544 288.376 421.965 286.497C421.365 285.821 420.634 285.273 419.817 284.887C418.917 284.555 417.972 284.366 417.014 284.328C415.554 284.144 414.079 284.104 412.611 284.21C412.042 284.038 411.397 283.813 410.764 283.555C413.941 282.72 416.767 280.887 418.824 278.326C420.881 275.764 422.061 272.61 422.19 269.328C422.19 269.113 422.19 268.887 422.19 268.673C422.199 266.663 421.811 264.672 421.05 262.812C420.289 260.953 419.169 259.261 417.754 257.834C416.339 256.407 414.656 255.273 412.803 254.496C410.949 253.72 408.961 253.316 406.952 253.307C404.123 253.302 401.35 254.094 398.951 255.594C395.784 254.876 392.466 255.252 389.541 256.662C386.615 258.072 384.254 260.433 382.843 263.358C381.064 265.059 379.659 267.112 378.716 269.385C377.773 271.659 377.313 274.104 377.366 276.565C377.366 276.79 377.366 277.027 377.366 277.241C377.645 285.584 383.036 292.274 389.845 292.951C389.117 293.277 388.449 293.724 387.869 294.271C385.785 296.279 385.442 299.468 385.216 302.367L385.055 304.515L381.447 305.803C381.332 305.844 381.231 305.916 381.154 306.011C381.077 306.105 381.028 306.219 381.011 306.34C380.994 306.46 381.011 306.583 381.06 306.695C381.108 306.807 381.186 306.903 381.286 306.974L384.733 309.433C384.733 309.637 384.733 309.841 384.733 310.045C384.733 310.249 384.733 310.507 384.797 310.743C384.209 311.261 383.752 311.913 383.466 312.643C383.13 313.77 383.024 314.954 383.154 316.122L383.283 319.118C383.266 321.373 383.574 323.619 384.196 325.786C384.647 327.118 386.602 330.328 388.008 330.35C386.709 336.255 386.365 348.711 386.365 348.711C386.204 348.872 386.655 349.022 387.439 349.151C388.212 355.078 390.736 371.7 395.214 379.013C395.919 381.397 396.482 383.821 396.9 386.271C396.9 386.271 398.178 402.066 399.864 406.759C401.303 410.753 402.441 420.61 402.753 423.467C402.461 423.542 402.195 423.696 401.985 423.911C401.775 424.127 401.628 424.397 401.561 424.691C400.712 427.246 395.214 431.133 395.214 431.133C393.529 431.975 391.938 432.994 390.468 434.172C388.739 435.729 388.803 437.136 396.481 436.255C411.301 434.548 413.835 429.812 413.835 429.812C413.835 429.812 413.599 429.018 413.245 427.987C412.792 426.383 412.139 424.843 411.301 423.402C411.086 423.198 410.871 423.542 410.614 424.079C409.495 417.227 409.157 410.272 409.604 403.344C409.604 403.344 410.023 396.086 407.907 390.964C407.437 388.282 407.437 385.539 407.907 382.857C408.756 379.442 404.525 362.788 404.525 362.788L402.098 350.526C402.428 350.944 402.66 351.433 402.774 351.954L402.839 352.201L402.903 352.555C402.927 352.68 402.987 352.796 403.075 352.888C404.729 359.76 409.261 378.798 409.261 381.59C409.261 385.004 413.492 393.541 413.492 393.541C413.492 393.541 415.178 407.629 418.141 413.169C420.397 417.389 420.45 423.574 420.343 426.301C420.343 426.301 419.838 429.812 418.99 430.661C418.315 431.499 417.776 432.437 417.39 433.442L417.293 433.646C417.293 433.646 416.026 436.212 416.874 436.642C420.101 437.907 423.593 438.346 427.033 437.919C427.033 437.919 428.73 435.772 428.73 434.934C428.695 434.423 428.63 433.914 428.537 433.41C428.225 431.391 427.645 428.213 427.635 428.18C427.989 426.806 426.561 422.983 426.561 422.983L426.131 411.032C426.917 402.94 425.905 394.775 423.167 387.12C423.167 387.12 421.02 379.442 421.481 377.305C421.943 375.169 420.633 352.544 420.633 352.544L420.504 352.222C420.389 350.622 420.433 349.014 420.633 347.423C421.052 342.301 419.366 331.627 418.936 331.209C418.586 330.062 418.384 328.874 418.335 327.676C418.431 326.785 418.721 324.176 419.119 320.933C423.294 320.79 427.459 320.432 431.597 319.859C431.997 319.859 432.382 319.705 432.671 319.43C432.841 319.172 432.927 318.868 432.918 318.56C433.412 312.128 431.06 305.879 428.623 299.93ZM420.107 313.47C420.547 310.41 421.019 307.446 421.492 305.245L421.556 305.438C422.369 307.651 423.051 309.91 423.597 312.203C422.469 312.719 421.302 313.142 420.107 313.47Z" fill="url(#paint3_linear)"/>
<path d="M387.214 348.035C387.214 348.035 389.748 370.831 395.236 379.689C395.941 382.044 396.504 384.44 396.921 386.862C396.921 386.862 398.189 402.475 399.875 407.113C401.561 411.752 402.828 424.422 402.828 424.422C402.828 424.422 408.734 431.166 410.85 425.689C409.521 418.454 409.096 411.082 409.583 403.742C409.583 403.742 410.001 396.569 407.897 391.501C407.426 388.851 407.426 386.14 407.897 383.49C408.734 380.108 404.514 363.658 404.514 363.658L401.142 347.197L387.214 348.035Z" fill="#BE6F72"/>
<path d="M413.803 429.909C413.803 429.909 411.269 434.548 396.503 436.234C388.835 437.103 388.781 435.718 390.51 434.172C391.976 433.007 393.56 431.999 395.236 431.165C395.236 431.165 400.723 427.375 401.561 424.841C402.398 422.307 405.362 424.422 405.362 424.422C409.583 430.747 410.431 422.726 411.269 423.574C412.109 424.99 412.763 426.51 413.212 428.094C413.567 429.114 413.803 429.909 413.803 429.909Z" fill="#FF6F61"/>
<path opacity="0.1" d="M413.803 429.909C413.803 429.909 411.269 434.548 396.503 436.234C388.835 437.104 388.781 435.719 390.51 434.172C391.713 434.935 394.14 435.246 399.026 433.281C406.06 430.403 411.161 428.739 413.212 428.095C413.567 429.115 413.803 429.909 413.803 429.909Z" fill="black"/>
<path opacity="0.1" d="M409.583 403.742C409.583 403.742 410.001 396.569 407.897 391.501C407.426 388.851 407.426 386.14 407.897 383.49C408.734 380.108 404.514 363.658 404.514 363.658L401.142 347.197L398.221 347.369L401.561 363.658C401.561 363.658 405.781 380.108 404.943 383.49C404.473 386.14 404.473 388.851 404.943 391.501C407.091 396.569 406.629 403.742 406.629 403.742C406.142 411.082 406.568 418.454 407.897 425.689C407.668 426.377 407.242 426.982 406.672 427.429C408.24 428.138 409.894 428.105 410.85 425.689C409.521 418.454 409.095 411.082 409.583 403.742Z" fill="black"/>
<path d="M406.833 255.412C404.018 255.406 401.257 256.191 398.865 257.677C395.708 256.948 392.396 257.31 389.471 258.705C386.546 260.099 384.179 262.443 382.757 265.355C380.986 267.03 379.585 269.057 378.643 271.305C377.702 273.554 377.241 275.975 377.291 278.412C377.291 287.388 383.337 294.658 390.79 294.658C396.159 294.658 400.863 290.835 403.021 285.305C404.262 285.634 405.539 285.8 406.823 285.799C410.853 285.799 414.718 284.198 417.567 281.349C420.417 278.5 422.018 274.635 422.018 270.605C422.018 266.576 420.417 262.711 417.567 259.862C414.718 257.012 410.853 255.412 406.823 255.412H406.833Z" fill="#3F3D56"/>
<path d="M419.29 350.15L420.558 353.521C420.558 353.521 421.825 375.888 421.395 378.003C420.966 380.119 423.092 387.667 423.092 387.667C425.821 395.224 426.83 403.294 426.045 411.29L426.464 423.101C426.464 423.101 428.15 427.74 427.312 428.588C426.475 429.437 420.107 427.837 420.107 427.837C420.107 427.837 420.955 418.978 417.959 413.491C414.963 408.004 413.32 394.078 413.32 394.078C413.32 394.078 409.099 385.638 409.099 382.266C409.099 378.895 402.345 351.46 402.345 351.46L419.29 350.15Z" fill="#BE6F72"/>
<path d="M386.365 349.731C386.365 349.731 386.795 334.537 388.513 329.899C389.387 327.731 390.018 325.473 390.392 323.166C390.392 323.166 415.94 327.783 418.055 326.098C418.055 326.098 418.474 332.003 418.904 332.422C419.333 332.841 421.052 343.396 420.59 348.464C420.128 353.532 420.59 353.522 420.59 353.522C420.59 353.522 403.279 356.056 402.86 353.522C402.441 350.987 401.174 350.998 401.174 350.998C401.174 350.998 385.528 350.526 386.365 349.731Z" fill="#3F3D56"/>
<path opacity="0.1" d="M400.293 349.732C400.293 349.732 389.619 349.442 386.398 348.862C386.398 349.409 386.398 349.732 386.398 349.732C385.56 350.569 401.174 350.999 401.174 350.999C401.387 351.018 401.588 351.1 401.754 351.235C401.185 349.732 400.293 349.732 400.293 349.732Z" fill="black"/>
<path opacity="0.1" d="M418.872 332.422C418.442 332.003 418.023 326.098 418.023 326.098C417.805 326.234 417.559 326.321 417.304 326.355C417.454 328.138 417.744 330.876 418.023 331.155C418.303 331.434 420.171 342.129 419.709 347.197C419.248 352.265 419.709 352.255 419.709 352.255C419.709 352.255 406.017 354.262 402.699 352.92C402.699 353.103 402.796 353.307 402.828 353.522C403.247 356.056 420.558 353.522 420.558 353.522C420.558 353.522 420.128 353.522 420.558 348.464C420.987 343.407 419.291 332.852 418.872 332.422Z" fill="black"/>
<path d="M404.965 281.999C405.328 282.811 405.881 283.525 406.576 284.082C407.023 284.414 407.541 284.638 408.09 284.737C407.145 285.284 406.114 285.692 405.169 286.24C403.682 287.239 402.249 288.314 400.873 289.461C399.467 290.592 397.745 291.259 395.944 291.372C396.576 290.521 396.973 289.517 397.093 288.464C397.214 287.41 397.055 286.343 396.632 285.37C396.245 284.733 395.989 284.025 395.88 283.287C395.88 282.074 396.954 281.14 397.952 280.495C398.758 279.948 399.585 279.421 400.422 278.895C401.077 278.487 402.065 277.628 402.892 277.661C403.719 277.693 403.816 278.423 403.966 279.175C404.179 280.154 404.514 281.103 404.965 281.999Z" fill="#BE6F72"/>
<path opacity="0.1" d="M404.965 281.999C405.328 282.811 405.881 283.525 406.576 284.082C407.023 284.414 407.541 284.638 408.09 284.737C407.145 285.284 406.114 285.692 405.169 286.24C403.682 287.239 402.249 288.314 400.873 289.461C399.467 290.592 397.745 291.259 395.944 291.372C396.576 290.521 396.973 289.517 397.093 288.464C397.214 287.41 397.055 286.343 396.632 285.37C396.245 284.733 395.989 284.025 395.88 283.287C395.88 282.074 396.954 281.14 397.952 280.495C398.758 279.948 399.585 279.421 400.422 278.895C401.077 278.487 402.065 277.628 402.892 277.661C403.719 277.693 403.816 278.423 403.966 279.175C404.179 280.154 404.514 281.103 404.965 281.999Z" fill="black"/>
<path d="M414.855 306.899C420.217 306.899 424.563 302.553 424.563 297.192C424.563 291.831 420.217 287.485 414.855 287.485C409.494 287.485 405.147 291.831 405.147 297.192C405.147 302.553 409.494 306.899 414.855 306.899Z" fill="#BE6F72"/>
<path d="M428.569 434.967C428.569 435.815 426.883 437.92 426.883 437.92C423.454 438.341 419.975 437.906 416.756 436.653C415.908 436.234 417.175 433.7 417.175 433.7L417.272 433.496C417.659 432.502 418.198 431.575 418.872 430.747C419.709 429.91 420.214 426.452 420.214 426.452C422.834 422.157 427.484 428.31 427.484 428.31C427.484 428.31 428.075 431.531 428.386 433.485C428.494 434.183 428.569 434.752 428.569 434.967Z" fill="#FF6F61"/>
<path opacity="0.1" d="M428.569 434.967C428.569 435.815 426.883 437.92 426.883 437.92C423.454 438.341 419.975 437.906 416.756 436.653C415.908 436.234 417.175 433.7 417.175 433.7L417.272 433.496C420.147 434.832 423.295 435.479 426.464 435.386L428.386 433.464C428.494 434.183 428.569 434.752 428.569 434.967Z" fill="black"/>
<path d="M395.44 286.422C400.683 286.422 404.933 282.173 404.933 276.93C404.933 271.688 400.683 267.438 395.44 267.438C390.197 267.438 385.946 271.688 385.946 276.93C385.946 282.173 390.197 286.422 395.44 286.422Z" fill="#BE6F72"/>
<path d="M387.783 295.914C385.699 297.901 385.356 301.047 385.141 303.914L384.819 308.112C384.702 309.243 384.677 310.381 384.744 311.516C384.744 312.214 384.915 312.923 384.98 313.663C385.044 314.404 385.066 315.339 385.077 316.187V322.393C384.975 323.674 385.212 324.959 385.764 326.119C386.059 326.68 386.553 327.111 387.149 327.325C387.746 327.54 388.401 327.523 388.986 327.279C389.653 326.765 390.123 326.037 390.317 325.217C391.365 322.699 392.086 320.058 392.465 317.357C392.551 316.423 392.561 315.489 392.647 314.555C392.733 313.621 392.894 312.643 393.034 311.699C393.635 307.747 393.904 303.753 394.172 299.769C394.247 298.588 395.311 293.938 393.764 293.423C393.012 293.176 391.455 293.949 390.736 294.207C389.647 294.571 388.642 295.152 387.783 295.914Z" fill="#BE6F72"/>
<path opacity="0.1" d="M387.783 295.914C385.699 297.901 385.356 301.047 385.141 303.914L384.819 308.112C384.702 309.243 384.677 310.381 384.744 311.516C384.744 312.214 384.915 312.923 384.98 313.663C385.044 314.404 385.066 315.339 385.077 316.187V322.393C384.975 323.674 385.212 324.959 385.764 326.119C386.059 326.68 386.553 327.111 387.149 327.325C387.746 327.54 388.401 327.523 388.986 327.279C389.653 326.765 390.123 326.037 390.317 325.217C391.365 322.699 392.086 320.058 392.465 317.357C392.551 316.423 392.561 315.489 392.647 314.555C392.733 313.621 392.894 312.643 393.034 311.699C393.635 307.747 393.904 303.753 394.172 299.769C394.247 298.588 395.311 293.938 393.764 293.423C393.012 293.176 391.455 293.949 390.736 294.207C389.647 294.571 388.642 295.152 387.783 295.914Z" fill="black"/>
<path d="M407.467 283.051C407.467 283.051 400.293 288.538 396.073 289.805C396.073 289.805 393.571 292.661 393.141 293.348C392.712 294.035 391.853 301.616 390.994 303.313C390.135 305.009 388.04 308.799 390.994 312.59C390.994 312.59 391.831 316.391 391.412 317.658C390.994 318.925 389.458 323.564 390.854 323.778C392.25 323.993 396.481 326.935 400.272 326.098C404.063 325.26 418.217 329.319 418.217 329.319C418.217 329.319 420.558 307.575 422.254 303.731L418.453 302.464C418.453 302.464 407.907 296.14 414.232 286.433C414.222 286.433 408.294 285.166 407.467 283.051Z" fill="#FF6F61"/>
<path d="M381.275 308.466L389.995 314.64C390.106 314.722 390.239 314.765 390.376 314.765C390.513 314.765 390.647 314.722 390.757 314.64L393.12 312.869C393.193 312.806 393.251 312.729 393.291 312.642C393.331 312.555 393.352 312.46 393.352 312.364C393.352 312.268 393.331 312.173 393.291 312.086C393.251 311.999 393.193 311.922 393.12 311.859L386.408 305.9C386.321 305.821 386.214 305.767 386.099 305.744C385.983 305.721 385.864 305.731 385.753 305.771L381.447 307.317C381.334 307.356 381.233 307.426 381.157 307.518C381.08 307.61 381.03 307.721 381.012 307.84C380.995 307.958 381.01 308.079 381.056 308.19C381.102 308.3 381.178 308.396 381.275 308.466Z" fill="#3F3D56"/>
<path d="M384.207 327.064C383.59 324.925 383.283 322.708 383.294 320.482L383.165 317.508C383.035 316.353 383.141 315.184 383.476 314.072C383.808 313.309 384.304 312.629 384.93 312.081C385.556 311.533 386.295 311.131 387.095 310.904C388.699 310.459 390.374 310.339 392.025 310.55C392.247 310.55 392.466 310.61 392.658 310.722C392.827 310.877 392.946 311.079 393.002 311.301C393.246 311.777 393.389 312.299 393.422 312.833C393.456 313.367 393.378 313.902 393.195 314.405C392.946 314.814 392.608 315.162 392.207 315.425C391.037 316.262 389.673 316.821 388.567 317.733C388.342 317.885 388.169 318.103 388.073 318.356C388.019 318.578 388.019 318.81 388.073 319.032C388.21 319.623 388.397 320.202 388.631 320.761C388.726 321.043 388.893 321.294 389.114 321.491C389.318 321.663 389.587 321.728 389.802 321.889C390.263 322.265 391.23 322.758 391.176 323.349C391.015 325.497 389.726 327.902 389.222 330.028C388.255 334.183 384.83 328.879 384.207 327.064Z" fill="#BE6F72"/>
<path opacity="0.1" d="M397.77 326.098H397.534C398.445 326.275 399.382 326.275 400.293 326.098H400.562C399.636 325.963 398.696 325.963 397.77 326.098Z" fill="black"/>
<path opacity="0.1" d="M419.924 303.098C418.41 306.501 416.176 324.938 415.779 328.6C417.261 328.986 418.238 329.265 418.238 329.265C418.238 329.265 420.558 307.575 422.254 303.731L419.924 303.098Z" fill="black"/>
<path d="M415.188 297.493C415.267 297.917 415.431 298.321 415.669 298.68C415.906 299.04 416.214 299.348 416.574 299.587C417.47 300.338 418.293 301.172 419.033 302.078C420.094 303.57 420.916 305.218 421.471 306.963C422.276 309.148 422.954 311.378 423.5 313.642C418.131 316.133 412.031 316.015 406.318 317.658C403.858 318.307 401.627 319.626 399.875 321.47C399.001 322.397 398.337 323.501 397.927 324.707C397.518 325.913 397.372 327.193 397.501 328.46C397.51 328.608 397.554 328.752 397.63 328.879C397.723 328.984 397.84 329.066 397.971 329.118C398.101 329.171 398.242 329.192 398.382 329.18C399.809 329.178 401.196 328.702 402.323 327.827C403.438 326.956 404.45 325.962 405.341 324.863C405.894 324.143 406.638 323.592 407.489 323.274C410.592 322.329 413.932 322.383 417.154 322.329C421.972 322.235 426.781 321.855 431.554 321.191C431.728 321.212 431.905 321.192 432.071 321.135C432.237 321.078 432.387 320.983 432.511 320.859C432.635 320.735 432.73 320.585 432.787 320.419C432.845 320.253 432.864 320.076 432.843 319.902C433.315 313.567 430.964 307.382 428.547 301.509C427.581 299.154 426.586 296.809 425.562 294.476C424.719 292.195 423.483 290.08 421.911 288.226C421.314 287.552 420.582 287.011 419.763 286.637C418.839 286.304 417.867 286.122 416.885 286.1C415.322 285.89 413.74 285.861 412.171 286.014C411.92 286.805 411.769 287.624 411.72 288.452C411.806 291.351 413.073 294.068 414.318 296.688C414.48 297.085 414.941 297.106 415.188 297.493Z" fill="#BE6F72"/>
<path opacity="0.1" d="M397.995 302.926C397.269 304.169 396.897 305.588 396.921 307.028C396.924 307.596 397.015 308.161 397.19 308.703C397.483 309.462 397.943 310.145 398.536 310.703C399.129 311.261 399.84 311.678 400.615 311.924" stroke="black" stroke-miterlimit="10"/>
<path d="M403.462 267.653C402.933 267.651 402.407 267.735 401.904 267.9C400.498 265.752 397.19 264.271 393.313 264.271C388.18 264.271 384.024 266.923 384.024 270.187C384.024 273.451 388.18 276.093 393.313 276.093C395.235 276.114 397.138 275.71 398.887 274.912C399.28 275.725 399.884 276.418 400.636 276.919C401.388 277.42 402.261 277.711 403.163 277.76C404.065 277.81 404.964 277.617 405.766 277.201C406.569 276.786 407.245 276.163 407.725 275.398C408.206 274.632 408.472 273.752 408.497 272.849C408.521 271.946 408.304 271.053 407.866 270.262C407.429 269.471 406.788 268.812 406.009 268.354C405.231 267.895 404.344 267.653 403.44 267.653H403.462Z" fill="#3F3D56"/>
<path opacity="0.1" d="M403.88 276.511C402.928 276.512 401.995 276.243 401.19 275.735C400.384 275.228 399.738 274.503 399.327 273.645C397.579 274.443 395.676 274.847 393.754 274.826C388.631 274.826 384.475 272.184 384.475 268.92C384.459 268.723 384.459 268.526 384.475 268.329C384.17 268.901 384.007 269.539 384.003 270.187C384.003 273.408 388.159 276.093 393.292 276.093C395.214 276.114 397.117 275.71 398.865 274.912C399.328 275.87 400.081 276.659 401.018 277.164C401.954 277.67 403.027 277.868 404.082 277.728C405.138 277.589 406.122 277.12 406.896 276.389C407.669 275.658 408.193 274.701 408.391 273.655C407.982 274.506 407.343 275.225 406.545 275.73C405.748 276.235 404.824 276.506 403.88 276.511Z" fill="black"/>
<path opacity="0.1" d="M382.768 267.846C384.19 264.934 386.556 262.59 389.482 261.196C392.407 259.802 395.718 259.439 398.876 260.169C401.085 258.804 403.608 258.03 406.202 257.918C408.797 257.807 411.376 258.363 413.695 259.533C416.013 260.702 417.992 262.447 419.444 264.6C420.896 266.753 421.771 269.242 421.986 271.83C421.986 271.411 421.986 270.992 421.986 270.563C421.98 267.862 421.254 265.212 419.882 262.885C418.511 260.559 416.544 258.64 414.183 257.327C411.823 256.015 409.155 255.355 406.455 255.416C403.755 255.478 401.12 256.258 398.822 257.677C395.665 256.948 392.353 257.311 389.428 258.705C386.503 260.099 384.136 262.443 382.714 265.355C380.943 267.03 379.541 269.057 378.6 271.305C377.659 273.554 377.198 275.975 377.248 278.412C377.248 278.841 377.248 279.26 377.248 279.679C377.459 275.162 379.442 270.91 382.768 267.846Z" fill="black"/>
<path d="M54.4374 429.627C55.0725 431.71 55.8548 433.744 56.7785 435.716C59.4223 435.157 62.0239 434.414 64.5641 433.493C64.0633 432.748 63.5219 432.031 62.9425 431.345C62.3123 430.66 61.5673 430.089 60.7411 429.66C59.8609 429.46 58.9473 429.46 58.0671 429.66C56.8644 429.627 55.6509 429.649 54.4374 429.627Z" fill="#FBBEBE"/>
<path d="M60.7517 432.773C60.1167 432.489 59.5502 432.071 59.0907 431.549C58.6312 431.027 58.2895 430.411 58.0885 429.745C57.6795 428.407 56.9872 427.173 56.0589 426.127C55.8634 426.153 55.6779 426.23 55.5201 426.348C55.3622 426.466 55.2372 426.623 55.1568 426.803C54.9635 427.147 54.8454 427.533 54.6306 427.877C54.2011 428.489 53.4493 428.79 52.9124 429.305C52.3755 429.82 52.0533 430.626 51.4734 431.152C50.6761 431.739 49.7399 432.109 48.7565 432.226C47.2621 432.563 45.8181 433.094 44.4609 433.804C43.9642 434.101 43.4344 434.339 42.8823 434.513C42.27 434.604 41.6476 434.604 41.0353 434.513L36.8042 434.212C36.4486 434.154 36.0858 434.154 35.7303 434.212C35.2984 434.368 34.9314 434.665 34.688 435.054C34.4446 435.443 34.339 435.903 34.3879 436.36C34.438 436.812 34.5835 437.249 34.8149 437.642C35.0463 438.034 35.3583 438.373 35.7303 438.636C36.4653 439.164 37.2764 439.577 38.1358 439.86C41.8197 441.247 45.6129 442.325 49.476 443.081V443.919C52.1665 445.239 55.1236 445.926 58.1207 445.927C58.3409 445.94 58.5611 445.904 58.765 445.82C59.0394 445.614 59.2301 445.317 59.302 444.982C60.3199 442.016 60.9164 438.922 61.0739 435.791C61.1429 434.995 61.0812 434.193 60.8913 433.418C60.6551 432.655 61.4498 432.977 60.7195 432.677" fill="#2F2E41"/>
<path d="M78.5246 430.207C80.4862 430.873 82.4657 431.488 84.4632 432.054C85.537 430.218 87.6848 428.94 88.1465 426.835C88.1734 426.744 88.1734 426.647 88.1465 426.556C88.0936 426.467 88.015 426.396 87.921 426.352C86.4853 425.564 84.8947 425.099 83.2604 424.989C81.9717 424.913 81.3811 426.256 80.8012 427.201C80.5757 427.619 79.0508 430.411 78.5246 430.207Z" fill="#FBBEBE"/>
<path d="M81.2737 428.897C80.6868 428.798 80.1269 428.577 79.6296 428.25C79.1323 427.923 78.7085 427.496 78.3849 426.996C78.1165 426.513 77.8158 425.858 77.2574 425.923C76.6989 425.987 76.5164 426.567 76.3983 427.072C76.0265 428.974 75.4838 430.839 74.7767 432.644C74.0681 434.459 72.8667 436.039 71.3081 437.208C70.5778 437.713 69.7724 438.088 69.0529 438.625C68.4572 439.153 67.8217 439.634 67.1521 440.064C66.6782 440.276 66.1902 440.456 65.6916 440.601C64.958 440.877 64.2588 441.237 63.6083 441.675C63.029 442.007 62.539 442.475 62.1801 443.038C62.0026 443.32 61.8996 443.642 61.8808 443.975C61.862 444.307 61.9281 444.639 62.0727 444.939C62.2229 445.186 62.4242 445.398 62.6632 445.561C62.9021 445.724 63.1731 445.834 63.458 445.884C64.0311 445.97 64.6138 445.97 65.1869 445.884C67.4743 445.723 69.7617 445.519 72.049 445.315C73.0132 445.253 73.9715 445.12 74.9163 444.918L76.409 444.509C77.2618 444.284 78.137 444.155 79.0185 444.123C79.2752 444.099 79.5339 444.125 79.781 444.198C80.3072 444.37 80.6831 444.896 81.2307 445.003C81.5946 445.038 81.9617 444.991 82.3046 444.864C83.9739 444.506 85.6769 444.33 87.3841 444.338C88.1358 444.338 89.0164 444.144 89.36 443.479C89.7896 442.641 89.0808 441.707 88.7909 440.805C88.6522 440.231 88.573 439.645 88.5546 439.055C88.4264 437.594 87.9987 436.176 87.2982 434.889C86.7183 433.815 85.9236 432.634 86.3317 431.495C86.5347 431.134 86.6659 430.736 86.7183 430.325C86.5572 428.478 82.3261 429.133 81.2737 428.897Z" fill="#2F2E41"/>
<path d="M256 433C312.885 433 359 386.885 359 330C359 273.115 312.885 227 256 227C199.115 227 153 273.115 153 330C153 386.885 199.115 433 256 433Z" fill="#3F3D56"/>
<path d="M316.938 297.533L284.796 330.229C284.74 330.283 284.695 330.348 284.664 330.42C284.633 330.492 284.617 330.569 284.617 330.648C284.617 330.726 284.633 330.803 284.664 330.875C284.695 330.947 284.74 331.012 284.796 331.066L307.348 355.044C307.887 355.587 308.254 356.278 308.402 357.029C308.551 357.78 308.474 358.559 308.181 359.266C307.889 359.974 307.394 360.58 306.758 361.007C306.123 361.434 305.375 361.665 304.609 361.669C303.579 361.667 302.591 361.257 301.86 360.531L279.427 336.639C279.312 336.526 279.158 336.463 278.997 336.463C278.836 336.463 278.682 336.526 278.568 336.639L273.102 342.158C270.864 344.447 268.191 346.265 265.24 347.506C262.289 348.747 259.121 349.386 255.919 349.385C252.658 349.37 249.432 348.705 246.43 347.429C243.428 346.153 240.711 344.292 238.437 341.954L233.185 336.586C233.071 336.473 232.917 336.41 232.756 336.41C232.595 336.41 232.441 336.473 232.326 336.586L209.946 360.423C209.586 360.784 209.159 361.07 208.688 361.265C208.217 361.46 207.712 361.561 207.203 361.561C206.693 361.561 206.188 361.46 205.718 361.265C205.247 361.07 204.819 360.784 204.459 360.423C204.097 360.064 203.81 359.636 203.613 359.166C203.417 358.695 203.316 358.19 203.316 357.68C203.316 357.17 203.417 356.665 203.613 356.194C203.81 355.723 204.097 355.296 204.459 354.936L226.925 331.013C227.024 330.896 227.079 330.748 227.079 330.594C227.079 330.44 227.024 330.292 226.925 330.175L194.783 297.479C194.701 297.396 194.595 297.339 194.48 297.316C194.365 297.293 194.246 297.305 194.138 297.35C194.03 297.395 193.937 297.471 193.873 297.568C193.808 297.666 193.773 297.781 193.774 297.898V363.322C193.782 365.851 194.791 368.274 196.579 370.063C198.368 371.851 200.791 372.86 203.321 372.868H308.422C310.951 372.86 313.374 371.851 315.163 370.063C316.952 368.274 317.96 365.851 317.969 363.322V297.952C317.974 297.83 317.941 297.709 317.876 297.607C317.81 297.504 317.714 297.424 317.601 297.379C317.488 297.333 317.363 297.323 317.245 297.351C317.126 297.378 317.019 297.442 316.938 297.533Z" fill="#00B0FF"/>
<path d="M255.887 341.621C258.066 341.643 260.227 341.226 262.241 340.396C264.256 339.566 266.083 338.339 267.614 336.789L314.425 289.147C312.763 287.77 310.676 287.011 308.518 286.999H203.342C201.183 287.006 199.095 287.765 197.436 289.147L244.257 336.789C245.775 338.331 247.586 339.552 249.583 340.382C251.581 341.212 253.724 341.633 255.887 341.621Z" fill="#00B0FF"/>
<path d="M255.534 222.638C234.29 222.627 213.52 228.917 195.852 240.712C178.184 252.506 164.411 269.275 156.277 288.898C148.142 308.521 146.011 330.115 150.153 350.949C154.295 371.783 164.524 390.921 179.545 405.941C194.567 420.961 213.707 431.189 234.543 435.33C255.38 439.471 276.976 437.34 296.601 429.207C316.226 421.073 332.997 407.302 344.793 389.636C356.589 371.97 362.88 351.202 362.869 329.96C362.855 301.501 351.542 274.211 331.416 254.088C311.29 233.964 283.997 222.652 255.534 222.638ZM255.534 423.024C237.126 423.024 219.131 417.566 203.825 407.34C188.519 397.114 176.59 382.579 169.545 365.574C162.501 348.569 160.658 329.857 164.249 311.805C167.84 293.752 176.705 277.17 189.721 264.155C202.738 251.14 219.322 242.276 237.376 238.685C255.431 235.095 274.145 236.938 291.152 243.981C308.159 251.025 322.695 262.953 332.922 278.257C343.149 293.562 348.608 311.554 348.608 329.96C348.608 354.642 338.802 378.313 321.347 395.766C303.892 413.219 280.219 423.024 255.534 423.024Z" fill="url(#paint4_radial)"/>
<path d="M178.482 367.832C178.495 366.185 178.123 364.558 177.394 363.081C176.664 361.604 175.599 360.318 174.283 359.328C174.267 356.416 173.222 353.604 171.334 351.388C169.446 349.172 166.835 347.694 163.963 347.216C163.519 345.099 162.526 343.137 161.084 341.526C159.642 339.914 157.802 338.71 155.748 338.035C155.249 337.879 154.739 337.761 154.223 337.681H154.072H153.804H153.589H153.353H153.063H152.408C149.554 337.747 146.816 338.82 144.678 340.71C142.539 342.601 141.139 345.187 140.724 348.01C136.955 347.141 133.507 348.268 132.874 350.652C132.715 351.285 132.753 351.952 132.981 352.563C133.626 354.41 135.72 356.182 138.522 357.051L138.888 357.159L139.435 357.298H139.553C138.955 358.571 138.647 359.961 138.651 361.368C138.643 363.094 139.11 364.789 140.002 366.267C140.895 367.744 142.177 368.947 143.709 369.743L143.462 369.894C143.113 370.211 142.835 370.599 142.646 371.032C141.968 372.23 141.438 373.507 141.068 374.833C140.799 375.971 140.756 377.152 140.423 378.28C139.8 380.352 138.211 382.102 138.028 384.261C137.943 385.227 138.104 386.408 137.416 387.031C137.247 387.178 137.064 387.307 136.869 387.417C136.393 387.754 135.988 388.181 135.677 388.674C135.471 389.121 135.187 389.528 134.839 389.876C134.216 390.338 133.196 390.295 132.895 391.015C132.595 391.734 133.379 392.582 133.196 393.366C133.013 394.15 132.348 394.3 131.864 394.74C131.302 395.345 130.906 396.085 130.715 396.888C129.699 397.082 128.653 397.05 127.651 396.794C126.648 396.537 125.715 396.064 124.916 395.406C125.19 396.099 125.392 396.819 125.518 397.554C124.583 396.841 123.523 396.309 122.393 395.986C121.121 395.408 119.986 394.566 119.064 393.516L120.846 393.269L112.975 381.254L110.644 380.771L112.728 384.776C112.554 384.855 112.4 384.973 112.277 385.119C112.154 385.266 112.066 385.439 112.019 385.624C111.908 386.07 111.883 386.533 111.944 386.988C112.051 388.072 112.23 389.149 112.481 390.209L113.082 393.022C113.136 393.28 113.2 393.549 113.275 393.806C112.49 393.768 111.703 393.855 110.945 394.064C109.384 393.484 107.757 393.098 106.102 392.915C105.748 392.843 105.382 392.843 105.028 392.915C104.627 393.105 104.277 393.389 104.008 393.742C102.652 395.314 101.447 397.011 100.41 398.81C96.1148 406.176 90.5198 412.608 85.2256 419.265C81.5744 420.747 77.891 422.154 74.2075 423.56L66.2823 426.588C64.737 427.289 63.0608 427.655 61.3639 427.662C60.6122 427.662 59.6779 427.501 59.2161 428.145C59.0089 428.481 58.8464 428.842 58.7329 429.219L57.9167 429.305C57.5409 428.016 56.8927 426.822 56.0159 425.804C55.8226 425.838 55.6403 425.918 55.4849 426.037C55.3296 426.157 55.2059 426.313 55.1246 426.492C54.9313 426.846 54.8132 427.233 54.5877 427.565C54.1689 428.188 53.4279 428.489 52.9017 429.015C52.3755 429.541 52.0426 430.357 51.4627 430.894C50.6721 431.479 49.7434 431.849 48.7672 431.968C47.2956 432.311 45.8763 432.849 44.5469 433.568C44.0603 433.872 43.5371 434.114 42.9897 434.287C42.3848 434.405 41.7651 434.427 41.1534 434.352L36.9653 434.04C36.5891 433.993 36.2077 434.012 35.8377 434.094C35.4172 434.265 35.0618 434.565 34.8226 434.951C34.5833 435.337 34.4725 435.789 34.5061 436.241C34.5601 436.696 34.706 437.136 34.9349 437.532C35.1638 437.929 35.4709 438.275 35.8377 438.55C36.5622 439.085 37.3668 439.502 38.2217 439.785C41.8461 441.196 45.5818 442.302 49.3901 443.092V443.94C52.0546 445.283 54.9973 445.982 57.9812 445.98C58.2024 445.995 58.4239 445.955 58.6255 445.862C58.8998 445.657 59.0906 445.36 59.1624 445.025C60.0532 442.361 60.6157 439.599 60.8377 436.8C61.3618 436.765 61.875 436.634 62.3519 436.413C63.7909 436.016 65.2299 437.004 66.7226 437.165C68.5589 437.369 70.2556 436.295 71.9953 435.64L72.7471 435.393C72.2517 436.03 71.6656 436.591 71.0074 437.058C70.2879 437.573 69.4825 437.959 68.7844 438.496C68.1934 439.032 67.5615 439.52 66.8944 439.957C66.4239 440.174 65.9396 440.361 65.4446 440.515C64.7125 440.787 64.0165 441.148 63.3721 441.589C62.8009 441.929 62.3188 442.4 61.9653 442.963C61.7888 443.251 61.6857 443.578 61.6651 443.915C61.6445 444.252 61.7071 444.589 61.8472 444.896C61.9957 445.147 62.1961 445.363 62.4351 445.529C62.674 445.696 62.9459 445.81 63.2324 445.862C63.7984 445.948 64.374 445.948 64.9399 445.862C67.2165 445.691 69.4824 445.487 71.7483 445.283C72.7062 445.222 73.6578 445.085 74.5942 444.874C75.0881 444.756 75.5821 444.595 76.0761 444.456C76.9239 444.242 77.7908 444.112 78.6641 444.069C78.9172 444.05 79.1717 444.075 79.4159 444.144C79.9421 444.316 80.3179 444.853 80.8549 444.96C81.2189 445.006 81.5886 444.958 81.9288 444.821C83.5839 444.464 85.2722 444.284 86.9653 444.284C87.7063 444.284 88.5761 444.101 88.9198 443.414C89.2634 442.727 88.6405 441.621 88.3613 440.708C88.2181 440.125 88.1389 439.527 88.1251 438.926C87.9955 437.447 87.572 436.008 86.8794 434.695C86.506 434.083 86.193 433.436 85.9451 432.762C89.1928 431.529 92.2996 429.952 95.2127 428.059C96.8085 426.904 98.5977 426.042 100.496 425.515C102.738 425.247 105.012 425.512 107.133 426.288C112.296 427.784 117.375 429.554 122.35 431.592C124.723 432.569 127.086 433.6 129.534 434.341C130.248 435.299 131.111 436.136 132.09 436.821C133.781 437.772 135.681 438.292 137.62 438.335C140.209 438.571 142.808 438.668 145.406 438.625C147.395 438.711 149.378 438.344 151.205 437.551C151.641 437.334 152.048 437.063 152.419 436.746C153.12 436.806 153.826 436.71 154.486 436.467C155.147 436.224 155.746 435.839 156.242 435.34C157.65 434.133 158.663 432.532 159.152 430.744C159.785 428.296 159.302 425.375 160.805 423.421C161.203 422.884 161.729 422.454 162.126 421.917C162.608 421.182 162.848 420.315 162.814 419.437C162.831 419.402 162.853 419.37 162.878 419.34C163.208 418.552 163.425 417.72 163.522 416.871C163.707 416.203 163.94 415.55 164.22 414.916C164.984 413.022 165.65 411.091 166.218 409.129C166.605 407.824 166.914 406.498 167.141 405.156C167.303 404.082 167.399 403.008 167.485 401.935C167.599 400.243 167.927 398.572 168.462 396.963C169.807 393.133 170.567 389.122 170.717 385.066V384.83C172.696 384.602 174.518 383.644 175.826 382.141C177.133 380.639 177.831 378.703 177.784 376.712C177.784 375.517 177.532 374.335 177.043 373.244C177.993 371.599 178.489 369.731 178.482 367.832ZM140.058 414.508C140.176 414.927 140.316 415.335 140.455 415.743C139.822 415.131 139.21 414.498 138.576 413.875C138.823 413.961 139.081 414.036 139.317 414.133C139.565 414.234 139.803 414.36 140.026 414.508H140.058ZM137.019 412.447C133.303 409.226 129.008 406.724 125.206 403.599C127.279 404.619 129.298 405.811 131.295 406.949C133.665 408.302 136.067 409.601 138.501 410.847C138.101 411.471 137.588 412.013 136.987 412.447H137.019ZM138.598 404.329L138.78 404.147C138.78 404.608 138.78 405.027 138.78 405.424L137.781 405.081C138.058 404.846 138.32 404.595 138.565 404.329H138.598ZM105.919 413.027C107.444 411.301 108.769 409.411 109.871 407.389C111.342 409.956 113.737 411.813 115.767 413.972C112.492 413.553 109.205 413.198 105.919 413.027Z" fill="url(#paint5_linear)"/>
<path d="M111.203 381.759L113.544 382.231L121.523 394.032L118.011 394.505L111.203 381.759Z" fill="#2F2E41"/>
<path d="M141.895 416.828C129.352 417.58 116.959 413.908 104.394 413.521C102.835 413.418 101.269 413.516 99.7338 413.811C98.1357 414.244 96.5878 414.845 95.1161 415.604C88.3829 418.739 81.4134 421.338 74.4546 423.926L66.4541 426.9C64.8981 427.603 63.211 427.969 61.5035 427.974C60.7411 427.974 59.8068 427.813 59.3558 428.446C58.0564 430.379 58.6685 433.203 59.5276 435.372C59.8068 436.07 60.2793 436.832 61.031 436.908C61.5585 436.872 62.0752 436.741 62.5559 436.521C64.0057 436.134 65.4554 437.112 66.9589 437.273C68.8059 437.466 70.5242 436.414 72.2746 435.769C75.1741 434.696 78.3313 434.696 81.3811 434.223C86.4821 433.375 91.2179 431.002 95.6423 428.307C97.2511 427.16 99.0511 426.31 100.958 425.794C103.217 425.528 105.507 425.789 107.648 426.556C112.852 428.025 117.974 429.767 122.994 431.775C125.604 432.911 128.279 433.889 131.005 434.706C136.956 436.263 143.248 435.887 148.971 433.633C150.98 432.838 153.16 431.485 153.267 429.273C153.342 428.038 152.376 426.954 151.742 425.891C151.334 425.214 150.915 424.538 150.475 423.883C148.327 420.769 145.707 416.603 141.895 416.828Z" fill="#2F2E41"/>
<path opacity="0.1" d="M141.895 416.828C129.352 417.58 116.959 413.908 104.394 413.521C102.835 413.418 101.269 413.516 99.7338 413.811C98.1357 414.244 96.5878 414.845 95.1161 415.604C88.3829 418.739 81.4134 421.338 74.4546 423.926L66.4541 426.9C64.8981 427.603 63.211 427.969 61.5035 427.974C60.7411 427.974 59.8068 427.813 59.3558 428.446C58.0564 430.379 58.6685 433.203 59.5276 435.372C59.8068 436.07 60.2793 436.832 61.031 436.908C61.5585 436.872 62.0752 436.741 62.5559 436.521C64.0057 436.134 65.4554 437.112 66.9589 437.273C68.8059 437.466 70.5242 436.414 72.2746 435.769C75.1741 434.696 78.3313 434.696 81.3811 434.223C86.4821 433.375 91.2179 431.002 95.6423 428.307C97.2511 427.16 99.0511 426.31 100.958 425.794C103.217 425.528 105.507 425.789 107.648 426.556C112.852 428.025 117.974 429.767 122.994 431.775C125.604 432.911 128.279 433.889 131.005 434.706C136.956 436.263 143.248 435.887 148.971 433.633C150.98 432.838 153.16 431.485 153.267 429.273C153.342 428.038 152.376 426.954 151.742 425.891C151.334 425.214 150.915 424.538 150.475 423.883C148.327 420.769 145.707 416.603 141.895 416.828Z" fill="black"/>
<path d="M123.091 396.706C120.865 395.73 119.081 393.962 118.086 391.745C117.882 391.272 117.711 390.768 117.507 390.295C116.851 388.695 115.829 387.272 114.521 386.14C114.383 385.994 114.217 385.877 114.032 385.798C113.847 385.718 113.648 385.678 113.447 385.678C113.248 385.738 113.068 385.851 112.926 386.004C112.785 386.156 112.687 386.344 112.642 386.548C112.522 386.985 112.493 387.442 112.556 387.89C112.665 388.946 112.845 389.993 113.093 391.026L113.705 393.796C113.786 394.22 113.912 394.634 114.081 395.031C114.343 395.495 114.689 395.906 115.101 396.244C115.66 396.759 116.229 397.253 116.798 397.747C117.127 398.034 117.487 398.282 117.872 398.488C118.471 398.774 119.113 398.963 119.772 399.047C122.335 399.38 124.78 400.323 126.903 401.795C126.903 401.795 126.903 399.938 126.903 399.734C126.876 399.194 126.689 398.675 126.366 398.241C125.382 397.525 124.271 397.004 123.091 396.706Z" fill="#FBBEBE"/>
<path opacity="0.1" d="M123.091 396.706C120.865 395.73 119.081 393.962 118.086 391.745C117.882 391.272 117.711 390.768 117.507 390.295C116.851 388.695 115.829 387.272 114.521 386.14C114.383 385.994 114.217 385.877 114.032 385.798C113.847 385.718 113.648 385.678 113.447 385.678C113.248 385.738 113.068 385.851 112.926 386.004C112.785 386.156 112.687 386.344 112.642 386.548C112.522 386.985 112.493 387.442 112.556 387.89C112.665 388.946 112.845 389.993 113.093 391.026L113.705 393.796C113.786 394.22 113.912 394.634 114.081 395.031C114.343 395.495 114.689 395.906 115.101 396.244C115.66 396.759 116.229 397.253 116.798 397.747C117.127 398.034 117.487 398.282 117.872 398.488C118.471 398.774 119.113 398.963 119.772 399.047C122.335 399.38 124.78 400.323 126.903 401.795C126.903 401.795 126.903 399.938 126.903 399.734C126.876 399.194 126.689 398.675 126.366 398.241C125.382 397.525 124.271 397.004 123.091 396.706Z" fill="black"/>
<path d="M148.628 375.51C150.312 375.51 151.678 374.135 151.678 372.439C151.678 370.743 150.312 369.368 148.628 369.368C146.943 369.368 145.578 370.743 145.578 372.439C145.578 374.135 146.943 375.51 148.628 375.51Z" fill="#2F2E41"/>
<path d="M146.738 370.592C145.921 370.396 145.061 370.519 144.332 370.935C143.98 371.249 143.698 371.633 143.505 372.063C142.823 373.238 142.289 374.493 141.916 375.8C141.648 376.873 141.605 378.087 141.261 379.193C140.638 381.233 139.038 382.962 138.855 385.088C138.77 386.043 138.931 387.16 138.233 387.804C138.062 387.952 137.878 388.085 137.685 388.202C137.201 388.524 136.792 388.945 136.482 389.436C136.272 389.874 135.985 390.271 135.634 390.607C135.011 391.068 133.98 391.026 133.679 391.681C133.379 392.336 134.163 393.227 133.98 394C133.797 394.773 133.121 394.923 132.638 395.353C132.068 395.954 131.668 396.695 131.478 397.5C130.457 397.697 129.406 397.669 128.397 397.419C127.388 397.169 126.446 396.702 125.636 396.051C126.345 398.203 126.654 400.466 126.549 402.73C126.602 403.092 126.582 403.461 126.49 403.815C126.398 404.169 126.235 404.501 126.012 404.791C128.434 404.972 130.833 405.389 133.175 406.037C134.189 406.375 135.285 406.375 136.3 406.037C136.843 405.745 137.33 405.36 137.739 404.899C139.027 403.589 140.38 402.16 140.692 400.346C140.769 399.32 140.787 398.292 140.745 397.264C140.868 395.99 141.131 394.733 141.529 393.517C142.209 390.992 142.666 388.412 142.893 385.807C143.033 384.196 144.429 382.908 145.159 381.512C146.534 378.795 147.951 375.971 148.048 372.922C148.091 371.934 147.747 370.699 146.738 370.592Z" fill="#2F2E41"/>
<path opacity="0.1" d="M146.738 370.592C145.921 370.396 145.061 370.519 144.332 370.935C143.98 371.249 143.698 371.633 143.505 372.063C142.823 373.238 142.289 374.493 141.916 375.8C141.648 376.873 141.605 378.087 141.261 379.193C140.638 381.233 139.038 382.962 138.855 385.088C138.77 386.043 138.931 387.16 138.233 387.804C138.062 387.952 137.878 388.085 137.685 388.202C137.201 388.524 136.792 388.945 136.482 389.436C136.272 389.874 135.985 390.271 135.634 390.607C135.011 391.068 133.98 391.026 133.679 391.681C133.379 392.336 134.163 393.227 133.98 394C133.797 394.773 133.121 394.923 132.638 395.353C132.068 395.954 131.668 396.695 131.478 397.5C130.457 397.697 129.406 397.669 128.397 397.419C127.388 397.169 126.446 396.702 125.636 396.051C126.345 398.203 126.654 400.466 126.549 402.73C126.602 403.092 126.582 403.461 126.49 403.815C126.398 404.169 126.235 404.501 126.012 404.791C128.434 404.972 130.833 405.389 133.175 406.037C134.189 406.375 135.285 406.375 136.3 406.037C136.843 405.745 137.33 405.36 137.739 404.899C139.027 403.589 140.38 402.16 140.692 400.346C140.769 399.32 140.787 398.292 140.745 397.264C140.868 395.99 141.131 394.733 141.529 393.517C142.209 390.992 142.666 388.412 142.893 385.807C143.033 384.196 144.429 382.908 145.159 381.512C146.534 378.795 147.951 375.971 148.048 372.922C148.091 371.934 147.747 370.699 146.738 370.592Z" fill="black"/>
<path d="M143.881 419.469C141.272 418.224 139.36 415.915 137.245 413.929C133.218 410.139 128.288 407.486 124.047 403.911C121.233 401.559 118.677 398.821 115.638 396.845C112.916 395.12 109.833 394.043 106.628 393.699C106.275 393.618 105.908 393.618 105.554 393.699C105.148 393.872 104.796 394.15 104.534 394.504C103.164 396.049 101.945 397.721 100.894 399.498C95.5241 408.625 87.8888 416.291 81.5636 424.774C81.4184 424.95 81.3122 425.155 81.2522 425.375C81.2255 425.704 81.3086 426.033 81.4885 426.309L82.7771 428.822C83.4966 430.239 84.6564 431.882 86.2028 431.603C86.8992 431.402 87.5221 431.002 87.9962 430.454L93.7737 424.924L99.8304 419.137C103.374 415.754 106.982 412.286 109.302 407.948C111.106 411.083 114.317 413.134 116.508 416.001C117.345 417.075 118.033 418.288 118.785 419.448C119.977 421.295 121.34 423.034 122.693 424.817L129.641 433.675C130.522 434.927 131.612 436.016 132.863 436.897C134.576 437.829 136.487 438.341 138.437 438.389C141.046 438.622 143.667 438.715 146.287 438.668C148.293 438.749 150.292 438.382 152.139 437.595C153.06 437.19 153.847 436.532 154.407 435.697C154.968 434.863 155.28 433.886 155.307 432.881C155.2 431.841 154.859 430.839 154.309 429.949C151.796 425.472 148.553 421.692 143.881 419.469Z" fill="#2F2E41"/>
<path d="M150.507 376.927C151.806 376.927 152.859 375.869 152.859 374.565C152.859 373.26 151.806 372.202 150.507 372.202C149.208 372.202 148.155 373.26 148.155 374.565C148.155 375.869 149.208 376.927 150.507 376.927Z" fill="#E8E8F0"/>
<path d="M149.992 372.793C150.516 373.847 150.609 375.064 150.249 376.186C149.878 377.287 149.37 378.337 148.735 379.311C148.189 380.313 147.53 381.25 146.77 382.102C150.4 382.274 153.911 380.857 157.101 379.139C159.678 377.754 162.245 376.046 163.619 373.459C163.209 373.556 162.783 373.567 162.368 373.489C161.954 373.411 161.561 373.247 161.214 373.008C160.521 372.531 159.903 371.956 159.377 371.3L157.562 369.26C157.151 368.811 156.791 368.318 156.489 367.789C156.09 367.066 155.921 366.238 156.005 365.416C155.282 366.171 154.475 366.841 153.6 367.413C152.3 368.262 150.872 368.874 149.562 369.711C149.111 370.012 148.08 370.484 148.349 371.086C148.617 371.687 149.626 372.149 149.992 372.793Z" fill="#FBBEBE"/>
<path opacity="0.1" d="M149.992 372.793C150.516 373.847 150.609 375.064 150.249 376.186C149.878 377.287 149.37 378.337 148.735 379.311C148.189 380.313 147.53 381.25 146.77 382.102C150.4 382.274 153.911 380.857 157.101 379.139C159.678 377.754 162.245 376.046 163.619 373.459C163.209 373.556 162.783 373.567 162.368 373.489C161.954 373.411 161.561 373.247 161.214 373.008C160.521 372.531 159.903 371.956 159.377 371.3L157.562 369.26C157.151 368.811 156.791 368.318 156.489 367.789C156.09 367.066 155.921 366.238 156.005 365.416C155.282 366.171 154.475 366.841 153.6 367.413C152.3 368.262 150.872 368.874 149.562 369.711C149.111 370.012 148.08 370.484 148.349 371.086C148.617 371.687 149.626 372.149 149.992 372.793Z" fill="black"/>
<path d="M150.034 373.147C149.667 373.665 149.469 374.284 149.469 374.919C149.469 375.554 149.667 376.173 150.034 376.691C150.142 376.819 150.528 377.625 150.69 377.636C150.768 377.629 150.845 377.607 150.915 377.57C150.986 377.533 151.047 377.482 151.098 377.421C151.923 376.56 152.691 375.645 153.396 374.683C154.115 373.723 155.149 373.046 156.317 372.771C157.763 372.716 159.185 373.16 160.344 374.028C160.882 374.274 161.357 374.641 161.729 375.101C161.988 375.575 162.142 376.099 162.18 376.637C162.531 379.878 162.667 383.139 162.588 386.398C162.65 388.751 162.495 391.105 162.126 393.431C161.89 394.623 161.547 395.793 161.385 397.006C161.259 398.075 161.209 399.152 161.235 400.228V404.716C161.206 405.539 161.264 406.363 161.407 407.175C161.622 408.152 162.083 409.065 162.395 410.02C162.716 411.118 162.935 412.243 163.05 413.381L163.662 418.02C163.855 419.48 164.006 421.08 163.114 422.315C162.717 422.841 162.191 423.271 161.783 423.797C160.269 425.772 160.709 428.596 160.118 431.012C159.621 432.781 158.594 434.355 157.176 435.522C156.67 436.022 156.061 436.406 155.391 436.645C154.721 436.884 154.007 436.974 153.299 436.907C151.409 436.553 150.281 434.588 149.766 432.73C149.251 430.873 149.068 428.854 147.951 427.286C146.926 426.1 145.715 425.088 144.364 424.291C142.998 423.481 141.995 422.178 141.562 420.651C141.443 419.974 141.562 419.276 141.443 418.589C141.342 417.724 141.011 416.902 140.484 416.209C139.957 415.516 139.254 414.977 138.447 414.648C137.481 414.272 136.3 414.133 135.741 413.252C137.124 412.387 138.131 411.034 138.565 409.462C138.993 407.9 139.224 406.292 139.253 404.673L139.575 399.304C139.725 396.888 139.79 394.504 140.853 392.335C141.325 391.369 141.927 390.456 142.41 389.501C143.065 388.158 143.621 386.769 144.074 385.345C144.848 383.133 145.621 380.921 146.308 378.688C146.576 377.604 146.988 376.56 147.532 375.585C148.112 374.575 148.95 373.362 150.034 373.147Z" fill="#E8E8F0"/>
<path d="M138.061 408.195H139.489L139.79 406.047C139.829 405.616 139.93 405.193 140.09 404.791C140.326 404.364 140.603 403.962 140.917 403.589C142.313 401.602 142.217 398.971 142.56 396.555C143.183 393.363 144.238 390.271 145.696 387.364L148.467 381.19C148.719 380.685 148.92 380.156 149.068 379.611C149.184 379.01 149.242 378.399 149.24 377.786C149.24 376.83 149.54 373.351 149.573 372.417C149.573 372.063 148.789 372.256 148.628 371.945C148.284 371.258 147.812 373.115 147.156 373.523C146.541 373.993 146.093 374.648 145.879 375.392C145.277 376.938 144.912 378.613 144.354 380.148C143.868 381.751 142.977 383.201 141.766 384.357C141.196 384.851 140.541 385.249 140.004 385.786C138.286 387.482 138.114 390.177 138.061 392.604C138.018 394.086 137.739 408.195 138.061 408.195Z" fill="#2F2E41"/>
<path d="M158.615 370.581C157.951 370.928 157.376 371.423 156.935 372.028C156.493 372.634 156.197 373.332 156.07 374.07C155.824 375.551 155.391 376.994 154.781 378.366C153.041 381.394 148.606 382.274 147.371 385.549C147.061 386.65 146.895 387.787 146.877 388.931C146.662 391.283 145.889 393.549 145.653 395.889C145.535 397.711 145.578 399.54 145.782 401.355L147.339 419.845C147.637 422.565 147.481 425.316 146.877 427.984C148.473 428.212 150.101 427.942 151.538 427.211C152.988 426.545 154.319 425.633 155.726 424.86C158.132 423.528 160.795 422.594 162.91 420.822C163.29 420.52 163.616 420.157 163.877 419.748C164.2 418.972 164.417 418.156 164.521 417.322C164.704 416.668 164.937 416.028 165.219 415.41C165.994 413.544 166.668 411.637 167.238 409.698C167.626 408.415 167.934 407.11 168.162 405.79C168.333 404.716 168.43 403.642 168.516 402.568C168.628 400.903 168.96 399.26 169.504 397.683C170.851 393.912 171.616 389.958 171.77 385.957C171.812 385.382 171.772 384.803 171.652 384.239C171.416 383.549 171.099 382.889 170.707 382.274C170.062 381.061 169.633 379.729 169.074 378.494C167.551 375.775 165.369 373.482 162.728 371.826C161.482 370.978 160.022 370.076 158.615 370.581Z" fill="#2F2E41"/>
<path d="M126.173 400.754C125.071 400.175 124.072 399.417 123.22 398.51C122.833 398.059 122.511 397.554 122.146 397.103C121.15 396.032 119.856 395.284 118.43 394.955C117.02 394.646 115.578 394.505 114.135 394.537C113.166 394.472 112.193 394.588 111.267 394.88C110.805 395.035 110.39 395.303 110.058 395.659C109.726 396.015 109.488 396.449 109.367 396.921C109.328 397.504 109.441 398.088 109.695 398.615C109.949 399.142 110.335 399.594 110.816 399.927C111.655 400.615 112.645 401.094 113.705 401.323C114.568 401.476 115.439 401.58 116.315 401.634C121.448 402.171 126.033 404.963 130.533 407.508C134.485 409.756 138.515 411.846 142.625 413.779C142.784 412.551 142.852 411.312 142.829 410.074C142.829 409.151 142.754 407.733 141.884 407.186C140.647 406.668 139.358 406.283 138.039 406.037C135.389 405.171 132.802 404.124 130.297 402.901C128.879 402.289 127.515 401.538 126.173 400.754Z" fill="#FBBEBE"/>
<path d="M148.628 371.741C153.681 371.741 157.777 367.621 157.777 362.538C157.777 357.456 153.681 353.336 148.628 353.336C143.575 353.336 139.478 357.456 139.478 362.538C139.478 367.621 143.575 371.741 148.628 371.741Z" fill="#FBBEBE"/>
<path d="M161.224 381.007C160.494 382.032 159.898 383.148 159.453 384.325C158.379 386.644 156.553 388.62 155.662 391.079C154.77 393.538 154.76 396.695 152.923 398.703C152.556 399.01 152.278 399.411 152.118 399.862C152.111 400.143 152.082 400.423 152.032 400.7C151.763 401.43 150.571 401.462 150.346 402.214C150.281 402.429 150.346 402.665 150.239 402.88C150.056 403.363 149.412 403.438 148.993 403.728C148.102 404.329 148.284 405.725 147.65 406.595C147.374 406.919 147.017 407.164 146.615 407.305C146.213 407.447 145.782 407.479 145.363 407.4C144.53 407.23 143.729 406.929 142.99 406.509C142.724 406.364 142.432 406.272 142.131 406.241C141.774 406.253 141.43 406.373 141.143 406.584C140.333 407.181 139.683 407.969 139.252 408.877C138.821 409.786 138.622 410.787 138.673 411.792C138.796 413.804 139.276 415.778 140.09 417.623C140.181 417.942 140.338 418.238 140.552 418.492C140.872 418.743 141.259 418.894 141.664 418.924C142.07 418.955 142.475 418.864 142.829 418.664C143.529 418.248 144.275 417.913 145.052 417.665C146.469 417.408 147.855 418.385 149.294 418.299C150.341 418.144 151.328 417.71 152.15 417.043C153.595 416.181 154.893 415.093 155.995 413.821C156.617 412.995 157.068 412.06 157.627 411.18C158.337 410.11 159.108 409.081 159.936 408.098L165.219 401.656C165.744 401.044 166.218 400.39 166.637 399.701C167.106 398.761 167.466 397.771 167.711 396.749C168.275 395.047 168.636 393.284 168.785 391.498C168.817 390.021 168.688 388.544 168.398 387.095C168.238 385.653 167.876 384.239 167.324 382.897C166.175 380.47 163.383 378.494 161.224 381.007Z" fill="#2F2E41"/>
<path d="M179.609 369.003C179.617 367.372 179.238 365.762 178.502 364.306C177.767 362.85 176.696 361.589 175.378 360.627C175.335 357.73 174.266 354.941 172.361 352.757C170.455 350.573 167.838 349.134 164.972 348.698C164.421 345.95 162.918 343.486 160.726 341.739C158.534 339.992 155.796 339.076 152.995 339.152C150.193 339.227 147.508 340.29 145.415 342.153C143.321 344.016 141.952 346.558 141.551 349.331C137.749 348.472 134.27 349.589 133.636 351.93C133.003 354.271 135.687 357.299 139.693 358.372C140.957 358.726 142.272 358.857 143.58 358.759C144.513 360.133 145.723 361.297 147.132 362.175C148.541 363.054 150.119 363.627 151.763 363.859C152.251 366.073 153.345 368.107 154.923 369.734C156.501 371.361 158.5 372.517 160.698 373.072C161.31 374.54 162.255 375.845 163.458 376.884C163.458 377.174 163.458 377.475 163.458 377.775C163.458 378.792 163.658 379.799 164.047 380.738C164.437 381.677 165.007 382.531 165.726 383.25C166.445 383.969 167.298 384.539 168.238 384.928C169.177 385.317 170.184 385.517 171.201 385.517C172.218 385.517 173.224 385.317 174.164 384.928C175.103 384.539 175.957 383.969 176.676 383.25C177.395 382.531 177.965 381.677 178.354 380.738C178.743 379.799 178.943 378.792 178.943 377.775C178.944 376.594 178.691 375.426 178.202 374.35C179.148 372.728 179.634 370.88 179.609 369.003Z" fill="#F86D70"/>
<path opacity="0.1" d="M136.214 352.424C136.847 350.083 140.327 348.966 144.128 349.825C144.579 347.007 146.012 344.44 148.174 342.577C150.336 340.714 153.087 339.676 155.941 339.646H156.725C155.632 339.313 154.496 339.143 153.353 339.141C150.499 339.171 147.748 340.209 145.586 342.072C143.424 343.935 141.991 346.503 141.54 349.32C137.739 348.461 134.259 349.578 133.626 351.919C132.992 354.26 135.677 357.288 139.682 358.362C140.433 358.569 141.203 358.702 141.98 358.759C138.147 357.61 135.58 354.818 136.214 352.424Z" fill="black"/>
<path opacity="0.1" d="M165.992 378.226C165.976 377.933 165.976 377.639 165.992 377.346C164.783 376.312 163.837 375.005 163.233 373.534C161.032 372.981 159.029 371.825 157.45 370.195C155.872 368.566 154.78 366.527 154.298 364.31C152.652 364.083 151.072 363.512 149.66 362.635C148.249 361.759 147.037 360.595 146.104 359.221C145.342 359.284 144.574 359.263 143.817 359.156C144.757 360.421 145.939 361.487 147.294 362.292C148.648 363.097 150.149 363.627 151.71 363.849C152.197 366.062 153.291 368.096 154.869 369.723C156.447 371.351 158.447 372.506 160.644 373.062C161.256 374.529 162.201 375.834 163.404 376.873C163.404 377.163 163.404 377.464 163.404 377.765C163.37 379.846 164.16 381.856 165.603 383.357C167.045 384.858 169.023 385.727 171.104 385.775C169.586 385.185 168.283 384.147 167.37 382.799C166.456 381.45 165.976 379.855 165.992 378.226Z" fill="black"/>
<path d="M152.824 365.917C153.442 365.447 153.435 364.396 152.807 363.569C152.179 362.743 151.169 362.454 150.55 362.924C149.931 363.394 149.939 364.445 150.567 365.271C151.194 366.097 152.205 366.386 152.824 365.917Z" fill="#FBBEBE"/>
<defs>
<radialGradient id="paint0_radial" cx="0" cy="0" r="1" gradientUnits="userSpaceOnUse" gradientTransform="translate(427.6 148.4) rotate(130.988) scale(32.7359 32.623)">
<stop stop-color="#0082F4"/>
<stop offset="1" stop-color="#00BFD8"/>
</radialGradient>
<radialGradient id="paint1_radial" cx="0" cy="0" r="1" gradientUnits="userSpaceOnUse" gradientTransform="translate(471.691 110.986) rotate(131.766) scale(145.11)">
<stop stop-color="#0082F4"/>
<stop offset="1" stop-color="#00BFD8"/>
</radialGradient>
<radialGradient id="paint2_radial" cx="0" cy="0" r="1" gradientUnits="userSpaceOnUse" gradientTransform="translate(123.836 166.643) rotate(131.766) scale(130.452)">
<stop stop-color="#0082F4"/>
<stop offset="1" stop-color="#00BFD8"/>
</radialGradient>
<linearGradient id="paint3_linear" x1="405.148" y1="438.123" x2="405.148" y2="253.307" gradientUnits="userSpaceOnUse">
<stop stop-color="#808080" stop-opacity="0.25"/>
<stop offset="0.54" stop-color="#808080" stop-opacity="0.12"/>
<stop offset="1" stop-color="#808080" stop-opacity="0.1"/>
</linearGradient>
<radialGradient id="paint4_radial" cx="0" cy="0" r="1" gradientUnits="userSpaceOnUse" gradientTransform="translate(330.652 265.588) rotate(131.77) scale(192.302 192.304)">
<stop stop-color="#0082F4"/>
<stop offset="1" stop-color="#00BFD8"/>
</radialGradient>
<linearGradient id="paint5_linear" x1="66685.1" y1="71891.2" x2="66685.1" y2="60953.7" gradientUnits="userSpaceOnUse">
<stop stop-color="#808080" stop-opacity="0.25"/>
<stop offset="0.54" stop-color="#808080" stop-opacity="0.12"/>
<stop offset="1" stop-color="#808080" stop-opacity="0.1"/>
</linearGradient>
</defs>
</svg>
