<svg width="84" height="64" viewBox="0 0 84 64" fill="none" xmlns="http://www.w3.org/2000/svg">
<path opacity="0.1" d="M0.541649 47.6626L0.645821 48.3626L0.75415 48.3376C1.49453 51.7999 3.20012 54.9819 5.67356 57.5153C8.147 60.0487 11.2872 61.83 14.7308 62.6531C18.1745 63.4762 21.7808 63.3074 25.1325 62.1663C28.4842 61.0252 31.4443 58.9584 33.6703 56.2051C35.8964 53.4518 37.2973 50.1245 37.7111 46.6081C38.1249 43.0917 37.5346 39.5301 36.0086 36.3352C34.4825 33.1403 32.083 30.4429 29.0878 28.5549C26.0925 26.6669 22.6239 25.6656 19.0833 25.6667C18.1542 25.6667 17.2625 25.8084 16.375 25.9376C16.6625 24.9709 16.9583 23.9876 17.4333 23.1043C17.9083 21.8209 18.65 20.7084 19.3875 19.5876C20.0042 18.3751 21.0916 17.5543 21.8917 16.5168C22.7291 15.5084 23.8708 14.8376 24.775 14.0001C25.6625 13.1251 26.825 12.6876 27.75 12.0709C28.7167 11.5167 29.5583 10.9042 30.4583 10.6126L32.7042 9.68759L34.6792 8.86675L32.6625 0.787582L30.175 1.38758C29.3792 1.58759 28.4083 1.82092 27.3041 2.10008C26.175 2.30842 24.9708 2.87925 23.6292 3.40009C22.3083 3.99592 20.7708 4.39175 19.3458 5.34591C17.9125 6.25425 16.2583 7.01258 14.8 8.22925C13.3875 9.48342 11.6833 10.5709 10.425 12.1626C9.04999 13.6543 7.69165 15.2209 6.63748 17.0042C5.41665 18.7042 4.58749 20.5709 3.71249 22.4168C2.92082 24.2626 2.28332 26.1501 1.76248 27.9834C0.774986 31.6584 0.333313 35.1501 0.162483 38.1376C0.020813 41.1292 0.104149 43.6167 0.279144 45.4167C0.3377 46.1685 0.425262 46.9176 0.541649 47.6626ZM46.375 47.6626L46.4792 48.3626L46.5875 48.3376C47.3279 51.7999 49.0335 54.9819 51.5069 57.5153C53.9803 60.0487 57.1205 61.83 60.5642 62.6531C64.0078 63.4762 67.6141 63.3074 70.9658 62.1663C74.3175 61.0252 77.2776 58.9584 79.5037 56.2051C81.7297 53.4518 83.1307 50.1245 83.5445 46.6081C83.9583 43.0917 83.368 39.5301 81.8419 36.3352C80.3159 33.1403 77.9164 30.4429 74.9211 28.5549C71.9259 26.6669 68.4573 25.6656 64.9167 25.6667C63.9875 25.6667 63.0958 25.8084 62.2083 25.9376C62.4958 24.9709 62.7917 23.9876 63.2667 23.1043C63.7417 21.8209 64.4833 20.7084 65.2208 19.5876C65.8375 18.3751 66.925 17.5543 67.725 16.5168C68.5625 15.5084 69.7042 14.8376 70.6083 14.0001C71.4958 13.1251 72.6583 12.6876 73.5833 12.0709C74.55 11.5167 75.3917 10.9042 76.2917 10.6126L78.5375 9.68759C79.7917 9.17509 80.5083 8.87508 80.5083 8.87508L78.4917 0.795918L76.0042 1.39591C75.2083 1.59591 74.2375 1.82925 73.1333 2.10842C72.0042 2.31675 70.8 2.88759 69.4583 3.40842C68.1375 4.00425 66.6 4.40009 65.175 5.35425C63.7417 6.26258 62.0875 7.02092 60.6292 8.23758C59.2167 9.49175 57.5125 10.5793 56.2542 12.1709C54.8792 13.6626 53.5208 15.2293 52.4667 17.0126C51.2458 18.7126 50.4167 20.5793 49.5417 22.4251C48.75 24.2709 48.1125 26.1584 47.5917 27.9917C46.6042 31.6667 46.1625 35.1584 45.9917 38.1459C45.85 41.1376 45.9333 43.6251 46.1083 45.4251C46.1705 46.1739 46.2595 46.9202 46.375 47.6626Z" fill="#00BFD8"/>
</svg>
