<svg width="672" height="651" viewBox="0 0 672 651" fill="none" xmlns="http://www.w3.org/2000/svg">
<path fill-rule="evenodd" clip-rule="evenodd" d="M609.501 236.474C628.038 292.976 637.353 353.023 620.794 410.135C602.318 473.863 575.253 549.915 512.432 571.274C449.169 592.784 392.98 518.466 326.681 510.136C260.425 501.811 188.8 558.069 131.706 523.436C74.1817 488.543 48.8009 410.653 51.8786 343.443C54.7303 281.172 110.742 238.47 147.075 187.817C175.696 147.917 199.311 104.753 241.323 79.3328C284.622 53.134 334.75 38.7334 385.105 43.7935C436.284 48.9365 482.476 73.9786 521.501 107.488C561.98 142.246 592.868 185.779 609.501 236.474Z" fill="url(#paint0_radial)"/>
<g clip-path="url(#clip0)">
<path d="M550.715 111.78H164.356V340.09H550.715V111.78Z" fill="#D5DBDA"/>
<path d="M539.991 116.245H175.079V335.624H539.991V116.245Z" fill="white"/>
<path d="M510.745 126.396H201.836V141.048H510.745V126.396Z" fill="#EFEFEF"/>
<path d="M229.86 265.803H213.058V308.001H229.86V265.803Z" fill="#FFD04D"/>
<path d="M267.721 228.759H250.919V308.001H267.721V228.759Z" fill="#00BFD8"/>
<path d="M305.583 236.953H288.781V308.001H305.583V236.953Z" fill="#FFD04D"/>
<path d="M343.446 196.839H326.644V308.002H343.446V196.839Z" fill="#00BFD8"/>
<g style="mix-blend-mode:multiply" opacity="0.15">
<g style="mix-blend-mode:multiply" opacity="0.26">
<path d="M258.631 228.759H250.919V308.001H258.631V228.759Z" fill="black"/>
</g>
</g>
<g style="mix-blend-mode:multiply" opacity="0.15">
<g style="mix-blend-mode:multiply" opacity="0.26">
<path d="M220.769 265.803H213.058V308.001H220.769V265.803Z" fill="black"/>
</g>
</g>
<g style="mix-blend-mode:multiply" opacity="0.62">
<g style="mix-blend-mode:multiply" opacity="0.26">
<path d="M334.355 196.839H326.644V308.002H334.355V196.839Z" fill="black"/>
</g>
</g>
<g style="mix-blend-mode:multiply" opacity="0.15">
<g style="mix-blend-mode:multiply" opacity="0.26">
<path d="M296.493 236.953H288.781V308.001H296.493V236.953Z" fill="black"/>
</g>
</g>
<path d="M352.336 319.617H201.961V159.434H204.255V317.323H352.336V319.617Z" fill="#D5DBDA"/>
<path d="M217.406 246.041L215.875 244.334L255.212 208.998L291.647 216.916L331.101 172.976L332.808 174.51L292.463 219.442L255.871 211.49L217.406 246.041Z" fill="#D5DBDA"/>
<path d="M335.899 181.002L324.774 170.329L339.136 166.486L335.899 181.002Z" fill="#D5DBDA"/>
<path d="M380.676 255.758H366.576V269.864H380.676V255.758Z" fill="#00BFD8"/>
<path d="M380.676 280.473H366.576V294.579H380.676V280.473Z" fill="#FFD04D"/>
<path d="M429.259 286.563H384.562V294.579H429.259V286.563Z" fill="#EFEFEF"/>
<path d="M429.259 261.848H384.562V269.864H429.259V261.848Z" fill="#EFEFEF"/>
<path d="M463.602 255.758H449.502V269.864H463.602V255.758Z" fill="#00BFD8"/>
<path d="M463.602 280.473H449.502V294.579H463.602V280.473Z" fill="#FFD04D"/>
<path d="M512.184 286.563H467.487V294.579H512.184V286.563Z" fill="#EFEFEF"/>
<path d="M512.184 261.848H467.487V269.864H512.184V261.848Z" fill="#EFEFEF"/>
<path d="M510.746 169.114H378.612V172.125H510.746V169.114Z" fill="#EFEFEF"/>
<path d="M510.745 176.406H368.239V179.417H510.745V176.406Z" fill="#EFEFEF"/>
<path d="M510.745 183.698H368.239V186.709H510.745V183.698Z" fill="#EFEFEF"/>
<path d="M510.745 190.989H368.239V194.001H510.745V190.989Z" fill="#EFEFEF"/>
<path d="M510.745 198.281H368.239V201.293H510.745V198.281Z" fill="#EFEFEF"/>
<path d="M510.745 205.574H368.239V208.585H510.745V205.574Z" fill="#EFEFEF"/>
<path d="M510.745 212.866H368.239V215.877H510.745V212.866Z" fill="#EFEFEF"/>
<path d="M510.745 220.158H368.239V223.17H510.745V220.158Z" fill="#EFEFEF"/>
<path d="M510.746 227.449H388.573V230.461H510.746V227.449Z" fill="#EFEFEF"/>
<path d="M559 109.933C559 110.722 558.687 111.479 558.129 112.037C557.571 112.596 556.814 112.909 556.025 112.909H159.045C158.655 112.909 158.268 112.832 157.907 112.683C157.546 112.533 157.218 112.314 156.942 112.037C156.666 111.761 156.447 111.433 156.297 111.072C156.148 110.711 156.071 110.324 156.071 109.933C156.071 109.542 156.147 109.155 156.296 108.793C156.446 108.432 156.665 108.103 156.941 107.827C157.217 107.55 157.545 107.331 157.906 107.181C158.267 107.031 158.654 106.954 159.045 106.954H556.025C556.814 106.954 557.571 107.268 558.129 107.826C558.687 108.384 559 109.141 559 109.93V109.933Z" fill="#66341B"/>
<path d="M559 341.934C559 342.724 558.687 343.481 558.129 344.039C557.571 344.597 556.814 344.911 556.025 344.911H159.045C158.655 344.911 158.268 344.834 157.907 344.684C157.546 344.534 157.218 344.315 156.942 344.039C156.666 343.763 156.447 343.434 156.297 343.073C156.148 342.712 156.071 342.325 156.071 341.934C156.071 341.544 156.148 341.157 156.297 340.796C156.447 340.435 156.666 340.106 156.942 339.83C157.218 339.554 157.546 339.334 157.907 339.185C158.268 339.035 158.655 338.958 159.045 338.958H556.025C556.814 338.958 557.571 339.272 558.129 339.83C558.687 340.388 559 341.145 559 341.934Z" fill="#66341B"/>
<path d="M98.546 603.875L100.701 488.657H93.0391L95.1928 603.875C95.1337 604.128 95.1324 604.391 95.1891 604.644C95.2458 604.898 95.359 605.135 95.5203 605.338C95.6815 605.542 95.8866 605.706 96.1202 605.819C96.3538 605.932 96.6099 605.991 96.8694 605.991C97.1289 605.991 97.385 605.932 97.6186 605.819C97.8523 605.706 98.0573 605.542 98.2186 605.338C98.3798 605.135 98.493 604.898 98.5497 604.644C98.6064 604.391 98.6051 604.128 98.546 603.875Z" fill="#723E24"/>
<path d="M28.1324 590.398L72.6297 484.102L65.5065 481.273L25.0149 589.16C24.7916 589.609 24.7478 590.127 24.8924 590.607C25.037 591.087 25.3591 591.494 25.7931 591.746C26.2813 591.861 26.7949 591.785 27.2295 591.535C27.6641 591.285 27.9869 590.878 28.1324 590.398Z" fill="#723E24"/>
<path d="M165.601 590.398L121.103 484.102L128.226 481.273L168.72 589.158C168.867 589.371 168.964 589.615 169.004 589.871C169.045 590.127 169.027 590.389 168.952 590.637C168.877 590.885 168.747 591.113 168.571 591.304C168.396 591.494 168.18 591.643 167.939 591.739C167.698 591.835 167.439 591.875 167.181 591.856C166.923 591.838 166.672 591.761 166.447 591.632C166.222 591.504 166.029 591.326 165.883 591.112C165.737 590.898 165.64 590.654 165.601 590.398Z" fill="#723E24"/>
<g style="mix-blend-mode:multiply" opacity="0.3">
<g style="mix-blend-mode:multiply" opacity="0.3">
<path d="M64.2718 484.57L68.8025 486.369L26.9777 591.658C27.5019 591.391 27.9119 590.943 28.1324 590.397L72.6297 484.102L65.5065 481.273L64.2718 484.57Z" fill="black"/>
</g>
<g style="mix-blend-mode:multiply" opacity="0.3">
<path d="M93.0937 491.689H98.8028L96.6667 605.968C96.733 605.983 96.8004 605.991 96.8681 605.995C97.365 605.922 97.8153 605.662 98.1271 605.268C98.4389 604.874 98.5888 604.376 98.546 603.875L100.701 488.657H93.0391L93.0937 491.689Z" fill="black"/>
</g>
<g style="mix-blend-mode:multiply" opacity="0.3">
<path d="M168.718 589.16L128.224 481.275L121.101 484.103L121.919 486.058L126.326 484.308L166.586 591.574C166.782 591.707 167.006 591.792 167.241 591.822C167.475 591.853 167.714 591.828 167.937 591.75C168.373 591.499 168.696 591.091 168.841 590.61C168.986 590.129 168.942 589.61 168.718 589.16Z" fill="black"/>
</g>
</g>
<path d="M149.658 494.101C141.888 500.426 130.373 506.247 101.127 506.824C62.6554 507.582 42.5152 503.217 31.5841 483.366C13.331 450.218 36.1728 343.128 72.2059 366.852C102.327 386.683 108.361 449.988 112.342 458.741C116.323 467.495 168.515 478.752 149.658 494.101Z" fill="#E8F6F7"/>
<path d="M107.796 498.624C69.324 499.383 49.1846 495.017 38.2527 475.167C25.7923 452.541 32.4802 395.47 49.4405 369.059C27.734 389.187 17.5997 457.973 31.585 483.365C42.516 503.213 62.6555 507.581 101.128 506.823C130.374 506.247 141.889 500.425 149.659 494.1C152.305 491.946 153.551 489.877 153.729 487.876C145.931 493.393 133.963 498.109 107.796 498.624Z" fill="#D0E0E2"/>
<path d="M124.207 245.25C126.836 237.663 129.263 229.689 133.386 233.717C137.723 237.956 137.376 237.444 135.801 243.326C134.226 249.208 121.996 251.632 124.207 245.25Z" fill="#FFE1BD"/>
<path d="M128.916 234.405C130.222 230.793 132.367 226.668 134.573 224.963C136.778 223.258 133.437 229.234 132.647 232.032C131.857 234.83 127.817 237.443 128.916 234.405Z" fill="#FFE1BD"/>
<path d="M125.368 275.528C128.458 263.927 130.003 248.766 130.003 248.766L124.213 244.867C124.213 244.867 112.429 269.098 106.061 287.492L73.2189 279.056L69.2159 278.24L79.9025 299.602C79.9025 299.602 111.534 304.209 113.478 303.121C115.421 302.033 122.222 287.337 125.368 275.528Z" fill="#F4F4F4"/>
<path d="M113.477 303.12C111.533 304.208 79.9016 299.601 79.9016 299.601L69.215 278.241L73.2172 279.057C76.1676 280.303 80.9481 285.083 84.8298 290.162C87.6325 293.829 89.1768 295.134 93.4111 296.722C99.888 299.152 106.77 300.876 109.357 301.061C113.728 301.352 114.156 301.565 115.089 300.283C115.15 300.865 115.027 301.452 114.738 301.961C114.449 302.469 114.008 302.875 113.477 303.12Z" fill="#EAEAEA"/>
<path d="M36.15 342.739C38.2168 348.052 38.6681 353.859 37.4471 359.428C34.99 370.49 37.7866 371.233 37.7866 371.233C37.7866 371.233 52.7735 380.749 65.2383 384.638C74.1714 387.419 81.7853 386.948 81.5734 377.082L81.5663 376.947C81.5505 376.348 81.5364 375.775 81.5224 375.216C81.1011 353.04 85.7233 351.913 86.863 327.081C88.0388 301.607 81.2348 287.398 74.4915 281.235C67.7385 275.087 58.5222 274.858 41.1855 278.958C28.1623 282.027 23.8725 285.485 23.978 295.125C24.1313 299.111 24.5998 303.079 25.3789 306.992C27.53 319.124 32.664 333.688 36.15 342.739Z" fill="#F4F4F4"/>
<path d="M67.6013 288.182C67.6013 288.182 81.1099 332.481 78.4075 353.701L73.4309 362.762L67.99 352.885C67.99 352.885 72.4143 310.459 63.9447 288.933L67.6013 288.182Z" fill="#3A3A3A"/>
<path d="M36.15 342.739C38.2168 348.052 38.6681 353.859 37.4471 359.428C34.99 370.49 37.7866 371.233 37.7866 371.233C37.7866 371.233 52.7735 380.749 65.2383 384.638L76.8852 383.533L81.5461 379.868L81.5646 376.946C81.5488 376.347 81.5347 375.774 81.5206 375.215C75.6576 375.662 69.7642 375.509 63.9324 374.757C58.0291 374.025 52.2374 372.573 46.6862 370.435C45.2188 369.88 43.9916 368.829 43.2171 367.464C42.4426 366.1 42.1697 364.507 42.4457 362.962C43.398 357.858 43.9374 352.685 44.0585 347.494C44.0234 342.611 41.7633 334.359 39.9156 328.403C38.5279 323.836 38.0016 319.051 38.3635 314.291C38.7014 308.935 38.697 303.562 38.3503 298.207L29.1164 293.204L23.9736 295.12C24.1281 299.108 24.598 303.078 25.3789 306.992C27.53 319.123 32.664 333.688 36.15 342.739Z" fill="#E2E2E2"/>
<path d="M35.9592 389.801C34.8924 389.977 32.1645 385.185 32.1645 385.185L33.3077 383.666C33.9542 382.808 34.8555 382.176 35.8826 381.861L36.0682 381.804C36.5163 381.662 36.9978 381.668 37.4422 381.821C37.8866 381.973 38.2705 382.264 38.5376 382.651C39.3211 383.812 40.5295 385.137 41.9348 385.086H41.9594C42.0062 385.106 42.0572 385.115 42.108 385.111C43.3506 385.136 37.0259 389.626 35.9592 389.801Z" fill="#F4D5B5"/>
<path d="M78.032 235.666C78.032 235.666 79.1884 238.898 77.4401 241.467L70.2923 231.79L75.2777 231.744L78.032 235.666Z" fill="#632F00"/>
<path d="M39.213 248.467C39.5287 260.951 50.2936 268.186 50.2936 268.186L49.5742 279.548L56.8355 284.256L61.8183 287.483L64.6781 281.506L65.0703 274.181C65.1174 273.351 65.4366 272.561 65.9784 271.931C66.5203 271.302 67.2545 270.868 68.0674 270.699C70.8115 270.033 73.284 268.538 75.1484 266.417C75.313 266.242 75.4641 266.055 75.6004 265.857L75.6171 265.848C80.336 259.416 82.1248 234.784 65.9682 227.791C49.2875 220.551 38.8876 235.966 39.213 248.467Z" fill="#FFE1BD"/>
<path d="M57.3236 277.442L56.8346 284.257L61.8174 287.483L64.6772 281.506L65.0694 274.181C65.1165 273.351 65.4357 272.561 65.9776 271.931C66.5194 271.302 67.2536 270.868 68.0665 270.699C70.8106 270.033 73.2831 268.538 75.1475 266.417C75.3121 266.242 75.4632 266.055 75.5995 265.857C72.4563 267.574 69.0016 268.643 65.4388 269.003C63.3138 269.24 61.3387 270.214 59.8564 271.755C58.374 273.297 57.4779 275.309 57.3236 277.442Z" fill="#E8C5A0"/>
<path d="M56.635 252.316C56.0036 252.574 55.4038 251.598 55.4038 251.598C55.4038 251.598 51.9011 243.728 50.6955 242.522C48.5418 240.34 43.4605 240.541 43.0595 247.29C42.7438 252.516 48.9155 263.66 50.8107 266.933C50.9549 267.192 51.0024 267.493 50.9445 267.783C50.8867 268.074 50.7273 268.334 50.495 268.517C50.2894 268.657 50.0533 268.746 49.8064 268.776H49.7184C49.4245 268.781 49.1386 268.679 48.9146 268.489C44.9248 264.985 27.355 248.127 41.3069 232.274C41.3069 232.274 52.3874 232.992 54.0821 238.334C55.2922 242.477 56.2612 246.686 56.9841 250.941C56.9841 250.941 57.2954 252.024 56.635 252.316Z" fill="#8C4200"/>
<path d="M78.032 235.666C78.032 235.666 68.3347 228.101 53.6081 237.318L41.5487 234.239C41.5487 234.239 41.0413 234.074 41.3086 232.267C41.576 230.46 42.9083 212.723 64.0317 216.71C76.1773 219.003 83.6162 227.423 78.032 235.666Z" fill="#8C4200"/>
<path d="M68.5361 284.411L68.4657 284.992C68.3321 286.091 68.041 287.165 67.6013 288.181L63.9447 288.93L60.7594 286.554L64.4125 282.305L64.9797 282.45C66.2892 282.783 67.4941 283.44 68.4842 284.36L68.5361 284.411Z" fill="#606060"/>
<path d="M49.6613 274.253C48.2453 275.185 47.0507 276.416 46.1612 277.86C47.698 278.56 49.1953 279.344 50.6462 280.208C52.5537 281.373 61.7189 287.849 61.7189 287.849L64.4143 282.312C64.4143 282.312 54.8392 275.705 49.6613 274.253Z" fill="#E2E2E2"/>
<path d="M64.4125 282.308C64.4125 282.308 67.6197 283.405 68.6047 285.801C68.6047 285.801 70.2448 282.657 68.1491 277.061C67.2167 276.173 66.1701 275.414 65.0369 274.803L64.4125 282.308Z" fill="#E2E2E2"/>
<path d="M38.9219 381.978C39.5876 382.846 40.3266 383.655 41.131 384.396C41.6358 384.674 41.7219 384.083 41.5311 383.666C41.3403 383.249 38.9993 381.411 38.9219 381.978Z" fill="#E5BB98"/>
<path d="M49.8029 268.771H49.7149C49.421 268.777 49.1351 268.675 48.9111 268.484C44.9212 264.98 27.3515 248.123 41.3033 232.27C40.9073 233.923 40.7717 235.628 40.9014 237.324C40.9014 237.324 32.0036 251.712 49.8029 268.771Z" fill="#632F00"/>
<path d="M58.4448 610.955C90.4243 610.955 116.349 608.982 116.349 606.548C116.349 604.114 90.4243 602.142 58.4448 602.142C26.4653 602.142 0.540829 604.114 0.540829 606.548C0.540829 608.982 26.4653 610.955 58.4448 610.955Z" fill="#D8D8D8"/>
<path d="M29.8367 589.733C30.5983 592.658 30.308 593.705 30.6079 595.612C30.9817 597.977 33.1529 598.837 34.4114 600.779C35.7973 602.917 37.9739 606.349 29.4726 606.521C20.3716 606.703 14.9799 606.074 16.5233 600.927C18.0666 595.779 18.37 593.513 18.2627 591.836C18.1555 590.159 18.2671 588.41 19.2952 587.402C20.3232 586.395 28.4947 584.584 29.8367 589.733Z" fill="#8C4200"/>
<path d="M31.7591 426.111C31.7591 426.111 17.3921 403.174 37.7866 371.23C37.7866 371.23 53.6811 378.348 66.4088 379.207C76.4341 379.883 81.5206 378.845 81.5206 378.845C81.5206 378.845 82.3649 409.556 82.4 426.109H31.7591V426.111Z" fill="#3A3A3A"/>
<path d="M41.4414 492.767C45.3715 476.187 29.0602 473.267 23.9103 485.263C16.6253 502.229 17.2048 576.748 17.5944 587.573C17.6445 588.99 18.3859 588.725 19.1773 588.438C21.4981 587.6 23.4434 587.268 24.3659 587.465C26.2168 588.04 28.0103 588.786 29.7232 589.693C31.2561 574.949 37.6388 508.822 41.4414 492.767Z" fill="#3A3A3A"/>
<path d="M56.1082 428.348C57.8301 407.751 49.9735 391.75 37.6661 398.556C32.4855 401.418 30.5895 407.145 29.8947 412.537C29.2 417.929 25.386 473.968 24.0502 484.094C21.039 506.922 38.4039 500.77 40.2876 494.445C45.04 478.471 55.1699 439.571 56.1082 428.348Z" fill="#3A3A3A"/>
<path d="M85.1016 491.697C85.7462 476.241 72.8241 477.137 67.6092 489.146C56.3448 515.091 67.691 570.332 70.0038 596.387C72.5286 592.193 77.3144 590.773 78.4383 590.861C78.9913 590.916 79.527 591.085 80.0114 591.358C80.4957 591.631 80.9183 592.001 81.2524 592.445C80.8821 560.481 84.4103 508.223 85.1016 491.697Z" fill="#3A3A3A"/>
<path d="M68.1887 493.374C70.1146 499.684 86.7074 506.988 84.9741 484.016C84.2055 473.828 82.1599 417.564 81.7616 412.141C81.3632 406.717 80.46 398.79 77.8394 397.801C64.7362 392.853 52.0304 409.032 55.4786 429.397C57.78 443.012 64.1927 480.285 68.1887 493.374Z" fill="#3A3A3A"/>
<path d="M81.2049 592.91C81.8926 594.248 85.1834 597.342 89.7449 599.381C94.3064 601.42 103.967 602.372 98.5988 604.168C93.2309 605.963 86.9712 604.871 83.7983 604.366C80.4918 603.905 77.1541 603.703 73.8161 603.764C68.8835 603.73 68.8456 603.427 69.507 597.862C70.4259 590.205 78.9861 588.584 81.2049 592.91Z" fill="#8C4200"/>
<path d="M35.0586 377.406L37.5905 380.975C38.9276 380.806 40.2844 381.05 41.479 381.674C42.6736 382.298 43.6489 383.273 44.274 384.468C46.4171 388.666 38.8357 393.923 36.6803 391.984C34.5248 390.045 29.8376 381.083 29.8376 381.083L35.0586 377.406Z" fill="#FFE1BD"/>
<path d="M16.1187 366.083C21.1246 371.34 25.81 376.892 30.1498 382.711L31.4566 381.831L36.4595 378.426C36.4595 378.426 26.1968 356.925 23.2807 346.427C22.0318 342.025 19.9842 337.889 17.24 334.228C17.4352 334.04 17.6173 333.855 17.8116 333.654C25.2506 325.73 31.0485 315.513 35.4596 309.253C37.5891 306.241 39.0302 302.798 39.6808 299.167C40.1148 296.709 40.1389 294.195 39.7521 291.728C39.1224 287.803 37.4726 284.187 33.6762 283.254C32.2877 282.914 30.827 283.024 29.5051 283.569C28.0236 284.175 26.7726 285.236 25.9321 286.598C20.1333 295.984 3.70759 321.389 1.12476 327.655C0.697245 328.683 0.401751 329.761 0.245347 330.864C0.168132 331.227 0.109429 331.594 0.0694647 331.963C-0.927789 342.242 9.27339 359.177 16.1187 366.083Z" fill="#F4F4F4"/>
<path d="M16.1187 366.083C21.1246 371.34 25.81 376.892 30.1497 382.711L31.4566 381.831C31.4566 381.831 23.9262 371.335 20.3672 367.083C14.9148 360.573 11.0797 355.493 7.82676 349.513C4.57381 343.534 3.04188 332.007 4.76552 328.77C6.4751 325.535 16.0827 311.242 18.1431 308.494C20.2045 305.76 37.0654 288.931 32.2252 284.241C31.8455 283.942 31.4066 283.728 30.9378 283.612C30.469 283.497 29.9809 283.482 29.506 283.569C28.0243 284.175 26.773 285.236 25.9321 286.598C20.1333 295.984 3.70759 321.389 1.12476 327.655C0.697245 328.683 0.401751 329.761 0.245347 330.864C0.168132 331.227 0.109429 331.594 0.0694647 331.963C-0.927788 342.242 9.27339 359.177 16.1187 366.083Z" fill="#EAEAEA"/>
<path d="M42.9883 381.171C42.9883 381.171 40.671 389.348 30.374 394.048C21.4919 398.103 44.5967 400.422 45.1121 399.52C45.6274 398.618 50.0676 383.696 50.0676 383.696L42.9883 381.171Z" fill="#3A3A3A"/>
<path d="M219.973 597.397L222.14 481.47H214.431L216.598 597.397C216.539 597.651 216.538 597.915 216.596 598.17C216.653 598.424 216.767 598.663 216.929 598.867C217.092 599.071 217.298 599.236 217.533 599.35C217.768 599.463 218.025 599.522 218.286 599.522C218.547 599.522 218.804 599.463 219.039 599.35C219.274 599.236 219.48 599.071 219.642 598.867C219.805 598.663 219.919 598.424 219.976 598.17C220.033 597.915 220.032 597.651 219.973 597.397Z" fill="#723E24"/>
<path d="M149.13 583.837L193.901 476.888L186.736 474.043L145.994 582.591C145.845 582.805 145.746 583.051 145.705 583.309C145.665 583.566 145.682 583.83 145.758 584.08C145.833 584.33 145.964 584.56 146.14 584.752C146.317 584.944 146.535 585.094 146.777 585.191C147.02 585.287 147.281 585.327 147.541 585.309C147.801 585.29 148.054 585.212 148.28 585.082C148.507 584.952 148.701 584.772 148.848 584.557C148.995 584.341 149.091 584.095 149.13 583.837Z" fill="#723E24"/>
<path d="M287.444 583.837L242.671 476.888L249.837 474.043L290.579 582.59C290.728 582.804 290.827 583.05 290.868 583.308C290.909 583.565 290.891 583.829 290.816 584.079C290.741 584.33 290.61 584.56 290.434 584.752C290.257 584.944 290.04 585.095 289.797 585.191C289.554 585.287 289.293 585.328 289.033 585.309C288.772 585.29 288.519 585.213 288.293 585.083C288.067 584.952 287.873 584.773 287.726 584.557C287.579 584.341 287.482 584.095 287.444 583.837Z" fill="#723E24"/>
<g style="mix-blend-mode:multiply" opacity="0.3">
<g style="mix-blend-mode:multiply" opacity="0.3">
<path d="M185.492 477.358L190.051 479.169L147.969 585.105C148.496 584.836 148.909 584.385 149.131 583.836L193.901 476.888L186.736 474.043L185.492 477.358Z" fill="black"/>
</g>
<g style="mix-blend-mode:multiply" opacity="0.3">
<path d="M214.489 484.522H220.233L218.084 599.5C218.15 599.514 218.218 599.523 218.287 599.526C218.786 599.452 219.238 599.191 219.551 598.796C219.865 598.4 220.016 597.9 219.973 597.397L222.14 481.47H214.431L214.489 484.522Z" fill="black"/>
</g>
<g style="mix-blend-mode:multiply" opacity="0.3">
<path d="M290.579 582.591L249.837 474.043L242.671 476.888L243.495 478.855L247.928 477.095L288.437 585.019C288.634 585.152 288.86 585.238 289.096 585.268C289.332 585.299 289.572 585.274 289.796 585.195C290.234 584.942 290.558 584.532 290.704 584.048C290.849 583.564 290.804 583.043 290.579 582.591Z" fill="black"/>
</g>
</g>
<path d="M274.406 441.803C274.406 486.266 249.28 496.912 218.286 496.912C187.292 496.912 162.166 486.267 162.166 441.803C162.166 397.339 187.292 354.37 218.286 354.37C249.28 354.37 274.406 397.341 274.406 441.803Z" fill="#E8F6F7"/>
<path d="M222.792 486.903C191.798 486.903 166.673 476.258 166.673 431.794C166.683 416.847 169.446 402.031 174.825 388.087C166.911 403.442 162.167 422.485 162.167 441.804C162.167 486.267 187.293 496.913 218.287 496.913C242.587 496.913 263.277 490.366 271.081 466.112C261.302 482.219 243.339 486.903 222.792 486.903Z" fill="#D0E0E2"/>
<path d="M191.382 430.155C191.382 430.155 184.171 445.524 182.703 455.794C180.559 470.788 183.727 477.283 202.877 477.882C222.027 478.48 227.609 474.747 236.741 474.747C245.873 474.747 256.487 457.428 244.727 436.864L191.382 430.155Z" fill="#09424C"/>
<path d="M199.607 556.065L199.255 561.881C199.255 561.881 193.596 578.561 193.318 582.768C192.831 590.102 196.068 598.313 199.215 598.266C202.802 598.213 207.745 593.614 209.949 584.423C211.444 578.199 209.024 566.009 209.884 563.148C210.744 560.287 212.479 554.741 212.479 554.741L199.607 556.065Z" fill="#FFE1BD"/>
<path d="M210.399 580.85C207.919 583.354 202.875 588.623 200.873 588.522C198.795 588.417 195.156 582.03 193.946 579.387C193.653 580.495 193.444 581.624 193.319 582.764C192.833 590.099 196.07 598.309 199.217 598.263C202.804 598.21 207.747 593.611 209.951 584.42C210.208 583.246 210.358 582.051 210.399 580.85Z" fill="#8C4200"/>
<path d="M212.197 558.896C212.197 558.896 235.077 486.625 237.934 477.733C240.79 468.841 243.094 451.934 229.85 448.986C218.412 446.439 213.614 463.501 211.521 474.013C209.429 484.524 198.891 554.671 198.891 554.671C198.891 554.671 197.648 558.616 204.477 559.745C211.307 560.873 212.197 558.896 212.197 558.896Z" fill="#0C5A71"/>
<g style="mix-blend-mode:multiply" opacity="0.1">
<g style="mix-blend-mode:multiply" opacity="0.1">
<path d="M225.829 448.912C220.86 455.707 218.34 468.384 216.933 475.442C214.841 485.95 204.41 557.535 204.41 557.535C204.41 557.535 206.168 558.437 209.974 560.139C209.368 560.096 208.761 560.093 208.155 560.133C200.792 560.661 198.998 556.108 198.998 556.108C198.998 556.108 209.429 484.522 211.521 474.015C213.35 464.835 217.245 450.646 225.829 448.912Z" fill="black"/>
</g>
</g>
<path d="M170.915 553.281L170.154 559.058C170.154 559.058 163.324 575.293 162.743 579.466C161.737 586.748 164.381 595.168 167.524 595.346C171.105 595.548 176.363 591.312 179.214 582.301C181.149 576.199 179.601 563.867 180.663 561.074C181.725 558.281 183.849 552.877 183.849 552.877L170.915 553.281Z" fill="#FFE1BD"/>
<path d="M179.918 578.775C177.267 581.095 171.86 585.993 169.871 585.75C167.806 585.498 164.627 578.867 163.61 576.145C163.239 577.229 162.949 578.339 162.743 579.466C161.737 586.748 164.381 595.168 167.524 595.346C171.105 595.548 176.363 591.312 179.214 582.302C179.555 581.15 179.79 579.969 179.918 578.775Z" fill="#8C4200"/>
<path d="M183.272 557.004C183.272 557.004 211.232 486.543 214.714 477.877C218.195 469.212 221.695 452.512 208.694 448.627C197.466 445.273 191.466 461.955 188.633 472.287C185.8 482.62 170.301 551.843 170.301 551.843C170.301 551.843 168.779 555.689 175.512 557.297C182.245 558.906 183.272 557.004 183.272 557.004Z" fill="#0C5A71"/>
<g style="mix-blend-mode:multiply" opacity="0.1">
<g style="mix-blend-mode:multiply" opacity="0.1">
<path d="M204.691 448.264C199.252 454.686 195.837 467.154 193.932 474.095C191.098 484.427 175.604 555.089 175.604 555.089C175.604 555.089 177.294 556.113 180.969 558.08C180.368 557.994 179.762 557.949 179.156 557.945C171.773 557.945 170.307 553.282 170.307 553.282C170.307 553.282 185.8 482.62 188.635 472.288C191.109 463.26 196.002 449.387 204.691 448.264Z" fill="black"/>
</g>
</g>
<path d="M203.719 284.025C203.719 284.025 206.253 273.137 224.393 276.635C241.709 279.973 240.617 304.138 242.632 310.711C244.413 315.972 246.48 321.132 248.823 326.168C248.901 326.336 248.942 326.518 248.944 326.704C248.946 326.889 248.909 327.072 248.836 327.242C248.762 327.412 248.654 327.565 248.518 327.69C248.382 327.815 248.221 327.91 248.045 327.969C241.646 330.097 214.479 338.07 195.951 326.951C194.298 325.993 193.002 324.524 192.257 322.766C191.909 321.949 191.738 321.068 191.758 320.181C191.883 317.284 193.516 313.759 192.261 305.313C191.007 296.868 192.511 283.773 203.719 284.025Z" fill="#0B0B3A"/>
<path d="M198.388 307.373C197.641 308.482 197.125 309.731 196.873 311.044C196.62 312.358 196.636 313.709 196.92 315.016C197.046 316.281 197.636 317.454 198.577 318.308C199.518 319.163 200.743 319.637 202.013 319.641L202.587 314.89L201.327 306.533L198.388 307.373Z" fill="#FFE1BD"/>
<path d="M238.9 307.373C239.648 308.482 240.164 309.73 240.416 311.044C240.669 312.358 240.653 313.709 240.37 315.016C240.244 316.281 239.653 317.454 238.712 318.309C237.771 319.163 236.546 319.638 235.275 319.641L234.703 314.89L235.962 306.533L238.9 307.373Z" fill="#FFE1BD"/>
<path d="M241.84 399.84C241.537 404.171 241.642 408.52 242.152 412.831C242.68 418.355 244.527 438.587 244.527 438.587C240.803 439.95 236.967 440.982 233.062 441.671C223.34 443.526 206.597 438.546 191.063 433.265C191.063 433.265 196.766 419.252 196.847 407.722C196.867 406.15 196.836 404.528 196.746 402.864C196.378 399.296 195.823 395.75 195.083 392.241C194.922 391.364 194.761 390.457 194.6 389.52C194.016 386.143 193.431 382.435 193.017 378.656C192.576 374.897 192.388 371.113 192.453 367.328C191.046 357.189 194.146 347.212 194.146 347.212C194.146 347.212 206.95 341.861 212.36 341.135C212.36 341.135 221.951 338.935 228.691 341.175C237.506 344.098 242.332 345.801 246.291 347.968C246.714 348.2 249.281 355.718 248.155 362.339C246.503 372.045 244.065 385.358 242.756 393.36C242.232 396.555 241.89 398.904 241.84 399.84Z" fill="#FFD04D"/>
<path opacity="0.39" d="M244.528 440.958C240.693 440.628 236.829 440.869 233.064 441.671C230.364 434.707 231.212 409.416 231.212 409.416C223.656 408.157 212.162 403.621 212.162 403.621C209.139 405.053 199.79 407.098 196.848 407.724C196.869 406.152 196.838 404.529 196.747 402.866C196.38 399.298 195.825 395.752 195.085 392.243C198.621 389.773 205.19 395.226 205.19 395.226L238.355 390.016C239.934 390.975 241.41 392.095 242.757 393.359C242.23 396.554 241.891 398.902 241.84 399.839C241.537 404.17 241.642 408.52 242.152 412.831C242.675 418.355 244.528 440.958 244.528 440.958Z" fill="#CE9006"/>
<path d="M237.467 301.91C237.467 306.778 236.49 318.098 233.437 325.594C231.766 329.855 228.753 333.457 224.854 335.854C224.814 337.799 224.773 340.359 226.134 340.571C226.527 341.437 227.02 341.659 226.758 343.02C225.841 347.859 220.21 353.209 218.829 354.549C217.449 355.889 216.582 354.549 216.582 354.549C214.977 352.693 213.597 350.653 212.472 348.472C211.776 347.162 211.233 345.973 210.889 345.136C210.639 344.511 210.543 343.834 210.61 343.164C210.676 342.494 210.903 341.85 211.272 341.286C212.767 341.105 212.219 337.9 212.097 336.184C209.216 334.128 206.496 330.61 204.471 326.478C200.411 318.184 200.189 307.642 200.189 301.908C200.19 296.963 202.154 292.22 205.649 288.724C209.145 285.227 213.886 283.263 218.829 283.263C223.773 283.264 228.513 285.228 232.009 288.725C235.504 292.222 237.467 296.965 237.467 301.91Z" fill="#FFE1BD"/>
<path d="M224.602 335.945C223.504 336.348 219.02 338.092 218.155 339.976C217.178 342.143 216.624 345.65 215.707 346.638C214.742 347.43 213.648 348.051 212.473 348.472C211.777 347.162 211.234 345.973 210.89 345.136C210.64 344.511 210.544 343.834 210.611 343.164C210.677 342.494 210.904 341.85 211.273 341.286C212.768 341.105 212.22 337.9 212.098 336.184C213.972 336.928 215.975 337.295 217.99 337.262C220.232 337.038 222.446 336.597 224.602 335.945Z" fill="#E8C5A0"/>
<path d="M231.414 385.258C232.704 385 234.007 384.811 235.317 384.692C236.262 384.692 233.559 393.164 233.559 393.164C232.976 392.559 232.234 392.132 231.418 391.932C230.254 391.743 230.694 385.35 230.694 385.35L231.414 385.258Z" fill="#FFE1BD"/>
<path d="M246.296 347.965C246.296 347.965 254.724 352.299 254.22 358.85C253.717 365.402 243.852 401.185 242.154 405.892C240.456 410.6 197.468 396.318 197.468 396.318C197.468 396.318 198.812 390.567 199.987 388.99C199.987 388.99 229.371 392.119 233.229 393.63C233.229 393.63 239.19 365.242 241.036 360.204C242.883 355.166 246.296 347.965 246.296 347.965Z" fill="#D69507"/>
<path d="M232.007 392.534C227.544 395.054 193.603 409.161 190.46 408.286C187.317 407.411 183.529 404.628 183.025 396.313C182.585 388.936 186.853 359.86 187.85 353.128C188.004 352.064 188.443 351.06 189.12 350.225C189.326 350.004 189.544 349.796 189.774 349.601C191.11 348.6 192.583 347.795 194.147 347.212C194.57 348.169 194.459 352.1 194.983 359.001C195.044 359.783 194.993 360.571 194.832 361.339C193.986 365.36 192.958 370.601 193.019 373.383C193.019 373.551 193.03 373.72 193.049 373.887C193.341 376.809 195.512 382.353 195.548 384.691C195.618 390.214 195.598 390.99 195.588 391.081C196.807 390.879 201.041 390.123 206.207 389.206C216.876 387.291 231.504 384.66 231.504 384.66C232.772 387.364 232.007 392.534 232.007 392.534Z" fill="#EFAF11"/>
<path d="M196.415 309.22C196.415 309.22 202.311 308.224 205.714 303.803C207.493 301.288 208.884 298.521 209.843 295.593C209.843 295.593 211.904 300.023 218.83 303.173C225.624 306.296 232.864 308.337 240.288 309.22C240.288 309.22 240.746 293.094 235.457 286.544C230.169 279.993 216.442 276.214 207.123 281.881C197.804 287.549 196.415 309.22 196.415 309.22Z" fill="#0B0B3A"/>
<path d="M211.333 341.167C211.333 341.167 212.301 349.859 216.582 354.552C216.582 354.552 215.162 354.083 212.525 357.261C212.444 357.358 212.337 357.431 212.217 357.471C212.097 357.511 211.968 357.517 211.844 357.488C211.721 357.459 211.608 357.396 211.519 357.306C211.429 357.216 211.367 357.103 211.338 356.98C210.519 353.446 207.836 344.794 209.328 341.785C209.58 341.517 209.898 341.319 210.249 341.211C210.601 341.103 210.974 341.088 211.333 341.167Z" fill="#CE9006"/>
<path d="M226.002 340.527C225.302 343.065 224.428 345.551 223.386 347.969C222.162 350.464 220.552 352.75 218.616 354.743C218.616 354.743 221.914 355.354 223.44 357.527C223.496 357.606 223.573 357.668 223.662 357.707C223.751 357.746 223.848 357.76 223.944 357.748C224.041 357.736 224.132 357.698 224.208 357.639C224.285 357.579 224.343 357.5 224.378 357.409C225.37 355.497 225.935 353.766 227.039 349.829C228.295 345.343 228.346 342.879 228.2 341.024C227.933 340.718 227.577 340.506 227.182 340.416C226.787 340.327 226.373 340.366 226.002 340.527Z" fill="#CE9006"/>
<path opacity="0.39" d="M193.18 393.411C189.742 390.477 193.845 384.878 193.553 382.919C193.261 380.961 193.271 380.632 193.019 378.657C192.798 377.075 192.809 375.469 193.05 373.889C193.342 376.812 195.513 382.355 195.549 384.694C195.619 390.217 195.599 390.993 195.589 391.083C196.808 390.882 208.191 388.842 213.359 387.924C214.567 388.561 195.495 395.386 193.18 393.411Z" fill="#CE9006"/>
<path d="M199.232 390.448L195.593 391.088C193.326 390.891 191.05 390.827 188.775 390.897C186.998 391.053 185.247 391.427 183.561 392.01C183.464 392.032 183.364 392.034 183.266 392.015C183.169 391.997 183.076 391.958 182.994 391.902C182.913 391.846 182.844 391.773 182.791 391.688C182.739 391.604 182.705 391.51 182.692 391.411C182.32 390.206 182.171 388.943 182.252 387.684C182.402 386.448 182.721 385.238 183.201 384.089C183.283 383.903 183.402 383.736 183.552 383.599C183.702 383.462 183.878 383.357 184.071 383.291C185.422 382.815 187.032 382.866 189.388 383.066C190.431 383.087 191.456 383.347 192.383 383.826C193.311 384.304 194.117 384.988 194.74 385.826L196.235 387.606C196.721 388.174 197.381 388.564 198.113 388.717L199.912 389.091C199.912 389.091 199.713 389.412 199.543 389.745C199.425 389.973 199.321 390.208 199.232 390.448Z" fill="#FFE1BD"/>
<path d="M126.195 425.826L127.881 393.255H111.944L113.629 425.826H126.195Z" fill="#FAFEFF"/>
<path d="M115.059 424.296L113.58 394.785H126.245L124.765 424.296H115.059Z" fill="#B4EFF9"/>
<path d="M114.065 402.003L115.059 424.296H124.765L125.759 402.003H114.065Z" fill="#75D9EF"/>
<g opacity="0.5">
<path opacity="0.5" d="M116.083 421.112H118.732L117.167 397.86C116.846 395.05 114.221 394.897 114.634 398.1L116.083 421.112Z" fill="white"/>
</g>
<path d="M148.823 430.281H74.9839V434.907H148.823V430.281Z" fill="#282C2D"/>
<path d="M142.585 425.685H75.6998V429.395H142.585V425.685Z" fill="#D6D6D6"/>
<path d="M146.062 428.511H72.2235V430.282H146.062V428.511Z" fill="#525252"/>
<path d="M141.212 427.108H77.0734V427.491H141.212V427.108Z" fill="#A5A5AF"/>
<path d="M141.212 427.938H77.0734V428.32H141.212V427.938Z" fill="#A5A5AF"/>
<path d="M141.212 426.241H77.0734V426.623H141.212V426.241Z" fill="#A5A5AF"/>
<path d="M438.807 426.468H408.314V434.037H438.807V426.468Z" fill="#F1F2F2"/>
<path d="M438.808 426.468H429.185V434.037H438.808V426.468Z" fill="#A7A9AC"/>
<path d="M436.924 426.468H406.431V427.337H436.924V426.468Z" fill="#A7A9AC"/>
<path d="M436.924 433.168H406.431V434.037H436.924V433.168Z" fill="#A7A9AC"/>
<path d="M469.805 426.468H430.012V434.037H469.805V426.468Z" fill="#383838"/>
<path d="M455.579 428.228H434.29V432.277H455.579V428.228Z" fill="#A7A9AC"/>
<path d="M454.432 428.445H435.436V432.058H454.432V428.445Z" fill="#E6E7E8"/>
<path d="M464.252 432.284C465.626 432.284 466.739 431.376 466.739 430.256C466.739 429.136 465.626 428.228 464.252 428.228C462.879 428.228 461.765 429.136 461.765 430.256C461.765 431.376 462.879 432.284 464.252 432.284Z" fill="#A7A9AC"/>
<path d="M427.519 427.845H410.128V428.611H427.519V427.845Z" fill="#A7A9AC"/>
<path d="M427.519 430.792H410.128V431.557H427.519V430.792Z" fill="#A7A9AC"/>
<path d="M427.519 431.895H410.128V432.659H427.519V431.895Z" fill="#A7A9AC"/>
<path d="M426.416 429.538H415.58V430.302H426.416V429.538Z" fill="#A7A9AC"/>
<path d="M414.71 429.538H410.128V430.302H414.71V429.538Z" fill="#A7A9AC"/>
<path d="M433.066 419.078H402.572V426.647H433.066V419.078Z" fill="#F1F2F2"/>
<path d="M433.066 419.078H423.442V426.647H433.066V419.078Z" fill="#A7A9AC"/>
<path d="M431.183 419.078H400.689V419.948H431.183V419.078Z" fill="#A7A9AC"/>
<path d="M431.183 425.778H400.689V426.647H431.183V425.778Z" fill="#A7A9AC"/>
<path d="M464.063 419.078H424.271V426.647H464.063V419.078Z" fill="#58595B"/>
<path d="M449.837 420.838H428.548V424.888H449.837V420.838Z" fill="#A7A9AC"/>
<path d="M448.69 421.056H429.695V424.669H448.69V421.056Z" fill="#E6E7E8"/>
<path d="M458.511 424.895C459.884 424.895 460.997 423.987 460.997 422.867C460.997 421.747 459.884 420.839 458.511 420.839C457.137 420.839 456.024 421.747 456.024 422.867C456.024 423.987 457.137 424.895 458.511 424.895Z" fill="#A7A9AC"/>
<path d="M421.778 420.455H404.387V421.22H421.778V420.455Z" fill="#A7A9AC"/>
<path d="M421.778 423.402H404.387V424.167H421.778V423.402Z" fill="#A7A9AC"/>
<path d="M421.778 424.506H404.387V425.271H421.778V424.506Z" fill="#A7A9AC"/>
<path d="M420.674 422.149H409.838V422.913H420.674V422.149Z" fill="#A7A9AC"/>
<path d="M408.969 422.149H404.387V422.913H408.969V422.149Z" fill="#A7A9AC"/>
<path d="M438.807 411.689H408.314V419.258H438.807V411.689Z" fill="#F1F2F2"/>
<path d="M438.808 411.689H429.185V419.258H438.808V411.689Z" fill="#A7A9AC"/>
<path d="M436.924 411.689H406.431V412.558H436.924V411.689Z" fill="#A7A9AC"/>
<path d="M436.924 418.389H406.431V419.258H436.924V418.389Z" fill="#A7A9AC"/>
<path d="M469.805 411.689H430.012V419.258H469.805V411.689Z" fill="#594A42"/>
<path d="M455.579 413.449H434.29V417.499H455.579V413.449Z" fill="#A7A9AC"/>
<path d="M454.432 413.667H435.436V417.28H454.432V413.667Z" fill="#E6E7E8"/>
<path d="M464.252 417.506C465.626 417.506 466.739 416.597 466.739 415.477C466.739 414.356 465.626 413.448 464.252 413.448C462.879 413.448 461.765 414.356 461.765 415.477C461.765 416.597 462.879 417.506 464.252 417.506Z" fill="#A7A9AC"/>
<path d="M427.519 413.067H410.128V413.832H427.519V413.067Z" fill="#A7A9AC"/>
<path d="M427.519 416.013H410.128V416.779H427.519V416.013Z" fill="#A7A9AC"/>
<path d="M427.519 417.116H410.128V417.881H427.519V417.116Z" fill="#A7A9AC"/>
<path d="M426.416 414.759H415.58V415.523H426.416V414.759Z" fill="#A7A9AC"/>
<path d="M414.71 414.759H410.128V415.523H414.71V414.759Z" fill="#A7A9AC"/>
<path d="M472.439 433.834L474.124 408.778H458.188L459.873 433.834H472.439Z" fill="#FAFEFF"/>
<path d="M461.303 432.304L459.823 410.307H472.489L471.009 432.304H461.303Z" fill="#B4EFF9"/>
<path d="M460.308 417.526L461.303 432.304H471.009L472.003 417.526H460.308Z" fill="#75D9EF"/>
<g opacity="0.5">
<path opacity="0.5" d="M462.326 429.117H464.975L463.41 413.38C463.089 410.571 460.463 410.417 460.877 413.621L462.326 429.117Z" fill="white"/>
</g>
<path d="M150.587 408.382C150.919 411.123 151.988 413.722 153.678 415.905C155.369 418.088 157.618 419.772 160.188 420.778C160.207 420.784 160.227 420.782 160.245 420.774C160.262 420.765 160.276 420.751 160.284 420.733C160.291 420.715 160.292 420.695 160.285 420.676C160.279 420.658 160.266 420.643 160.249 420.633C155.185 418.247 151.43 414.075 150.722 408.381C150.711 408.293 150.576 408.293 150.587 408.381V408.382Z" fill="#81553A"/>
<path d="M159.745 399.971C161.2 403.296 161.649 406.975 161.035 410.553C160.422 414.13 158.774 417.449 156.294 420.099C156.279 420.115 156.27 420.136 156.27 420.158C156.27 420.18 156.279 420.201 156.294 420.217C156.31 420.233 156.331 420.241 156.353 420.241C156.375 420.241 156.397 420.233 156.412 420.217C158.965 417.573 160.659 414.22 161.272 410.596C161.886 406.972 161.39 403.248 159.851 399.911C159.819 399.839 159.714 399.901 159.745 399.972V399.971Z" fill="#81553A"/>
<path d="M174.379 403.112C177.105 406.579 175.575 410.574 173.851 414.109C172.329 417.228 169.23 418.695 166.21 420.01C166.186 420.024 166.167 420.046 166.159 420.072C166.15 420.098 166.151 420.127 166.162 420.152C166.173 420.177 166.193 420.198 166.218 420.209C166.243 420.221 166.271 420.223 166.298 420.214C170.172 418.838 173.077 416.683 174.677 412.858C176.105 409.444 177.012 406.108 174.511 402.984C174.437 402.891 174.309 403.023 174.381 403.115L174.379 403.112Z" fill="#81553A"/>
<path d="M172.8 414.162C174.069 414.361 175.369 414.209 176.558 413.722C177.747 413.236 178.781 412.433 179.547 411.401C179.553 411.383 179.554 411.364 179.548 411.347C179.543 411.329 179.532 411.313 179.518 411.302C179.503 411.29 179.485 411.284 179.466 411.283C179.448 411.283 179.429 411.288 179.414 411.299C178.611 412.247 177.594 412.991 176.447 413.468C175.301 413.945 174.057 414.143 172.819 414.045C172.804 414.045 172.791 414.05 172.78 414.06C172.77 414.069 172.763 414.082 172.761 414.096C172.759 414.11 172.762 414.125 172.77 414.137C172.777 414.149 172.789 414.158 172.803 414.162H172.8Z" fill="#81553A"/>
<path d="M165.743 401.151C165.319 404.89 164.295 411.325 160.514 413.169C160.495 413.18 160.481 413.197 160.474 413.217C160.467 413.238 160.468 413.26 160.476 413.28C160.485 413.3 160.5 413.316 160.519 413.325C160.539 413.334 160.561 413.336 160.581 413.33C164.572 411.848 165.532 404.709 165.883 401.151C165.892 401.063 165.753 401.063 165.744 401.151H165.743Z" fill="#81553A"/>
<path d="M143.709 406.404C143.985 408.502 145.036 410.42 146.656 411.782C148.275 413.143 150.345 413.849 152.458 413.76C152.474 413.76 152.488 413.754 152.499 413.743C152.51 413.732 152.516 413.718 152.516 413.702C152.516 413.687 152.51 413.673 152.499 413.662C152.488 413.651 152.474 413.645 152.458 413.645C150.389 413.662 148.382 412.938 146.8 411.604C145.218 410.27 144.165 408.414 143.832 406.371C143.818 406.29 143.698 406.325 143.71 406.404H143.709Z" fill="#81553A"/>
<path d="M178.984 416.526H147.372C147.372 416.526 144.808 422.702 144.808 424.229C144.808 425.755 148.301 428.879 152.06 428.879H174.296C178.055 428.879 181.548 425.754 181.548 424.229C181.548 422.703 178.984 416.526 178.984 416.526Z" fill="#FFD04D"/>
<path d="M175.623 430.468H150.732L151.603 428.879H174.753L175.623 430.468Z" fill="#EFAF11"/>
<path d="M154.418 424.229C154.418 422.703 156.98 416.526 156.98 416.526H147.372C147.372 416.526 144.808 422.702 144.808 424.229C144.808 425.755 148.301 428.879 152.06 428.879H161.669C157.906 428.879 154.418 425.754 154.418 424.229Z" fill="#EFAF11"/>
<g style="mix-blend-mode:multiply" opacity="0.55">
<path d="M151.603 428.879L150.733 430.468H160.342L161.212 428.879H151.603Z" fill="#EFAF11"/>
</g>
<path d="M161.996 405.032C162.714 404.469 165.547 403.465 167.438 404.66C168.557 405.33 169.498 406.26 170.182 407.371C170.867 408.482 171.274 409.741 171.371 411.042C169.659 411.437 167.902 411.605 166.146 411.542C160.228 411.077 160.662 406.074 161.996 405.032Z" fill="#709E3E"/>
<path d="M176.401 401.881C176.879 401.471 178.799 400.688 180.141 401.451C180.933 401.878 181.611 402.488 182.118 403.232C182.625 403.976 182.946 404.83 183.054 405.724C181.887 406.051 180.682 406.222 179.47 406.235C175.377 406.104 175.516 402.643 176.401 401.881Z" fill="#709E3E"/>
<path d="M175.103 399.839C174.693 399.65 174.242 399.568 173.792 399.601C173.341 399.634 172.907 399.782 172.529 400.029C172.05 400.424 171.673 400.927 171.428 401.498C171.183 402.068 171.078 402.688 171.122 403.307C171.951 403.379 172.785 403.34 173.603 403.192C176.34 402.575 175.798 400.241 175.103 399.839Z" fill="#709E3E"/>
<path d="M146.99 402.778C146.365 402.484 145.669 402.379 144.985 402.473C144.595 402.547 144.226 402.705 143.904 402.936C143.581 403.168 143.313 403.467 143.119 403.813C142.925 404.16 142.809 404.544 142.779 404.94C142.75 405.336 142.807 405.734 142.948 406.105C143.159 406.476 143.463 406.785 143.831 407.001C144.199 407.217 144.617 407.333 145.044 407.337C146.66 407.54 148.595 406.275 150.204 405.753C149.485 404.438 148.357 403.393 146.99 402.778Z" fill="#709E3E"/>
<path d="M151.189 406.942C150.854 407.113 150.57 407.368 150.364 407.681C150.157 407.995 150.036 408.356 150.011 408.731C150.101 409.186 150.348 409.595 150.71 409.885C151.072 410.175 151.525 410.327 151.989 410.315C152.915 410.359 156.221 409.454 157.631 410.178C155.18 405.53 152.701 405.985 151.189 406.942Z" fill="#709E3E"/>
<path d="M179.066 408.563C178.777 408.676 178.52 408.857 178.317 409.091C178.115 409.325 177.971 409.605 177.901 409.907C177.867 410.276 177.968 410.645 178.184 410.945C178.401 411.246 178.719 411.458 179.079 411.543C179.749 411.719 182.323 411.433 183.232 412.253C183.233 408.73 180.336 407.972 179.066 408.563Z" fill="#709E3E"/>
<path d="M161.48 413.106C162.234 412.889 165.086 412.641 166.265 414.169C168.42 416.956 166.568 419.359 166.328 420.209C164.813 419.984 163.333 419.568 161.923 418.971C157.243 416.761 158.917 413.498 161.48 413.106Z" fill="#709E3E"/>
<path d="M151.154 413.604C150.467 413.373 148.144 413.407 147.182 414.883C146.6 415.776 146.229 416.789 146.096 417.847C145.964 418.904 146.074 419.978 146.418 420.987C147.751 420.802 149.05 420.426 150.276 419.871C154.319 417.803 152.428 414.032 151.154 413.604Z" fill="#709E3E"/>
<path d="M158.69 399.685C159.045 399.739 159.382 399.88 159.67 400.095C159.959 400.309 160.19 400.591 160.345 400.916C160.47 401.328 160.443 401.772 160.268 402.165C160.093 402.559 159.782 402.876 159.392 403.058C158.668 403.421 155.659 403.742 154.819 404.896C154.93 399.778 157.097 399.333 158.69 399.685Z" fill="#709E3E"/>
<g opacity="0.62">
<path opacity="0.62" d="M142.81 404.675C145.314 404.481 147.826 404.919 150.116 405.947C150.155 405.964 150.189 405.909 150.15 405.89C147.86 404.82 145.326 404.381 142.81 404.621C142.776 404.621 142.775 404.678 142.81 404.675Z" fill="#93BC6C"/>
<path opacity="0.62" d="M143.684 404.093C144.605 403.802 145.576 403.703 146.537 403.801C147.498 403.899 148.428 404.193 149.271 404.665C149.279 404.669 149.287 404.67 149.295 404.667C149.304 404.665 149.31 404.659 149.315 404.652C149.319 404.645 149.32 404.636 149.318 404.628C149.316 404.62 149.311 404.613 149.304 404.608C148.469 404.094 147.528 403.775 146.552 403.678C145.576 403.58 144.59 403.705 143.67 404.044C143.664 404.046 143.66 404.051 143.657 404.056C143.655 404.061 143.654 404.068 143.656 404.073C143.658 404.079 143.661 404.084 143.666 404.088C143.671 404.091 143.677 404.093 143.683 404.092L143.684 404.093Z" fill="#93BC6C"/>
<path opacity="0.62" d="M143.266 404.998C144.057 406.745 146.919 406.505 148.426 406.108C148.439 406.104 148.45 406.096 148.456 406.084C148.462 406.073 148.464 406.059 148.461 406.047C148.457 406.034 148.449 406.024 148.437 406.017C148.426 406.011 148.412 406.009 148.4 406.013C146.935 406.375 144.103 406.651 143.317 404.968C143.3 404.933 143.25 404.964 143.265 404.998H143.266Z" fill="#93BC6C"/>
<path opacity="0.62" d="M150.719 407.631C151.872 407.134 153.168 407.083 154.357 407.487C155.545 407.892 156.541 408.723 157.152 409.821C157.155 409.827 157.161 409.832 157.168 409.834C157.175 409.836 157.183 409.835 157.189 409.831C157.195 409.827 157.2 409.822 157.202 409.814C157.204 409.807 157.203 409.8 157.199 409.794C156.604 408.663 155.599 407.804 154.389 407.392C153.18 406.981 151.859 407.049 150.699 407.582C150.693 407.585 150.688 407.59 150.685 407.597C150.683 407.603 150.683 407.611 150.686 407.617C150.689 407.623 150.694 407.628 150.7 407.631C150.706 407.634 150.713 407.634 150.72 407.632L150.719 407.631Z" fill="#93BC6C"/>
<path opacity="0.62" d="M151.031 407.951C153.023 408.195 154.968 408.736 156.801 409.554C156.82 409.562 156.838 409.534 156.818 409.525C155.002 408.637 153.042 408.085 151.03 407.895C150.994 407.895 150.995 407.947 151.03 407.951H151.031Z" fill="#93BC6C"/>
<path opacity="0.62" d="M150.393 408.491C152.255 409.572 154.402 410.06 156.549 409.89C156.6 409.885 156.601 409.802 156.549 409.808C154.417 409.935 152.292 409.466 150.412 408.455C150.407 408.453 150.402 408.453 150.397 408.454C150.392 408.456 150.388 408.459 150.386 408.464C150.383 408.468 150.382 408.473 150.383 408.478C150.384 408.483 150.387 408.488 150.391 408.491H150.393Z" fill="#93BC6C"/>
<path opacity="0.62" d="M155.004 404.672C156.08 402.925 157.603 401.497 159.415 400.537C159.426 400.531 159.434 400.52 159.437 400.508C159.44 400.496 159.438 400.484 159.432 400.473C159.426 400.462 159.416 400.454 159.403 400.451C159.391 400.448 159.379 400.45 159.368 400.456C157.499 401.362 155.957 402.825 154.954 404.644C154.952 404.647 154.951 404.65 154.95 404.654C154.95 404.658 154.95 404.662 154.951 404.665C154.953 404.673 154.958 404.679 154.964 404.683C154.971 404.687 154.979 404.688 154.986 404.686C154.993 404.684 155 404.679 155.003 404.673L155.004 404.672Z" fill="#93BC6C"/>
<path opacity="0.62" d="M156.888 403.781C158.365 403.211 159.586 402.127 160.326 400.727C160.33 400.719 160.331 400.709 160.328 400.7C160.325 400.691 160.319 400.683 160.311 400.679C160.303 400.674 160.293 400.672 160.284 400.674C160.275 400.676 160.267 400.682 160.261 400.689C159.493 402.045 158.304 403.114 156.875 403.734C156.846 403.746 156.858 403.794 156.888 403.782V403.781Z" fill="#93BC6C"/>
<path opacity="0.62" d="M155.051 403.429C155.299 402.507 155.833 401.687 156.575 401.086C157.318 400.486 158.231 400.136 159.184 400.086C159.194 400.084 159.203 400.079 159.209 400.072C159.216 400.064 159.219 400.055 159.219 400.045C159.219 400.035 159.216 400.025 159.209 400.018C159.203 400.01 159.194 400.005 159.184 400.004C158.207 400.033 157.268 400.383 156.509 401C155.751 401.616 155.216 402.465 154.988 403.416C154.985 403.423 154.986 403.432 154.99 403.439C154.994 403.446 155.001 403.452 155.009 403.454C155.017 403.456 155.026 403.455 155.033 403.451C155.04 403.447 155.045 403.44 155.047 403.432L155.051 403.429Z" fill="#93BC6C"/>
<path opacity="0.62" d="M171.449 403.371C172.255 402.087 173.38 401.035 174.715 400.316C174.725 400.31 174.733 400.3 174.736 400.288C174.739 400.275 174.738 400.263 174.731 400.252C174.725 400.241 174.715 400.233 174.703 400.23C174.691 400.227 174.678 400.229 174.667 400.235C173.277 400.899 172.133 401.987 171.4 403.342C171.398 403.345 171.397 403.348 171.396 403.352C171.396 403.356 171.396 403.36 171.397 403.363C171.399 403.371 171.404 403.377 171.41 403.381C171.417 403.385 171.424 403.386 171.432 403.384C171.439 403.382 171.445 403.377 171.449 403.371Z" fill="#93BC6C"/>
<path opacity="0.62" d="M172.837 402.712C173.936 402.296 174.843 401.491 175.387 400.45C175.391 400.441 175.392 400.432 175.389 400.423C175.386 400.414 175.38 400.406 175.372 400.402C175.364 400.397 175.354 400.395 175.345 400.397C175.336 400.399 175.328 400.404 175.322 400.412C174.75 401.409 173.874 402.198 172.823 402.664C172.794 402.677 172.806 402.724 172.836 402.712H172.837Z" fill="#93BC6C"/>
<path opacity="0.62" d="M171.483 402.45C171.669 401.771 172.064 401.166 172.612 400.723C173.16 400.28 173.833 400.021 174.537 399.982C174.547 399.98 174.556 399.976 174.562 399.968C174.569 399.961 174.572 399.951 174.572 399.941C174.572 399.931 174.569 399.922 174.562 399.914C174.556 399.906 174.547 399.902 174.537 399.9C173.811 399.92 173.112 400.179 172.549 400.637C171.986 401.095 171.59 401.727 171.423 402.434C171.422 402.438 171.422 402.442 171.422 402.446C171.422 402.45 171.424 402.454 171.426 402.457C171.43 402.465 171.437 402.47 171.444 402.472C171.452 402.474 171.461 402.473 171.468 402.469C171.475 402.465 171.48 402.458 171.483 402.45Z" fill="#93BC6C"/>
<path opacity="0.62" d="M146.663 420.545C147.978 418.041 149.783 415.827 151.971 414.035C151.976 414.029 151.978 414.022 151.979 414.014C151.979 414.006 151.976 413.999 151.971 413.993C151.967 413.987 151.96 413.982 151.953 413.981C151.946 413.979 151.938 413.979 151.931 413.982C149.656 415.699 147.832 417.942 146.615 420.519C146.599 420.551 146.647 420.58 146.664 420.548L146.663 420.545Z" fill="#93BC6C"/>
<path opacity="0.62" d="M146.386 420.644C146.15 419.077 146.527 417.479 147.439 416.182C148.351 414.886 149.728 413.991 151.283 413.685C151.292 413.682 151.299 413.676 151.304 413.667C151.309 413.659 151.31 413.649 151.307 413.64C151.305 413.631 151.299 413.623 151.291 413.618C151.282 413.613 151.273 413.611 151.263 413.614C149.68 413.905 148.274 414.808 147.35 416.126C146.425 417.445 146.055 419.074 146.319 420.663C146.325 420.708 146.393 420.688 146.387 420.644H146.386Z" fill="#93BC6C"/>
<path opacity="0.62" d="M146.949 420.488C148.377 420.371 149.715 419.741 150.715 418.714C151.715 417.687 152.31 416.333 152.39 414.902C152.39 414.861 152.333 414.864 152.329 414.902C152.218 416.305 151.619 417.626 150.636 418.634C149.654 419.643 148.349 420.275 146.949 420.421C146.907 420.425 146.906 420.493 146.949 420.489V420.488Z" fill="#93BC6C"/>
<path opacity="0.62" d="M160.457 413.707C161.688 414.258 162.775 415.088 163.631 416.131C164.488 417.174 165.091 418.402 165.392 419.717C165.394 419.725 165.399 419.731 165.405 419.735C165.412 419.738 165.42 419.739 165.427 419.738C165.434 419.736 165.441 419.731 165.444 419.724C165.448 419.717 165.449 419.71 165.447 419.702C165.166 418.371 164.568 417.127 163.703 416.075C162.839 415.024 161.735 414.197 160.483 413.663C160.454 413.65 160.428 413.693 160.458 413.707H160.457Z" fill="#93BC6C"/>
<path opacity="0.62" d="M160.793 413.845C163.519 414.251 166.568 415.206 166.447 418.55C166.447 418.56 166.451 418.569 166.458 418.576C166.465 418.583 166.474 418.587 166.484 418.587C166.494 418.587 166.503 418.583 166.51 418.576C166.517 418.569 166.521 418.56 166.521 418.55C166.785 415.172 163.531 414.169 160.805 413.79C160.769 413.785 160.753 413.84 160.79 413.846L160.793 413.845Z" fill="#93BC6C"/>
<path opacity="0.62" d="M160.648 414.304C160.091 416.863 162.644 418.297 164.679 419.017C164.685 419.019 164.692 419.019 164.699 419.016C164.705 419.013 164.71 419.008 164.713 419.002C164.715 418.995 164.715 418.988 164.713 418.982C164.711 418.975 164.706 418.97 164.7 418.967C162.806 418.087 160.16 416.909 160.707 414.32C160.715 414.282 160.657 414.265 160.648 414.304Z" fill="#93BC6C"/>
<path opacity="0.62" d="M161.814 405.996C161.872 409.711 167.275 410.876 170.169 410.873C170.176 410.873 170.183 410.87 170.188 410.865C170.192 410.86 170.195 410.854 170.195 410.847C170.195 410.84 170.192 410.833 170.188 410.828C170.183 410.823 170.176 410.82 170.169 410.82C167.278 410.717 161.999 409.694 161.844 405.996C161.844 405.992 161.843 405.988 161.84 405.985C161.837 405.982 161.833 405.981 161.829 405.981C161.825 405.981 161.822 405.982 161.819 405.985C161.816 405.988 161.814 405.992 161.814 405.996Z" fill="#93BC6C"/>
<path opacity="0.62" d="M162.53 406.449C165.073 408.255 167.826 409.743 170.73 410.88C170.769 410.895 170.785 410.833 170.748 410.818C167.854 409.674 165.103 408.198 162.551 406.419C162.53 406.405 162.511 406.438 162.531 406.452L162.53 406.449Z" fill="#93BC6C"/>
<path opacity="0.62" d="M162.594 405.863C165.825 406.467 168.742 408.185 170.836 410.719C170.874 410.763 170.935 410.7 170.9 410.656C168.825 408.078 165.873 406.356 162.609 405.817C162.577 405.812 162.563 405.86 162.595 405.866L162.594 405.863Z" fill="#93BC6C"/>
<path opacity="0.62" d="M162.945 404.972C167.052 404.738 170.566 406.285 171.018 410.792C171.02 410.799 171.023 410.806 171.029 410.811C171.034 410.815 171.041 410.818 171.049 410.818C171.056 410.818 171.063 410.815 171.069 410.811C171.074 410.806 171.078 410.799 171.079 410.792C171.071 409.917 170.87 409.054 170.49 408.265C170.109 407.477 169.56 406.782 168.881 406.23C167.164 404.842 165.05 404.769 162.941 404.918C162.907 404.918 162.906 404.974 162.941 404.973L162.945 404.972Z" fill="#93BC6C"/>
<path opacity="0.62" d="M175.991 402.735C176.284 405.391 180.238 405.902 182.33 405.726C182.337 405.726 182.344 405.723 182.349 405.718C182.354 405.713 182.357 405.706 182.357 405.699C182.357 405.692 182.354 405.686 182.349 405.681C182.344 405.676 182.337 405.673 182.33 405.673C180.233 405.741 176.409 405.377 176.02 402.732C176.019 402.729 176.017 402.726 176.014 402.724C176.012 402.722 176.008 402.721 176.005 402.721C176.002 402.721 175.998 402.722 175.996 402.724C175.993 402.726 175.991 402.729 175.991 402.732V402.735Z" fill="#93BC6C"/>
<path opacity="0.62" d="M176.536 403.02C178.487 404.16 180.569 405.06 182.737 405.7C182.745 405.702 182.753 405.7 182.76 405.696C182.767 405.692 182.772 405.685 182.774 405.677C182.776 405.669 182.776 405.661 182.772 405.654C182.768 405.646 182.762 405.641 182.754 405.638C180.595 404.989 178.516 404.1 176.556 402.986C176.552 402.984 176.547 402.984 176.542 402.985C176.537 402.986 176.533 402.99 176.531 402.994C176.528 402.998 176.527 403.003 176.529 403.008C176.53 403.013 176.533 403.017 176.537 403.02H176.536Z" fill="#93BC6C"/>
<path opacity="0.62" d="M176.56 402.607C178.92 402.854 181.123 403.904 182.803 405.581C182.812 405.588 182.823 405.592 182.834 405.592C182.846 405.592 182.857 405.587 182.865 405.579C182.873 405.571 182.878 405.56 182.878 405.548C182.878 405.537 182.874 405.526 182.867 405.517C181.197 403.795 178.955 402.742 176.564 402.557C176.531 402.557 176.532 402.604 176.564 402.608L176.56 402.607Z" fill="#93BC6C"/>
<path opacity="0.62" d="M176.764 401.96C179.677 401.589 182.319 402.44 182.94 405.62C182.942 405.627 182.947 405.633 182.953 405.636C182.959 405.64 182.966 405.642 182.973 405.641C182.98 405.64 182.986 405.636 182.991 405.631C182.996 405.626 182.999 405.619 182.999 405.612C182.949 404.988 182.757 404.384 182.439 403.845C182.12 403.306 181.683 402.846 181.161 402.502C179.821 401.752 178.247 401.539 176.757 401.907C176.75 401.908 176.745 401.912 176.741 401.918C176.737 401.923 176.736 401.93 176.736 401.937C176.737 401.943 176.74 401.949 176.746 401.954C176.751 401.958 176.757 401.961 176.764 401.96Z" fill="#93BC6C"/>
<path opacity="0.62" d="M177.951 410.059C178.089 410.295 178.273 410.501 178.492 410.666C178.711 410.83 178.961 410.949 179.227 411.015C179.765 411.154 180.337 411.085 180.885 411.181C181.691 411.334 182.46 411.642 183.149 412.089C183.15 412.089 183.151 412.089 183.152 412.089C183.154 412.088 183.154 412.088 183.155 412.087C183.156 412.086 183.156 412.084 183.156 412.083C183.156 412.082 183.155 412.081 183.154 412.08C182.374 411.552 181.483 411.212 180.549 411.086C179.572 410.967 178.549 411.011 177.984 410.04C177.982 410.036 177.977 410.033 177.973 410.031C177.968 410.03 177.963 410.031 177.958 410.033C177.954 410.036 177.951 410.04 177.95 410.045C177.948 410.05 177.949 410.055 177.952 410.059L177.951 410.059Z" fill="#93BC6C"/>
<path opacity="0.62" d="M178.303 409.574C179.212 409.585 180.106 409.801 180.92 410.205C181.734 410.609 182.446 411.191 183.005 411.908C183.007 411.91 183.01 411.911 183.013 411.911C183.016 411.911 183.019 411.91 183.021 411.908C183.023 411.906 183.025 411.903 183.026 411.9C183.027 411.898 183.026 411.895 183.025 411.892C182.479 411.155 181.767 410.556 180.946 410.146C180.126 409.736 179.22 409.525 178.303 409.53C178.297 409.53 178.291 409.532 178.287 409.536C178.283 409.54 178.281 409.546 178.281 409.552C178.281 409.558 178.283 409.563 178.287 409.567C178.291 409.571 178.297 409.574 178.303 409.574H178.303Z" fill="#93BC6C"/>
<path opacity="0.62" d="M178.852 409.255C179.268 409.109 179.71 409.052 180.149 409.088C180.588 409.124 181.014 409.252 181.401 409.464C181.787 409.676 182.125 409.966 182.391 410.317C182.658 410.668 182.848 411.071 182.948 411.5C182.95 411.507 182.954 411.512 182.96 411.515C182.966 411.519 182.973 411.519 182.979 411.518C182.985 411.516 182.99 411.512 182.994 411.506C182.997 411.5 182.998 411.494 182.996 411.487C182.9 411.048 182.711 410.635 182.442 410.275C182.173 409.915 181.83 409.617 181.437 409.401C181.043 409.185 180.607 409.056 180.159 409.023C179.711 408.99 179.261 409.053 178.84 409.209C178.811 409.218 178.823 409.265 178.853 409.255H178.852Z" fill="#93BC6C"/>
</g>
<path d="M144.166 408.033C143.512 407.471 140.936 406.466 139.215 407.662C138.137 408.432 137.235 409.422 136.566 410.566C135.897 411.71 135.478 412.982 135.335 414.3C137.002 414.611 138.703 414.693 140.391 414.544C145.77 414.079 145.377 409.076 144.166 408.033Z" fill="#93BC6C"/>
<path d="M174.025 402.414C173.476 402.034 171.41 401.466 170.179 402.525C169.435 403.166 168.845 403.968 168.456 404.87C168.067 405.773 167.889 406.752 167.934 407.733C169.162 407.911 170.409 407.911 171.637 407.733C175.75 406.948 175.044 403.121 174.025 402.414Z" fill="#93BC6C"/>
<path d="M161.057 396.488C160.768 396.6 160.511 396.782 160.308 397.016C160.105 397.25 159.962 397.531 159.891 397.833C159.858 398.202 159.959 398.57 160.175 398.871C160.392 399.171 160.709 399.383 161.07 399.468C161.74 399.644 164.314 399.358 165.223 400.179C165.224 396.655 162.327 395.896 161.057 396.488Z" fill="#93BC6C"/>
<path d="M173.099 413.37C173.709 413.029 176.15 412.216 177.545 413.238C180.089 415.103 179.03 417.498 179.02 418.259C177.637 418.394 176.242 418.362 174.866 418.164C170.242 417.32 170.943 414.244 173.099 413.37Z" fill="#93BC6C"/>
<path d="M135.657 414.081C136.736 413.416 137.724 412.614 138.596 411.695C139.982 410.336 141.63 409.275 143.44 408.576C143.486 408.559 143.468 408.488 143.419 408.501C140.119 409.517 138.486 412.39 135.615 414.009C135.61 414.012 135.606 414.016 135.603 414.02C135.6 414.025 135.597 414.03 135.596 414.035C135.594 414.04 135.594 414.046 135.595 414.051C135.595 414.057 135.597 414.062 135.6 414.067C135.603 414.071 135.607 414.076 135.611 414.079C135.615 414.082 135.62 414.085 135.626 414.086C135.631 414.087 135.636 414.088 135.642 414.087C135.647 414.086 135.652 414.084 135.657 414.082V414.081Z" fill="#709E3E"/>
<path d="M135.657 413.722C136.429 412.427 137.28 411.181 138.208 409.993C139.601 408.448 141.249 408.076 143.269 408.145C143.34 408.145 143.356 408.029 143.286 408.018C139.129 407.368 137.492 410.683 135.619 413.696C135.616 413.702 135.616 413.707 135.618 413.713C135.62 413.718 135.624 413.723 135.629 413.725C135.633 413.728 135.639 413.729 135.645 413.728C135.65 413.727 135.655 413.724 135.659 413.72L135.657 413.722Z" fill="#709E3E"/>
<path d="M136.698 414.259C139.818 414.102 145.073 413.452 144.205 409.049C144.2 409.035 144.191 409.024 144.179 409.016C144.167 409.009 144.153 409.006 144.139 409.008C144.125 409.01 144.112 409.016 144.102 409.027C144.092 409.037 144.086 409.05 144.085 409.064C144.101 410.429 143.877 411.852 142.718 412.729C141.17 413.901 138.547 414.049 136.698 414.176C136.645 414.176 136.644 414.264 136.698 414.258L136.698 414.259Z" fill="#709E3E"/>
<path d="M135.982 414.142C137.591 413.614 139.302 413.297 140.855 412.605C142.386 411.924 143.035 410.595 143.806 409.183C143.811 409.174 143.813 409.162 143.81 409.152C143.807 409.141 143.8 409.132 143.791 409.126C143.781 409.12 143.77 409.119 143.759 409.122C143.748 409.124 143.739 409.131 143.734 409.141C142.699 410.856 141.88 412.1 139.921 412.83C138.625 413.313 137.27 413.621 135.964 414.061C135.916 414.078 135.936 414.155 135.985 414.139L135.982 414.142Z" fill="#709E3E"/>
<path d="M160.846 397.461C162.374 397.852 163.766 398.652 164.873 399.775C164.878 399.78 164.885 399.783 164.892 399.783C164.9 399.783 164.907 399.78 164.912 399.775C164.917 399.77 164.92 399.763 164.92 399.756C164.92 399.749 164.917 399.742 164.912 399.736C163.837 398.558 162.419 397.748 160.858 397.421C160.852 397.42 160.847 397.421 160.843 397.424C160.838 397.427 160.835 397.431 160.833 397.436C160.832 397.441 160.833 397.446 160.835 397.451C160.837 397.456 160.841 397.46 160.846 397.461Z" fill="#709E3E"/>
<path d="M160.253 397.903C160.336 398.111 160.472 398.293 160.646 398.433C160.821 398.573 161.028 398.666 161.249 398.702C162.198 399.018 163.159 399.318 164.127 399.563C164.131 399.564 164.135 399.565 164.139 399.564C164.143 399.564 164.147 399.562 164.151 399.56C164.154 399.558 164.158 399.556 164.16 399.552C164.163 399.549 164.164 399.546 164.166 399.542C164.167 399.538 164.167 399.534 164.166 399.53C164.166 399.525 164.165 399.522 164.163 399.518C164.161 399.514 164.158 399.511 164.155 399.509C164.152 399.506 164.148 399.504 164.144 399.503C163.528 399.279 162.913 399.087 162.285 398.898C161.657 398.709 160.596 398.569 160.334 397.88C160.315 397.829 160.233 397.85 160.252 397.903H160.253Z" fill="#709E3E"/>
<path d="M160.873 397.188C161.738 397.042 162.627 397.202 163.386 397.64C164.145 398.079 164.729 398.768 165.035 399.59C165.049 399.622 165.098 399.599 165.089 399.568C164.814 398.704 164.228 397.973 163.444 397.518C162.66 397.062 161.735 396.915 160.849 397.104C160.791 397.115 160.816 397.201 160.873 397.192L160.873 397.188Z" fill="#709E3E"/>
<path d="M168.376 407.597C170.251 406.342 172.054 404.958 173.854 403.593C173.857 403.591 173.859 403.588 173.86 403.584C173.861 403.58 173.86 403.576 173.858 403.572C173.856 403.569 173.853 403.566 173.849 403.565C173.845 403.564 173.841 403.564 173.838 403.566C171.903 404.733 170.216 406.285 168.356 407.562C168.334 407.577 168.356 407.611 168.376 407.596V407.597Z" fill="#709E3E"/>
<path d="M168.863 407.523C170.941 407.206 173.302 405.911 174.126 403.874C174.127 403.868 174.126 403.861 174.123 403.855C174.12 403.849 174.115 403.845 174.109 403.842C174.103 403.84 174.097 403.84 174.09 403.841C174.084 403.843 174.079 403.847 174.075 403.853C173.556 404.83 172.812 405.671 171.904 406.305C170.997 406.939 169.952 407.348 168.856 407.499C168.84 407.499 168.847 407.526 168.862 407.523H168.863Z" fill="#709E3E"/>
<path d="M168.283 407.331C168.794 406.343 169.499 405.469 170.357 404.762C171.215 404.055 172.207 403.529 173.274 403.217C173.281 403.215 173.288 403.21 173.291 403.203C173.295 403.197 173.296 403.189 173.294 403.182C173.292 403.174 173.287 403.168 173.281 403.164C173.274 403.16 173.266 403.159 173.259 403.161C172.171 403.446 171.157 403.963 170.288 404.676C169.418 405.39 168.714 406.284 168.223 407.296C168.219 407.304 168.218 407.313 168.221 407.322C168.223 407.33 168.229 407.337 168.237 407.342C168.244 407.346 168.254 407.348 168.262 407.346C168.271 407.344 168.278 407.339 168.283 407.331Z" fill="#709E3E"/>
<path d="M169.269 407.599C170.713 407.712 172.155 407.351 173.375 406.571C173.785 406.341 174.099 405.973 174.262 405.532C174.425 405.092 174.427 404.607 174.266 404.166C174.253 404.135 174.203 404.157 174.212 404.189C175.113 406.942 171.055 407.516 169.269 407.561C169.264 407.561 169.259 407.563 169.256 407.566C169.252 407.57 169.25 407.575 169.25 407.58C169.25 407.585 169.252 407.59 169.256 407.593C169.259 407.597 169.264 407.599 169.269 407.599Z" fill="#709E3E"/>
<path d="M168.12 406.948C168.727 404.506 170.307 402.519 173.053 402.692C173.108 402.692 173.105 402.614 173.053 402.609C170.303 402.297 168.609 404.505 168.057 406.931C168.056 406.939 168.057 406.947 168.062 406.954C168.066 406.961 168.073 406.966 168.08 406.969C168.088 406.971 168.097 406.97 168.104 406.966C168.111 406.963 168.117 406.956 168.12 406.949V406.948Z" fill="#709E3E"/>
<path d="M173.778 413.634C175.642 414.853 177.309 416.35 178.72 418.074C178.741 418.098 178.775 418.063 178.755 418.039C177.361 416.294 175.685 414.794 173.798 413.599C173.794 413.598 173.789 413.598 173.784 413.599C173.78 413.601 173.776 413.604 173.774 413.608C173.771 413.612 173.77 413.617 173.771 413.622C173.772 413.626 173.774 413.631 173.778 413.634Z" fill="#709E3E"/>
<path d="M174.005 413.489C175.145 413.653 176.211 414.149 177.072 414.913C177.933 415.678 178.551 416.679 178.85 417.792C178.852 417.799 178.857 417.805 178.863 417.809C178.87 417.813 178.878 417.814 178.886 417.812C178.893 417.81 178.899 417.805 178.903 417.798C178.907 417.791 178.908 417.783 178.906 417.776C178.627 416.643 178.009 415.622 177.136 414.849C176.262 414.077 175.173 413.589 174.015 413.451C173.991 413.451 173.98 413.484 174.005 413.489Z" fill="#709E3E"/>
<path d="M174.488 413.347C175.082 413.27 175.686 413.316 176.262 413.482C176.838 413.649 177.373 413.932 177.835 414.315C178.198 414.687 178.476 415.133 178.651 415.622C178.826 416.112 178.892 416.633 178.847 417.151C178.847 417.159 178.85 417.167 178.856 417.173C178.862 417.179 178.87 417.182 178.878 417.182C178.886 417.182 178.894 417.179 178.9 417.173C178.906 417.167 178.909 417.159 178.909 417.151C178.971 416.623 178.912 416.088 178.736 415.587C178.559 415.085 178.27 414.631 177.891 414.258C177.422 413.871 176.876 413.587 176.29 413.424C175.704 413.26 175.09 413.222 174.489 413.311C174.467 413.311 174.466 413.349 174.489 413.346L174.488 413.347Z" fill="#709E3E"/>
<path d="M173.603 413.66C172.186 415.678 177.262 417.808 178.564 418.086C178.572 418.087 178.581 418.085 178.588 418.08C178.595 418.076 178.6 418.068 178.603 418.06C178.605 418.052 178.604 418.043 178.601 418.035C178.597 418.027 178.591 418.021 178.583 418.018C177.352 417.674 172.367 415.683 173.647 413.686C173.665 413.658 173.621 413.634 173.603 413.66Z" fill="#709E3E"/>
<path d="M173.037 413.862C172.837 414 172.671 414.181 172.55 414.392C172.429 414.604 172.358 414.839 172.34 415.082C172.323 415.324 172.36 415.568 172.449 415.794C172.538 416.02 172.677 416.224 172.855 416.389C173.952 417.651 176.028 418.097 177.616 418.091C177.626 418.091 177.636 418.086 177.644 418.079C177.651 418.072 177.655 418.062 177.655 418.051C177.655 418.041 177.651 418.03 177.644 418.023C177.636 418.016 177.626 418.011 177.616 418.011C176.632 417.981 175.66 417.79 174.737 417.447C173.548 416.979 171.044 415.24 173.062 413.903C173.065 413.901 173.067 413.899 173.069 413.897C173.071 413.894 173.072 413.891 173.073 413.888C173.074 413.885 173.074 413.882 173.074 413.879C173.073 413.876 173.072 413.873 173.07 413.87C173.069 413.867 173.067 413.865 173.064 413.863C173.062 413.861 173.059 413.86 173.056 413.859C173.053 413.858 173.049 413.858 173.046 413.859C173.043 413.859 173.04 413.86 173.037 413.862Z" fill="#709E3E"/>
<path d="M100.119 440.301H91.3023V613.786H100.119V440.301Z" fill="#4C2311"/>
<path d="M462.955 440.301H454.137V613.786H462.955V440.301Z" fill="#4C2311"/>
<path d="M480.841 435.247H73.4142V442.9H480.841V435.247Z" fill="#4C2311"/>
<path d="M485.115 433.718H69.1411V437.148H485.115V433.718Z" fill="#66341B"/>
<path d="M229.343 431.947H141.411V433.718H229.343V431.947Z" fill="#525252"/>
<path d="M225.629 429.663C225.629 429.663 190.87 427.604 185.76 431.193C178.748 427.996 145.123 429.663 145.123 429.663V431.95H225.629V429.663Z" fill="#D6D6D6"/>
<path d="M225.629 431.193C222.295 430.929 218.958 430.713 215.62 430.534C212.281 430.354 208.942 430.182 205.6 430.094C202.259 430.006 198.917 429.975 195.575 430.094C193.904 430.158 192.24 430.262 190.588 430.462C189.763 430.557 188.944 430.693 188.133 430.872C187.335 431.025 186.567 431.312 185.865 431.722L185.777 431.782L185.676 431.74C184.901 431.427 184.096 431.191 183.274 431.036C182.447 430.872 181.608 430.755 180.768 430.653C179.084 430.463 177.389 430.36 175.692 430.29C172.299 430.154 168.897 430.165 165.499 430.232C162.101 430.299 158.701 430.434 155.305 430.606C151.908 430.76 148.513 430.955 145.119 431.192C151.895 430.581 158.689 430.152 165.493 429.977C168.895 429.889 172.3 429.855 175.705 429.97C177.407 430.03 179.109 430.121 180.805 430.302C181.654 430.399 182.502 430.512 183.343 430.674C184.196 430.825 185.03 431.066 185.832 431.391L185.645 431.409C186.389 430.974 187.203 430.671 188.051 430.514C188.875 430.338 189.707 430.204 190.544 430.113C192.215 429.922 193.886 429.829 195.562 429.775C198.911 429.678 202.258 429.729 205.602 429.839C212.296 430.06 218.973 430.538 225.629 431.193Z" fill="#A5A5AF"/>
<path d="M225.629 431.193C222.302 431.103 218.976 431.035 215.649 430.988C212.323 430.923 208.996 430.871 205.669 430.849C202.342 430.827 199.015 430.835 195.691 430.909C194.029 430.948 192.368 431.004 190.71 431.103C189.882 431.155 189.053 431.211 188.232 431.305C187.417 431.371 186.611 431.519 185.825 431.745L185.773 431.763L185.72 431.752C184.899 431.614 184.07 431.526 183.239 431.488C182.401 431.432 181.561 431.4 180.721 431.371C179.039 431.315 177.356 431.289 175.673 431.27C172.307 431.239 168.939 431.251 165.57 431.279L145.363 431.57L155.463 431.226L165.568 431.024C168.936 430.974 172.305 430.936 175.676 430.949C177.361 430.956 179.046 430.972 180.731 431.018C181.574 431.041 182.417 431.068 183.261 431.119C184.112 431.15 184.961 431.239 185.8 431.383L185.696 431.39C186.511 431.159 187.347 431.012 188.192 430.95C189.025 430.862 189.857 430.808 190.69 430.762C192.355 430.674 194.019 430.627 195.685 430.598C199.014 430.545 202.343 430.562 205.672 430.598C209 430.634 212.327 430.71 215.654 430.805C218.98 430.916 222.305 431.045 225.629 431.193Z" fill="#A5A5AF"/>
<path d="M355.34 431.947H267.409V433.718H355.34V431.947Z" fill="#525252"/>
<path d="M351.628 429.663C351.628 429.663 316.869 427.604 311.759 431.193C304.747 427.996 271.122 429.663 271.122 429.663V431.95H351.628V429.663Z" fill="#D6D6D6"/>
<path d="M351.628 431.193C348.294 430.929 344.956 430.713 341.618 430.534C338.28 430.354 334.941 430.182 331.599 430.094C328.257 430.006 324.915 429.975 321.574 430.094C319.903 430.158 318.239 430.262 316.587 430.462C315.762 430.557 314.943 430.693 314.132 430.872C313.333 431.025 312.566 431.312 311.863 431.722L311.775 431.782L311.675 431.74C310.9 431.427 310.095 431.191 309.273 431.036C308.446 430.872 307.608 430.755 306.767 430.653C305.084 430.463 303.387 430.36 301.691 430.29C298.297 430.154 294.896 430.165 291.498 430.232C288.1 430.299 284.701 430.434 281.305 430.606C277.904 430.76 274.508 430.955 271.117 431.192C277.893 430.581 284.688 430.152 291.492 429.977C294.893 429.889 298.298 429.855 301.703 429.97C303.406 430.03 305.108 430.121 306.804 430.302C307.653 430.399 308.5 430.512 309.343 430.674C310.195 430.825 311.029 431.066 311.832 431.391L311.644 431.409C312.389 430.974 313.203 430.671 314.05 430.514C314.874 430.338 315.706 430.204 316.543 430.113C318.214 429.922 319.885 429.829 321.561 429.775C324.909 429.678 328.256 429.729 331.601 429.839C338.295 430.06 344.97 430.538 351.628 431.193Z" fill="#A5A5AF"/>
<path d="M351.628 431.193C348.301 431.103 344.974 431.035 341.647 430.988C338.32 430.923 334.994 430.871 331.667 430.849C328.34 430.827 325.013 430.835 321.689 430.909C320.027 430.948 318.366 431.004 316.708 431.103C315.879 431.155 315.051 431.211 314.23 431.305C313.415 431.371 312.608 431.519 311.823 431.745L311.771 431.763L311.718 431.752C310.897 431.614 310.068 431.526 309.236 431.488C308.399 431.432 307.558 431.4 306.719 431.371C305.038 431.315 303.354 431.289 301.671 431.27C298.304 431.239 294.936 431.251 291.568 431.279L271.36 431.57L281.464 431.222L291.568 431.019C294.937 430.969 298.305 430.931 301.676 430.945C303.361 430.952 305.046 430.967 306.732 431.013C307.575 431.037 308.418 431.063 309.261 431.114C310.113 431.146 310.961 431.234 311.801 431.378L311.697 431.385C312.512 431.154 313.349 431.007 314.194 430.945C315.026 430.857 315.858 430.804 316.69 430.757C318.355 430.669 320.021 430.623 321.685 430.594C325.015 430.541 328.344 430.558 331.672 430.594C335 430.63 338.327 430.705 341.653 430.8C344.978 430.914 348.303 431.045 351.628 431.193Z" fill="#A5A5AF"/>
<path d="M397.662 582.27L399.125 591.051H405.819L408.699 590.558L406.591 576.91L397.662 582.27Z" fill="#FFE1BD"/>
<path d="M407.502 579.755C406.862 580.051 406.183 580.31 405.479 580.556C402.643 581.423 399.742 582.065 396.805 582.476C388.802 569.341 368.037 505.362 368.037 505.362C366.127 497.28 378.26 507.629 383.31 507.321C384.893 507.199 386.483 507.43 387.966 507.998C392.794 510.043 399.876 523.707 399.876 523.707C399.876 523.707 402.031 528.426 404.285 538.184C406.539 547.942 407.502 579.755 407.502 579.755Z" fill="#1A1A47"/>
<path opacity="0.54" d="M407.502 579.755C406.862 580.051 406.183 580.31 405.479 580.556C404.975 576.662 404.223 570.453 403.115 560.559C400.639 538.381 386.586 512.987 383.309 507.32C384.892 507.198 386.482 507.429 387.965 507.997C392.793 510.043 399.875 523.706 399.875 523.706C399.875 523.706 402.03 528.425 404.284 538.183C406.538 547.941 407.502 579.755 407.502 579.755Z" fill="#3D3D72"/>
<path d="M398.689 589.773C400.426 589.786 402.153 589.521 403.805 588.988C405.417 588.392 406.886 587.463 408.114 586.26C408.114 586.26 415.219 590.6 415.209 598.393C415.206 598.593 415.142 598.788 415.026 598.951C414.91 599.114 414.747 599.238 414.559 599.307C414.559 599.307 397.523 606.878 391.663 608.949C388.576 609.934 385.438 610.746 382.261 611.381C382.068 611.443 381.859 611.431 381.675 611.348C381.49 611.265 381.343 611.117 381.26 610.932C380.952 610.14 380.799 608.752 382.537 607.418C385.175 605.395 388.066 603.738 390.07 602.06C392.074 600.381 394.123 595.753 395.745 594.436C397.115 593.164 398.13 591.557 398.689 589.773Z" fill="#1A1A47"/>
<path d="M433.976 628.514L436.464 495.469H427.615L430.103 628.514C430.132 629.863 430.999 630.957 432.038 630.957C433.076 630.957 433.946 629.863 433.976 628.514Z" fill="#723E24"/>
<path d="M352.671 612.95L404.054 490.21L395.83 486.945L349.072 611.517C348.602 612.782 349.004 614.118 349.971 614.503C350.937 614.887 352.146 614.194 352.671 612.95Z" fill="#723E24"/>
<path d="M511.408 612.95L460.026 490.21L468.249 486.945L515.007 611.517C515.478 612.782 515.076 614.118 514.11 614.503C513.143 614.887 511.933 614.194 511.408 612.95Z" fill="#723E24"/>
<g style="mix-blend-mode:multiply" opacity="0.3">
<g style="mix-blend-mode:multiply" opacity="0.3">
<path d="M394.402 490.749L399.635 492.827L351.337 614.408C351.943 614.099 352.416 613.581 352.671 612.951L404.054 490.21L395.83 486.945L394.402 490.749Z" fill="black"/>
</g>
<g style="mix-blend-mode:multiply" opacity="0.3">
<path d="M427.681 498.969H434.277L431.81 630.925C431.886 630.942 431.964 630.952 432.043 630.956C433.083 630.956 433.949 629.862 433.978 628.513L436.465 495.468H427.615L427.681 498.969Z" fill="black"/>
</g>
<g style="mix-blend-mode:multiply" opacity="0.3">
<path d="M515.007 611.521L468.249 486.949L460.026 490.215L460.971 492.472L466.059 490.449L512.55 614.304C512.776 614.456 513.035 614.554 513.306 614.588C513.576 614.623 513.851 614.594 514.109 614.503C515.076 614.123 515.475 612.786 515.007 611.521Z" fill="black"/>
</g>
</g>
<path d="M369.721 427.974H288.422L272.328 377.356C272.14 376.763 272.094 376.135 272.194 375.521C272.294 374.907 272.537 374.326 272.904 373.824C273.271 373.322 273.751 372.914 274.306 372.633C274.86 372.351 275.473 372.205 276.094 372.205H349.101C349.94 372.205 350.757 372.472 351.434 372.967C352.111 373.462 352.612 374.16 352.867 374.959L369.721 427.974Z" fill="white"/>
<path d="M368.407 427.974H290.565L274.622 378.291C274.437 377.707 274.394 377.087 274.494 376.483C274.595 375.878 274.837 375.306 275.2 374.813C275.564 374.32 276.039 373.92 276.587 373.646C277.134 373.372 277.739 373.231 278.351 373.235H347.98C348.807 373.233 349.614 373.493 350.285 373.979C350.955 374.465 351.454 375.151 351.709 375.938L368.407 427.974Z" fill="#E1EDF9"/>
<path d="M319.57 382.626H284.102C283.848 382.626 283.605 382.525 283.425 382.346C283.246 382.166 283.145 381.923 283.145 381.669C283.145 381.415 283.246 381.172 283.425 380.992C283.605 380.813 283.848 380.712 284.102 380.712H319.566C319.82 380.712 320.063 380.813 320.243 380.992C320.422 381.172 320.523 381.415 320.523 381.669C320.523 381.922 320.423 382.165 320.244 382.344C320.066 382.524 319.823 382.625 319.57 382.626Z" fill="#C2E0F2"/>
<path d="M325.062 387.051H285.516C285.262 387.051 285.019 386.95 284.839 386.77C284.66 386.591 284.559 386.347 284.559 386.093C284.559 385.968 284.584 385.843 284.632 385.727C284.68 385.611 284.751 385.505 284.839 385.417C284.928 385.328 285.034 385.257 285.15 385.209C285.266 385.161 285.39 385.136 285.516 385.136H325.062C325.188 385.136 325.312 385.161 325.428 385.209C325.545 385.257 325.65 385.328 325.739 385.417C325.828 385.505 325.898 385.611 325.946 385.727C325.994 385.843 326.019 385.968 326.019 386.093C326.019 386.347 325.918 386.591 325.739 386.77C325.559 386.95 325.316 387.051 325.062 387.051Z" fill="#C2E0F2"/>
<path d="M321.399 391.475H286.955C286.829 391.475 286.705 391.45 286.589 391.402C286.473 391.354 286.367 391.283 286.278 391.194C286.189 391.106 286.119 391 286.071 390.884C286.023 390.768 285.998 390.643 285.998 390.518C285.998 390.264 286.099 390.02 286.278 389.841C286.458 389.661 286.701 389.56 286.955 389.56H321.398C321.652 389.56 321.895 389.661 322.074 389.841C322.254 390.02 322.355 390.264 322.355 390.518C322.355 390.771 322.254 391.015 322.075 391.194C321.895 391.374 321.652 391.475 321.399 391.475Z" fill="#C2E0F2"/>
<path d="M315.658 395.899H288.358C288.105 395.899 287.861 395.798 287.682 395.619C287.502 395.439 287.402 395.196 287.402 394.942C287.402 394.688 287.502 394.445 287.682 394.265C287.861 394.086 288.105 393.985 288.358 393.985H315.658C315.912 393.985 316.155 394.086 316.334 394.265C316.514 394.445 316.615 394.688 316.615 394.942C316.615 395.196 316.514 395.439 316.334 395.619C316.155 395.798 315.912 395.899 315.658 395.899Z" fill="#C2E0F2"/>
<path d="M329.35 400.322H289.804C289.678 400.322 289.554 400.298 289.438 400.249C289.322 400.201 289.216 400.131 289.128 400.042C289.039 399.953 288.968 399.848 288.92 399.731C288.872 399.615 288.847 399.491 288.847 399.365C288.847 399.111 288.948 398.868 289.128 398.688C289.307 398.509 289.55 398.408 289.804 398.408H329.35C329.604 398.408 329.847 398.509 330.027 398.688C330.206 398.868 330.307 399.111 330.307 399.365C330.307 399.491 330.283 399.615 330.235 399.732C330.186 399.848 330.116 399.953 330.027 400.042C329.938 400.131 329.833 400.202 329.717 400.25C329.6 400.298 329.476 400.322 329.35 400.322Z" fill="#C2E0F2"/>
<path d="M325.663 404.748H291.22C291.094 404.748 290.97 404.724 290.854 404.676C290.738 404.627 290.632 404.557 290.543 404.468C290.454 404.379 290.384 404.274 290.336 404.157C290.288 404.041 290.263 403.917 290.263 403.791C290.263 403.665 290.288 403.541 290.336 403.425C290.384 403.309 290.454 403.203 290.543 403.114C290.632 403.025 290.738 402.955 290.854 402.907C290.97 402.859 291.094 402.834 291.22 402.834H325.663C325.917 402.834 326.16 402.935 326.339 403.114C326.519 403.294 326.62 403.537 326.62 403.791C326.62 404.045 326.519 404.289 326.339 404.468C326.16 404.648 325.917 404.748 325.663 404.748Z" fill="#C2E0F2"/>
<path d="M333.588 413.595H294.039C293.914 413.595 293.789 413.57 293.673 413.522C293.557 413.474 293.452 413.404 293.363 413.315C293.274 413.226 293.203 413.12 293.155 413.004C293.107 412.888 293.083 412.764 293.083 412.638C293.083 412.512 293.107 412.388 293.155 412.272C293.203 412.156 293.274 412.05 293.363 411.961C293.452 411.872 293.557 411.802 293.673 411.754C293.789 411.706 293.914 411.681 294.039 411.681H333.586C333.711 411.681 333.836 411.706 333.952 411.754C334.068 411.802 334.173 411.872 334.262 411.961C334.351 412.05 334.421 412.156 334.47 412.272C334.518 412.388 334.542 412.512 334.542 412.638C334.542 412.891 334.442 413.134 334.263 413.314C334.084 413.493 333.842 413.594 333.588 413.595Z" fill="#C2E0F2"/>
<path d="M335.028 418.019H295.482C295.228 418.019 294.984 417.919 294.805 417.739C294.626 417.56 294.525 417.316 294.525 417.062C294.525 416.808 294.626 416.565 294.805 416.385C294.984 416.206 295.228 416.105 295.482 416.105H335.028C335.154 416.105 335.279 416.129 335.395 416.177C335.512 416.225 335.618 416.296 335.707 416.385C335.796 416.475 335.867 416.581 335.915 416.697C335.963 416.814 335.988 416.939 335.987 417.065C335.987 417.191 335.962 417.315 335.913 417.431C335.865 417.547 335.794 417.652 335.705 417.741C335.616 417.83 335.51 417.9 335.394 417.948C335.278 417.995 335.153 418.02 335.028 418.019Z" fill="#C2E0F2"/>
<path d="M356.056 418.019H343.286C342.706 418.02 342.141 417.835 341.673 417.492C341.205 417.149 340.859 416.666 340.684 416.112L330.035 382.393C329.905 381.984 329.873 381.55 329.943 381.127C330.012 380.703 330.18 380.302 330.434 379.956C330.688 379.61 331.019 379.328 331.402 379.135C331.785 378.941 332.208 378.84 332.637 378.841H345.411C345.991 378.84 346.556 379.025 347.024 379.368C347.492 379.711 347.839 380.194 348.013 380.748L358.662 414.467C358.792 414.876 358.823 415.31 358.754 415.734C358.684 416.158 358.516 416.559 358.262 416.906C358.008 417.252 357.676 417.533 357.292 417.727C356.909 417.92 356.486 418.021 356.056 418.019Z" fill="#C2E0F2"/>
<path d="M376.534 431.658H288.124C287.43 431.658 286.765 431.382 286.275 430.891C285.784 430.401 285.509 429.735 285.509 429.042C285.509 428.348 285.784 427.683 286.275 427.192C286.765 426.701 287.43 426.426 288.124 426.425H376.534C377.228 426.425 377.893 426.701 378.384 427.192C378.874 427.682 379.15 428.348 379.15 429.042C379.15 429.736 378.874 430.401 378.384 430.892C377.893 431.382 377.228 431.658 376.534 431.658Z" fill="white"/>
<path d="M402.061 361.719C401.669 361.72 401.283 361.618 400.943 361.422C400.604 361.226 400.322 360.944 400.126 360.604L397.186 355.429C397.039 355.171 396.945 354.887 396.911 354.592C396.876 354.298 396.901 353.999 396.984 353.715C397.067 353.43 397.206 353.165 397.394 352.935C397.581 352.706 397.813 352.516 398.075 352.378L406.262 348.052C406.777 347.783 407.377 347.726 407.933 347.894C408.489 348.062 408.958 348.441 409.238 348.95L412.032 354.082C412.171 354.337 412.259 354.618 412.289 354.907C412.32 355.196 412.294 355.489 412.211 355.768C412.129 356.047 411.993 356.307 411.81 356.533C411.627 356.759 411.401 356.947 411.145 357.085L403.107 361.453C402.786 361.628 402.426 361.719 402.061 361.719ZM407.293 348.818C407.1 348.818 406.91 348.865 406.74 348.956L398.554 353.281C398.413 353.355 398.288 353.457 398.187 353.581C398.086 353.705 398.011 353.847 397.966 354.001C397.921 354.154 397.908 354.315 397.927 354.473C397.945 354.632 397.996 354.785 398.075 354.924L401.016 360.099C401.172 360.369 401.427 360.568 401.726 360.653C402.026 360.738 402.347 360.704 402.622 360.556L410.661 356.188C410.938 356.037 411.144 355.782 411.234 355.478C411.323 355.175 411.289 354.849 411.137 354.571L408.344 349.44C408.241 349.251 408.089 349.094 407.904 348.985C407.719 348.875 407.508 348.818 407.293 348.818Z" fill="#1A1A47"/>
<path d="M368.509 415.217C368.186 415.636 367.842 416.039 367.478 416.423C367.478 416.423 363.192 413.175 361.998 412.869C360.803 412.563 358.263 413.512 356.809 413.594C355.355 413.676 355.238 412.817 355.238 412.817C355.238 412.817 349.706 415.125 348.819 415.34C347.931 415.554 347.328 415.258 347.88 413.849C348.151 413.34 348.495 412.872 348.901 412.461L348.911 412.451C350.799 410.316 354.688 406.908 356.085 406.232C357.871 405.385 360.3 404.15 362.249 404.875C364.198 405.6 370.546 410.358 370.546 410.358C370.734 411.99 369.468 413.986 368.509 415.217Z" fill="#FFE1BD"/>
<path d="M369.826 410.643L368.507 415.217C368.184 415.636 367.84 416.039 367.476 416.423C367.476 416.423 363.19 413.175 361.996 412.869C360.802 412.563 358.261 413.512 356.807 413.594C355.354 413.676 355.237 412.817 355.237 412.817C355.237 412.817 349.704 415.125 348.817 415.34C347.93 415.554 347.326 415.258 347.878 413.849C348.149 413.34 348.493 412.872 348.899 412.461C348.43 413.11 347.909 413.781 348.217 414.606C348.592 415.613 354.529 412.781 358.818 410.194C358.885 410.154 359.229 409.983 359.345 410.183C359.343 410.275 359.321 410.366 359.28 410.449C359.24 410.532 359.181 410.605 359.11 410.664C358.395 411.432 354.801 411.702 355.528 412.849C356.553 414.463 360.243 411.501 362.263 412.165C363.879 412.808 365.409 413.652 366.815 414.676C366.815 414.676 367.979 411.235 369.826 410.643Z" fill="#FFD19F"/>
<path d="M366.826 416.424C366.826 416.424 387.854 434.823 403.586 436.695C419.318 438.567 445.855 408.707 445.855 408.707C445.855 408.707 444.184 392.799 434.374 394.669C424.564 396.539 411.412 420.192 405.714 421.299C400.016 422.406 370.388 409.844 370.388 409.844C369.639 410.473 369.017 411.24 368.555 412.102C367.811 413.47 367.231 414.921 366.826 416.424Z" fill="#006466"/>
<path d="M438.371 325.752C432.617 319.162 424.111 318.45 417.546 319.18C413.31 319.598 409.29 321.249 405.984 323.929C402.677 326.61 400.23 330.202 398.943 334.26C397.707 338.331 397.844 342.696 399.335 346.681C404.693 361.484 410.305 370.928 415.536 373.736C417.532 374.807 421.35 374.093 425.428 372.66C425.687 372.567 425.97 372.57 426.227 372.668C426.484 372.766 426.697 372.953 426.828 373.195L428.549 376.416L443.687 373.141C442.44 370.352 441.442 367.458 440.707 364.493C442.906 361.714 448.904 337.807 438.371 325.752Z" fill="#FFE1BD"/>
<path d="M407.779 346.872C408.691 346.783 409.607 346.985 410.397 347.449C411.187 347.913 411.81 348.615 412.176 349.455C413.42 352.418 415.342 356.564 416.853 357.912C417.099 358.073 417.387 358.161 417.682 358.164C417.977 358.166 418.267 358.084 418.517 357.927C418.761 357.816 418.965 357.633 419.101 357.401C419.237 357.17 419.298 356.902 419.276 356.635C418.867 354.621 418.282 352.647 417.527 350.735C417.287 350.182 417.176 349.582 417.202 348.979C417.228 348.377 417.391 347.788 417.679 347.258C417.966 346.728 418.37 346.27 418.861 345.92C419.351 345.569 419.915 345.335 420.509 345.234C421.332 345.133 422.167 345.184 422.972 345.387C427.447 346.745 424.364 353.765 424.273 357.433C424.21 360.018 427.303 366.009 428.67 366.547C433.167 368.312 439.981 366.718 443.596 362.25C447.21 357.783 447.993 342.853 446.019 333.923C444.046 324.992 436.898 319.949 434.539 319.374C433.624 319.141 432.677 319.065 431.738 319.149C431.382 319.182 431.024 319.142 430.684 319.031C430.345 318.921 430.032 318.741 429.764 318.504C427.385 316.433 420.276 311.701 409.029 316.559C404.131 318.576 399.963 322.037 397.08 326.483C394.197 330.929 392.736 336.148 392.892 341.444C393.058 345.26 396.054 344.978 398.13 344.313C398.695 344.141 399.294 344.117 399.872 344.242C400.449 344.367 400.984 344.637 401.428 345.027C402.307 345.748 403.323 346.284 404.414 346.601C405.506 346.918 406.651 347.011 407.779 346.872Z" fill="#0B0B3A"/>
<path d="M428.081 378.841C428.081 378.841 426.779 377.389 427.273 376.501C427.889 375.4 434.53 370.142 442.284 370.418C443.489 370.461 444.962 370.461 446.408 373.609C447.214 375.274 447.814 377.031 448.194 378.842H428.081V378.841Z" fill="#007D87"/>
<path d="M457.593 506.056C457.124 506.168 456.614 506.28 456.082 506.383C449.5 507.608 438.794 507.751 438.794 507.751C417.688 507.373 407.021 487.704 403.592 481.834C402.931 480.738 402.368 479.587 401.908 478.393C403.113 477.75 417.449 470.017 416.682 443.609C416.523 438.137 416.6 425.886 413.876 421.128C412.376 418.515 407.936 413.216 405.15 407.632C402.864 403.037 401.681 398.25 404.183 394.594C410.388 385.478 420.175 380.627 420.175 380.627C420.175 380.627 438.137 373.43 453.435 375.063C463.141 376.084 471.784 380.657 474.091 392.879C480.04 424.354 457.593 506.056 457.593 506.056Z" fill="#007D87"/>
<path opacity="0.18" d="M422.552 436.697C425.161 462.677 407.481 479.036 403.592 481.834C402.931 480.738 402.368 479.587 401.908 478.393C403.113 477.75 416.594 466.045 416.682 443.609C416.705 438.135 416.6 425.886 413.876 421.128C412.376 418.515 407.936 413.216 405.15 407.632L406.334 407.173L413.539 405.978L417.193 408.96C417.193 408.96 420.863 419.868 422.552 436.697Z" fill="#00B3B7"/>
<path opacity="0.45" d="M457.593 506.056C457.124 506.168 456.614 506.28 456.082 506.383C457.43 499.287 465.957 454.727 468.733 438.566C474.213 406.661 468.509 390.501 465.293 384.711C462.695 380.032 457.691 377.555 453.435 375.063C463.14 376.084 471.783 380.657 474.09 392.879C480.04 424.354 457.593 506.056 457.593 506.056Z" fill="#00B3B7"/>
<path d="M354.042 601.261C352.442 601.889 350.74 602.217 349.022 602.229C345.923 602.229 345.022 601.07 345.022 601.07V594L355.231 592.686L354.042 601.261Z" fill="#FFE1BD"/>
<path d="M434.252 502.393C434.19 506.989 432.971 514.32 426.087 516.39C415.815 519.469 408.227 517.721 396.318 515.663C386.342 513.95 360.069 508.293 355.241 506.458C355.101 506.403 354.949 506.387 354.801 506.412C354.652 506.437 354.513 506.501 354.399 506.598C354.284 506.695 354.197 506.822 354.148 506.964C354.099 507.106 354.089 507.259 354.12 507.406C356.398 518.544 358.22 523.358 359.696 540.073C360.937 554.115 355.544 593.863 355.544 593.863C354.428 594.196 353.292 594.461 352.144 594.655C351.496 594.76 350.842 594.819 350.185 594.831C348.276 594.793 346.372 594.633 344.483 594.35C344.483 594.35 333.83 535.813 332.39 512.094C330.949 488.375 333.215 486.417 343.992 481.391C354.768 476.365 402.943 478.224 402.943 478.224L402.955 478.236C403.091 478.655 405.8 486.06 413.794 492.763C419.699 497.637 426.734 500.949 434.252 502.393Z" fill="#3D3D72"/>
<path d="M404.955 482.317C404.176 481.014 403.507 479.647 402.956 478.232L402.944 478.22C402.944 478.22 402.386 478.198 401.42 478.168C402.503 479.63 403.684 481.016 404.955 482.317Z" fill="#33305B"/>
<path d="M427.611 500.547C426.644 504.027 424.56 507.418 420.224 508.722C409.953 511.801 402.365 510.053 390.456 507.995C380.48 506.283 354.206 500.625 349.378 498.789C349.238 498.735 349.086 498.719 348.938 498.744C348.79 498.769 348.651 498.833 348.536 498.93C348.422 499.027 348.335 499.153 348.286 499.295C348.237 499.437 348.227 499.59 348.258 499.737C350.536 510.876 352.358 515.69 353.834 532.404C354.801 543.338 354.389 578.984 354.159 594.233C354.965 594.035 355.545 593.862 355.545 593.862C355.545 593.862 360.938 554.114 359.697 540.072C358.22 523.357 356.398 518.544 354.12 507.406C354.089 507.259 354.099 507.106 354.148 506.964C354.197 506.822 354.284 506.695 354.399 506.598C354.513 506.501 354.652 506.437 354.8 506.412C354.949 506.387 355.101 506.402 355.241 506.457C360.069 508.293 386.342 513.95 396.318 515.662C408.228 517.72 415.815 519.47 426.087 516.39C432.971 514.32 434.19 506.989 434.252 502.393C432 501.926 429.781 501.309 427.611 500.547Z" fill="#33305B"/>
<path d="M344.848 600.081C346.47 600.702 348.181 601.058 349.915 601.137C351.635 601.141 353.335 600.781 354.906 600.081C354.906 600.081 360.047 606.631 357.316 613.929C357.242 614.116 357.115 614.276 356.949 614.388C356.783 614.5 356.587 614.56 356.387 614.558H321.91C321.707 614.561 321.512 614.484 321.366 614.344C321.22 614.204 321.134 614.013 321.128 613.811C321.116 612.961 321.458 611.607 323.552 610.965C326.733 609.99 330.018 609.451 332.481 608.578C334.944 607.705 338.48 604.086 340.461 603.418C342.188 602.706 343.701 601.556 344.848 600.081Z" fill="#1A1A47"/>
<path d="M329.208 427.207C329.208 427.207 326.14 426.405 324.547 426.08C323.984 425.968 323.415 425.885 322.844 425.831C322.169 425.774 321.49 425.796 320.821 425.894L304.337 428.176C304.108 428.205 303.877 428.142 303.694 428.002C303.51 427.861 303.39 427.654 303.358 427.426C303.313 427.11 303.348 426.789 303.46 426.49C303.571 426.192 303.757 425.927 303.998 425.719L305.609 424.332L310.423 420.181C312.807 418.129 314.696 417.762 317.848 417.605C318.993 417.766 320.128 417.996 321.247 418.294C324.477 418.886 325.213 419.262 327.366 419.701C327.959 419.835 328.561 419.931 329.167 419.988C329.405 420.03 329.65 420.021 329.884 419.961C330.578 422.376 330.336 424.963 329.208 427.207Z" fill="#FFE1BD"/>
<path d="M354.372 428.846C354.362 428.862 354.347 428.873 354.328 428.878C354.31 428.883 354.291 428.881 354.274 428.873C353.852 428.697 351.276 427.641 349.877 427.141C349.36 426.96 348.872 426.823 348.449 426.717C347.711 426.55 346.958 426.46 346.202 426.446H329.656C329.408 426.452 329.168 426.358 328.989 426.187C328.81 426.016 328.706 425.78 328.7 425.532C328.705 425.22 328.786 424.913 328.938 424.64C329.089 424.367 329.305 424.135 329.568 423.966L331.354 422.812C329.664 424.097 329.392 425.063 330.239 425.166C330.916 425.247 332.519 425.07 336.581 423.938C336.669 423.913 336.708 424.056 336.627 424.106C336.421 424.197 336.255 424.362 336.163 424.568C336.071 424.774 336.059 425.007 336.129 425.222C336.199 425.437 336.347 425.617 336.544 425.729C336.74 425.84 336.971 425.875 337.191 425.825C337.874 425.792 340.775 425.608 341.443 425.57C344.037 425.422 347.818 425.177 348.544 425.306C349.814 425.535 351.041 425.96 352.18 426.566C352.89 426.936 353.567 426.126 353.825 425.368C354.235 424.128 354.722 422.915 355.285 421.736C355.516 421.811 355.759 421.836 356 421.808C356.348 424.275 355.768 426.783 354.372 428.846Z" fill="#F4F4F4"/>
<path d="M419.509 389.121C417.328 387.789 410.731 384.124 402.226 397.39C393.722 410.657 386.918 420.616 383.942 422.4C380.965 424.184 373.652 422.91 371.014 422.91C368.376 422.91 329.781 419.898 329.781 419.898C328.708 422.259 327.977 424.763 327.613 427.331C327.613 427.331 362.977 436.608 384.898 436.692C406.818 436.776 423.487 403.597 424.252 399.597C425.017 395.598 424.72 392.304 419.509 389.121Z" fill="#007D87"/>
<path d="M398.351 358.222C398.235 358.224 398.122 358.186 398.031 358.115C397.939 358.044 397.875 357.944 397.848 357.831C397.821 357.719 397.833 357.6 397.882 357.496C397.931 357.391 398.014 357.306 398.118 357.254L417.134 347.504C419.286 346.401 423.691 344.144 426.961 348.943C427.037 349.054 427.066 349.192 427.041 349.325C427.015 349.458 426.938 349.576 426.827 349.652C426.715 349.728 426.577 349.757 426.444 349.732C426.311 349.707 426.194 349.63 426.117 349.518C423.567 345.775 420.528 346.91 417.635 348.395L398.584 358.16C398.512 358.199 398.432 358.22 398.351 358.222Z" fill="#1A1A47"/>
<path d="M417.45 348.723L419.746 356.061C419.982 356.296 420.267 356.478 420.579 356.594C420.892 356.71 421.226 356.757 421.559 356.733C421.891 356.709 422.215 356.613 422.507 356.453C422.8 356.293 423.055 356.072 423.255 355.805C424.977 353.822 426.475 346.936 423.318 345.788C420.161 344.64 418.247 346.266 417.45 348.723Z" fill="#FFE1BD"/>
<path d="M503.882 454.987C503.882 417.931 503.011 391.821 479.547 387.891C447.624 382.546 422.649 410.198 427.761 463.179C430.689 493.536 418.246 503.956 407.648 509.884C400.796 513.718 387.531 512.896 387.531 512.896C387.531 512.896 381.388 512.167 377.264 511.778C379.815 512.955 434.475 539.901 473.479 519.992C508.051 502.345 503.882 476.788 503.882 454.987Z" fill="#E8F6F7"/>
<path d="M503.882 454.987C503.882 417.931 503.01 391.821 479.547 387.891C478.419 387.702 477.301 387.559 476.192 387.451C450.614 389.984 433.855 416.931 438.317 463.197C441.246 493.554 428.802 503.973 418.204 509.903C411.352 513.737 398.088 512.914 398.088 512.914C398.088 512.914 397.777 512.816 397.208 512.645C393.994 512.966 390.761 513.051 387.535 512.898C387.535 512.898 381.391 512.17 377.268 511.781C379.818 512.958 434.479 539.904 473.482 519.994C508.051 502.345 503.882 476.788 503.882 454.987Z" fill="#D0E0E2"/>
</g>
<defs>
<radialGradient id="paint0_radial" cx="0" cy="0" r="1" gradientUnits="userSpaceOnUse" gradientTransform="translate(542.667 481.992) rotate(-150.452) scale(507.246 503.947)">
<stop stop-color="#0082F4"/>
<stop offset="1" stop-color="#00BFD8"/>
</radialGradient>
<clipPath id="clip0">
<rect width="559" height="524" fill="white" transform="translate(-7.62939e-06 106.958)"/>
</clipPath>
</defs>
</svg>
