<svg width="593" height="574" viewBox="0 0 593 574" fill="none" xmlns="http://www.w3.org/2000/svg">
<path fill-rule="evenodd" clip-rule="evenodd" d="M537.598 208.535C553.945 258.361 562.159 311.314 547.557 361.679C531.263 417.877 507.396 484.943 451.998 503.779C396.209 522.747 346.658 457.21 288.193 449.864C229.765 442.523 166.602 492.134 116.254 461.593C65.5258 430.822 43.1436 362.135 45.8577 302.866C48.3725 247.952 97.7667 210.296 129.807 165.627C155.046 130.441 175.872 92.3765 212.92 69.9597C251.103 46.8563 295.309 34.1571 339.714 38.6194C384.846 43.1547 425.581 65.2382 459.995 94.7881C495.691 125.44 522.93 163.829 537.598 208.535Z" fill="url(#paint0_radial)"/>
<g clip-path="url(#clip0)">
<path opacity="0.15" d="M255.256 424C357.84 424 441 420.15 441 415.401C441 410.652 357.84 406.803 255.256 406.803C152.673 406.803 69.5127 410.652 69.5127 415.401C69.5127 420.15 152.673 424 255.256 424Z" fill="#2C2A40"/>
<path d="M357.202 340.685H416.732C419.674 340.685 422.059 338.297 422.059 335.351V330.837C422.059 327.891 419.674 325.503 416.732 325.503H357.202C354.26 325.503 351.875 327.891 351.875 330.837V335.351C351.875 338.297 354.26 340.685 357.202 340.685Z" fill="#63676D"/>
<path d="M412.751 232.09L425.625 233.596C427.587 233.826 429.48 234.456 431.188 235.448C432.896 236.44 434.383 237.772 435.556 239.363C436.729 240.953 437.563 242.767 438.008 244.694C438.452 246.62 438.497 248.617 438.139 250.561L425.488 319.315C424.86 322.727 423.026 325.799 420.321 327.969C417.617 330.139 414.222 331.262 410.758 331.132L379.375 329.971C377.259 329.893 375.186 329.349 373.304 328.379C371.422 327.409 369.776 326.036 368.483 324.357C367.19 322.679 366.282 320.736 365.823 318.666C365.364 316.597 365.366 314.452 365.828 312.383L381.262 243.285C381.978 240.08 383.762 237.216 386.322 235.163C388.881 233.11 392.063 231.992 395.342 231.991H411.076C411.636 231.992 412.195 232.025 412.751 232.09Z" fill="#63676D"/>
<path d="M407.099 241.876L417.427 243.09C419 243.275 420.519 243.78 421.889 244.576C423.26 245.371 424.452 246.44 425.393 247.716C426.335 248.992 427.004 250.447 427.361 251.993C427.717 253.538 427.753 255.14 427.466 256.7L417.312 311.856C416.809 314.592 415.338 317.056 413.17 318.797C411.001 320.537 408.28 321.439 405.502 321.336L380.326 320.404C378.629 320.341 376.966 319.905 375.456 319.127C373.946 318.349 372.626 317.247 371.589 315.901C370.552 314.554 369.823 312.995 369.455 311.335C369.087 309.675 369.088 307.955 369.459 306.295L381.841 250.863C382.415 248.293 383.847 245.995 385.9 244.349C387.953 242.702 390.505 241.805 393.136 241.805H405.759C406.206 241.803 406.654 241.826 407.099 241.876Z" fill="#404348"/>
<path d="M341.027 415.281H346.846L360.713 359.721L365.466 340.685L366.376 337.032L360.929 335.535L359.644 340.685L354.895 359.721L341.027 415.281Z" fill="#63676D"/>
<path d="M354.895 359.721H360.713L365.466 340.685H359.644L354.895 359.721Z" fill="#404348"/>
<path d="M407.84 337.032L408.75 340.685L413.503 359.721L427.367 415.281H433.184L419.321 359.721L414.573 340.685L413.287 335.535L407.84 337.032Z" fill="#63676D"/>
<path d="M408.75 340.685L413.503 359.721H419.321L414.573 340.685H408.75Z" fill="#404348"/>
<path d="M382.054 220.369L378.81 259.212C378.81 259.212 369.573 277.334 363.695 276.892C358.938 276.531 346.79 275.292 340.794 274.671C338.685 274.454 337.337 274.31 337.337 274.31L335.171 264.811C336.453 264.889 338.01 264.941 339.729 264.976C348.856 265.149 362.442 264.811 362.442 264.811C366.102 254.444 382.054 220.369 382.054 220.369Z" fill="#A0BBE7"/>
<path d="M340.793 274.671C338.684 274.454 337.335 274.31 337.335 274.31L335.169 264.811C336.452 264.889 338.008 264.941 339.727 264.976C340.768 268.095 341.131 271.4 340.793 274.671Z" fill="#A0BBE7"/>
<path d="M335.169 264.811C335.169 264.811 332.591 261.393 331.4 259.334C330.21 257.274 328.043 258.249 329.667 263.13C326.735 262.616 323.747 262.507 320.786 262.805C317.753 263.456 318.186 270.505 321.436 273.649C324.685 276.793 337.337 274.314 337.337 274.314C337.337 274.314 337.855 268.576 335.169 264.811Z" fill="#ECB28A"/>
<path d="M413.29 308.861C413.29 308.861 410.732 328.576 385.27 326.145C362.551 323.977 366.355 305.207 366.355 305.207C366.355 305.207 397.995 303.824 413.29 308.861Z" fill="#2C2A40"/>
<path d="M423.891 223.405L419.038 262.512L417.259 276.882L413.29 308.858C405.281 310.858 397.716 312.527 390.502 310.87C385.996 309.829 382.47 309.196 375.812 308.025C372.539 307.556 369.354 306.606 366.359 305.206L370.726 281.609L371.93 275.094L382.056 220.364L393.419 219.192L408.469 218.747L423.891 223.405Z" fill="#A0BBE7"/>
<path d="M419.038 262.512L417.259 276.882C415.674 278.918 413.609 280.528 411.249 281.566C404.04 284.356 375.048 281.986 370.724 281.613L371.928 275.098C407.948 278.608 418.181 262.042 418.181 262.042L419.038 262.512Z" fill="#82A6E1"/>
<path d="M396.313 229.38L383.91 274.6L387.18 286.48L393.963 276.052L397.491 229.637L396.313 229.38Z" fill="#2C2A40"/>
<path d="M394.715 226.287L396.465 232.127L401.981 225.267L397.552 222.336L394.715 226.287Z" fill="#383851"/>
<path d="M382.842 320C382.842 320 367.471 334.881 347.317 336.483C346.349 343.703 344.729 350.821 342.479 357.749C339.056 367.618 324.744 402.302 324.744 402.302L311.939 401.912L334.433 320.687C334.879 319.076 335.737 317.609 336.922 316.431C338.108 315.253 339.579 314.405 341.191 313.969L366.778 307.053C366.778 307.053 383.664 312.6 382.842 320Z" fill="#2C2A40"/>
<path d="M320.685 415.047L293.305 415.282C297.048 408.135 310.97 405.378 310.97 405.378L311.548 403.043L312.279 400.65C316.051 399.507 324.733 402.304 324.733 402.304L320.685 415.047Z" fill="#82423C"/>
<path d="M319.774 407.196C316.878 404.823 310.979 405.376 310.979 405.376L311.556 403.041C317.689 403.383 319.774 407.196 319.774 407.196Z" fill="#5C1A31"/>
<path d="M407.216 320.146C407.216 320.146 388.305 342.081 369.844 340.628C369.844 340.628 370.133 355.857 369.267 366.268C368.4 376.678 366.116 402.304 366.116 402.304L355.294 402.757L352.428 333.83C352.367 332.365 352.711 330.912 353.422 329.63C354.133 328.349 355.184 327.289 356.458 326.567L380.065 313.207C380.065 313.207 406.177 312.774 407.216 320.146Z" fill="#383851"/>
<path d="M364.485 415.224L337.136 415.282C340.879 408.135 354.689 405.352 354.689 405.352L355.185 403.043L355.258 401.894C359.03 400.751 366.116 402.304 366.116 402.304L364.485 415.224Z" fill="#82423C"/>
<path d="M362.442 407.196C359.547 404.823 354.691 405.35 354.691 405.35L355.186 403.041C361.318 403.383 362.442 407.196 362.442 407.196Z" fill="#5C1A31"/>
<path d="M432.01 241.798C428.544 257.821 410.904 278.341 410.904 278.341C410.904 278.341 391.868 282.617 373.615 276.935C372.575 276.614 371.544 276.262 370.518 275.873C370.076 273.02 370.076 270.116 370.518 267.263C370.518 267.263 371.814 267.67 373.615 268.049C375.897 268.591 378.252 268.767 380.59 268.569C388.215 267.528 404.291 264.816 404.291 264.816C404.291 264.816 412.167 253.474 423.887 223.41C423.887 223.405 435.475 225.77 432.01 241.798Z" fill="#A0BBE7"/>
<path d="M373.615 268.047V276.935C372.575 276.614 371.544 276.262 370.518 275.874C370.076 273.02 370.076 270.116 370.518 267.263C370.518 267.263 371.812 267.67 373.615 268.047Z" fill="#BFD7F7"/>
<path d="M370.516 267.263C370.516 267.263 365.99 262.124 364.543 262.044C362.756 261.945 363.801 265.474 363.801 265.474C363.801 265.474 359.777 263.454 357.015 265.46C354.498 267.287 355.76 279.803 370.516 275.87V267.263Z" fill="#ECB28A"/>
<path d="M407.492 216.923C405.888 218.896 403.843 220.462 401.522 221.496C399.201 222.53 396.67 223.002 394.133 222.874L392.907 218.273L391.348 212.417C392.229 210.761 393.297 209.21 394.529 207.795C396.819 205.177 400.231 202.521 404.385 203.066L407.492 216.923Z" fill="#ECB28A"/>
<path d="M402.834 205.18C402.834 205.18 400.875 215.087 392.906 218.273L391.346 212.417C392.228 210.76 393.295 209.21 394.528 207.795L402.834 205.18Z" fill="#E8967C"/>
<path d="M377.865 178.078L375.786 207.885C375.718 208.821 375.845 209.761 376.158 210.645C376.471 211.53 376.963 212.34 377.604 213.024C378.245 213.709 379.02 214.253 379.882 214.623C380.743 214.992 381.671 215.18 382.609 215.172C390.211 215.093 401.749 213.019 407.118 202.094C415.5 185.027 394.819 167.021 377.865 178.078Z" fill="#ECB28A"/>
<path d="M377.028 190.075L373.424 198.403C373.323 198.634 373.27 198.883 373.266 199.135C373.262 199.387 373.307 199.637 373.4 199.871C373.493 200.105 373.632 200.318 373.807 200.498C373.983 200.679 374.192 200.822 374.424 200.921L376.223 201.693C376.223 201.693 379.08 199.498 377.028 190.075Z" fill="#ECB28A"/>
<path d="M378.898 180.522C378.898 180.522 371.273 177.83 372.253 170.459C374.081 156.595 399.505 166.788 409.164 171.837C420.113 177.563 414.593 195.981 411.59 201.292C410.482 203.209 408.938 204.838 407.085 206.046C405.135 207.346 402.156 205.873 401.35 203.671C400.545 201.469 399.517 199.007 403.241 193.747C405.976 189.881 401.981 184.298 397.89 187.973C393.798 191.647 392.197 190.936 393.478 186.104C394.758 181.272 386.139 178.624 378.898 180.522Z" fill="#2C2A40"/>
<path d="M393.24 188.325C393.24 188.325 389.733 204.724 384.867 202.304C383.462 201.598 381.91 201.237 380.338 201.253C378.767 201.268 377.221 201.659 375.831 202.392C372.308 218.549 381.328 218.181 385.12 217.043C391.369 215.16 391.646 205.977 392.117 201.37C392.589 196.764 396.774 188.908 396.774 188.908L393.24 188.325ZM378.668 210.175C377.484 208.858 376.862 207.128 376.935 205.357C376.918 205.146 376.975 204.936 377.096 204.763C377.218 204.59 377.396 204.465 377.6 204.41C379.124 203.998 380.737 204.064 382.222 204.599C383.153 205.222 380.64 211.789 378.666 210.175H378.668Z" fill="#2C2A40"/>
<path d="M397.552 222.336L404.421 226.878C404.421 226.878 411.469 219.458 410.14 216.005C408.811 212.552 406.787 213.75 406.787 213.75C406.787 213.75 403.135 219.989 397.552 222.336Z" fill="#BFD7F7"/>
<path d="M392.701 217.433C392.701 217.433 389.714 220.438 389.714 222.82C389.714 225.202 393.715 227.678 393.715 227.678L397.553 222.333C396.389 222.523 395.21 222.602 394.03 222.57L392.701 217.433Z" fill="#BFD7F7"/>
<path d="M147.18 325.503H87.6497C84.7076 325.503 82.3226 327.891 82.3226 330.837V335.351C82.3226 338.297 84.7076 340.685 87.6497 340.685H147.18C150.122 340.685 152.507 338.297 152.507 335.351V330.837C152.507 327.891 150.122 325.503 147.18 325.503Z" fill="#63676D"/>
<path d="M91.6285 232.09L78.7545 233.596C76.7932 233.826 74.8999 234.457 73.1919 235.449C71.4838 236.441 69.9973 237.773 68.8245 239.364C67.6516 240.954 66.8173 242.769 66.3732 244.695C65.9291 246.622 65.8846 248.619 66.2426 250.563L78.8931 319.316C79.5213 322.729 81.3555 325.801 84.0603 327.971C86.765 330.141 90.1596 331.263 93.6231 331.133L125.007 329.973C127.122 329.894 129.195 329.351 131.077 328.38C132.959 327.41 134.605 326.037 135.898 324.358C137.191 322.68 138.099 320.737 138.558 318.668C139.017 316.598 139.015 314.453 138.553 312.385L123.118 243.285C122.402 240.08 120.618 237.216 118.058 235.163C115.499 233.11 112.317 231.992 109.038 231.991H93.3042C92.7442 231.992 92.1847 232.025 91.6285 232.09Z" fill="#63676D"/>
<path d="M97.2814 241.876L86.953 243.09C85.38 243.275 83.8615 243.781 82.4915 244.577C81.1216 245.373 79.9293 246.441 78.9886 247.717C78.0479 248.993 77.3787 250.448 77.0225 251.993C76.6662 253.539 76.6305 255.14 76.9176 256.7L87.0709 311.856C87.5746 314.592 89.045 317.056 91.2134 318.797C93.3818 320.537 96.1035 321.439 98.8809 321.336L124.057 320.404C125.754 320.341 127.417 319.905 128.927 319.127C130.437 318.349 131.757 317.247 132.795 315.9C133.832 314.554 134.56 312.995 134.928 311.335C135.296 309.675 135.295 307.955 134.924 306.295L122.542 250.856C121.968 248.286 120.537 245.988 118.483 244.342C116.43 242.695 113.878 241.798 111.247 241.798H98.6261C98.1767 241.798 97.7277 241.824 97.2814 241.876Z" fill="#404348"/>
<path d="M163.355 415.281H157.536L143.669 359.721L138.915 340.685L138.005 337.032L143.452 335.535L144.738 340.685L149.486 359.721L163.355 415.281Z" fill="#63676D"/>
<path d="M149.486 359.721H143.669L138.915 340.685H144.738L149.486 359.721Z" fill="#404348"/>
<path d="M96.5396 337.032L95.6299 340.685L90.8781 359.721L77.0146 415.281H71.1954L85.0589 359.721L89.8072 340.685L91.0947 335.535L96.5396 337.032Z" fill="#63676D"/>
<path d="M95.6299 340.685L90.8781 359.721H85.0589L89.8072 340.685H95.6299Z" fill="#404348"/>
<path d="M122.3 220.369L125.277 240.514C125.277 240.514 148.141 262.481 154.021 262.042C163.835 261.311 177.612 254.956 182.769 251.833C184.585 250.735 185.741 250.03 185.741 250.03L183.649 240.514C182.523 241.133 181.138 241.845 179.598 242.611C171.42 246.675 154.02 248.84 154.02 248.84C146.289 241.031 122.3 220.369 122.3 220.369Z" fill="#2C2A40"/>
<path d="M182.769 251.833C184.585 250.735 185.741 250.03 185.741 250.03L183.649 240.514C182.523 241.133 181.138 241.845 179.598 242.612C179.987 245.877 181.068 249.021 182.769 251.833Z" fill="#EDEDED"/>
<path d="M183.649 240.512C183.649 240.512 184.516 236.32 184.722 233.947C184.928 231.573 187.296 231.532 187.907 236.638C190.338 234.92 192.993 233.544 195.797 232.548C198.818 231.841 201.431 238.399 199.835 242.632C198.239 246.866 185.746 250.03 185.746 250.03C185.746 250.03 182.826 245.067 183.649 240.512Z" fill="#ECB28A"/>
<path d="M91.0896 308.861C91.0896 308.861 93.6474 328.576 119.109 326.145C141.828 323.977 138.025 305.207 138.025 305.207C138.025 305.207 106.378 303.824 91.0896 308.861Z" fill="#2C2A40"/>
<path d="M91.0896 308.861C99.1009 310.858 106.665 312.527 113.879 310.872C118.385 309.831 121.913 309.196 128.57 308.025C131.842 307.556 135.027 306.606 138.023 305.207L122.321 220.369L110.958 219.198L95.9071 218.752L80.4839 223.408L91.0896 308.861Z" fill="#2C2A40"/>
<path d="M113.881 310.872C118.174 310.386 123.932 310.005 128.571 308.025C126.072 294.973 115.247 238.222 110.965 219.192L95.9141 218.747C95.9141 218.747 111.207 283.037 113.881 310.872Z" fill="#EDEDED"/>
<path d="M108.067 229.38L120.47 274.6L117.202 286.48L110.419 276.052L106.891 229.637L108.067 229.38Z" fill="#107B85"/>
<path d="M109.667 226.287L107.916 232.127L102.4 225.267L106.83 222.336L109.667 226.287Z" fill="#079798"/>
<path d="M121.539 320C121.539 320 136.91 334.881 157.064 336.483C158.033 343.703 159.652 350.821 161.903 357.749C165.325 367.618 179.638 402.302 179.638 402.302L192.442 401.912L169.94 320.687C169.494 319.076 168.636 317.609 167.45 316.431C166.265 315.253 164.794 314.405 163.182 313.969L137.595 307.053C137.595 307.053 120.718 312.6 121.539 320Z" fill="#2C2A40"/>
<path d="M183.696 415.047L211.077 415.282C207.334 408.135 193.411 405.378 193.411 405.378L192.834 403.043L192.103 400.65C188.33 399.507 179.648 402.304 179.648 402.304L183.696 415.047Z" fill="#82423C"/>
<path d="M184.608 407.196C187.504 404.823 193.402 405.376 193.402 405.376L192.825 403.041C186.691 403.383 184.608 407.196 184.608 407.196Z" fill="#5C1A31"/>
<path d="M97.1635 320.146C97.1635 320.146 116.082 342.081 134.536 340.628C134.536 340.628 134.247 355.857 135.113 366.268C135.98 376.678 138.264 402.304 138.264 402.304L149.086 402.757L151.954 333.83C152.015 332.365 151.671 330.912 150.96 329.63C150.249 328.349 149.198 327.289 147.923 326.567L124.317 313.207C124.317 313.207 98.2033 312.774 97.1635 320.146Z" fill="#383851"/>
<path d="M139.894 415.224L167.245 415.28C163.502 408.133 149.692 405.35 149.692 405.35L149.197 403.041L149.124 401.893C145.351 400.749 138.265 402.302 138.265 402.302L139.894 415.224Z" fill="#82423C"/>
<path d="M141.939 407.196C144.835 404.823 149.691 405.35 149.691 405.35L149.195 403.041C143.062 403.383 141.939 407.196 141.939 407.196Z" fill="#5C1A31"/>
<path d="M76.8586 256.263C77.8561 260.932 79.8601 265.327 82.7306 269.141C85.6012 272.954 89.2689 276.094 93.4776 278.341C93.4776 278.341 112.514 282.617 130.767 276.935C131.807 276.614 132.847 276.262 133.864 275.873C134.306 273.02 134.306 270.116 133.864 267.263C133.864 267.263 132.569 267.67 130.767 268.049C128.484 268.591 126.13 268.767 123.792 268.569C116.167 267.528 100.09 264.816 100.09 264.816C100.09 264.816 92.2125 253.469 80.4926 223.405C80.4926 223.405 73.3928 240.235 76.8586 256.263Z" fill="#2C2A40"/>
<path d="M130.767 268.047V276.935C131.807 276.614 132.847 276.262 133.864 275.874C134.306 273.02 134.306 270.116 133.864 267.263C133.864 267.263 132.569 267.67 130.767 268.047Z" fill="#EDEDED"/>
<path d="M133.865 267.263C133.865 267.263 138.392 262.124 139.839 262.044C141.626 261.945 140.581 265.474 140.581 265.474C140.581 265.474 144.605 263.454 147.367 265.46C149.881 267.287 148.621 279.803 133.865 275.87V267.263Z" fill="#ECB28A"/>
<path d="M96.94 216.746C98.5588 218.706 100.616 220.256 102.945 221.272C105.273 222.288 107.808 222.74 110.344 222.593L111.535 217.983L113.051 212.11C112.156 210.461 111.077 208.919 109.833 207.514C107.523 204.911 104.09 202.285 99.9414 202.862L96.94 216.746Z" fill="#ECB28A"/>
<path d="M101.506 204.969C101.506 204.969 103.542 214.858 111.535 217.981L113.051 212.11C112.156 210.461 111.077 208.919 109.833 207.514L101.506 204.969Z" fill="#E8967C"/>
<path d="M126.265 177.67L128.573 207.46C128.647 208.394 128.527 209.334 128.221 210.219C127.915 211.104 127.429 211.917 126.795 212.605C126.16 213.294 125.39 213.844 124.533 214.22C123.676 214.596 122.75 214.791 121.815 214.792C114.212 214.772 102.657 212.789 97.2068 201.905C88.6842 184.914 109.225 166.747 126.265 177.67Z" fill="#ECB28A"/>
<path d="M127.194 189.659L130.867 197.966C130.969 198.196 131.024 198.444 131.029 198.695C131.035 198.946 130.991 199.196 130.9 199.43C130.808 199.664 130.672 199.878 130.498 200.059C130.324 200.24 130.117 200.385 129.887 200.486L128.093 201.272C128.093 201.272 125.216 199.098 127.194 189.659Z" fill="#ECB28A"/>
<path d="M94.9852 170.106C84.111 175.973 89.6824 195.857 92.7324 201.145C93.8539 203.053 95.408 204.669 97.2692 205.864C99.2292 207.148 102.196 205.652 102.988 203.445C103.78 201.239 104.785 198.761 101.021 193.537C98.2483 189.694 102.206 184.078 106.327 187.721C110.448 191.365 112.046 190.639 110.724 185.813C109.402 180.986 117.988 178.277 125.249 180.123C125.249 180.123 132.779 179.539 131.607 170.623C130.436 161.706 119.851 159.767 119.851 159.767C119.851 159.767 123.518 163.757 119.108 165.666C114.697 167.574 102.524 166.037 94.9852 170.106Z" fill="#2C2A40"/>
<path d="M106.83 222.336L99.9657 226.88C99.9657 226.88 92.9178 219.46 94.247 216.007C95.5761 212.554 97.6002 213.752 97.6002 213.752C97.6002 213.752 101.246 219.989 106.83 222.336Z" fill="white"/>
<path d="M111.68 217.433C111.68 217.433 114.663 220.442 114.67 222.82C114.677 225.199 110.668 227.678 110.668 227.678L106.83 222.333C107.994 222.523 109.174 222.602 110.353 222.57L111.68 217.433Z" fill="white"/>
<path d="M158.439 289.049H149.006V414.74H158.439V289.049Z" fill="#82423C"/>
<path d="M158.439 289.049H149.006V310.876H158.439V289.049Z" fill="#5C1A31"/>
<path d="M355.549 289.049H346.116V414.74H355.549V289.049Z" fill="#82423C"/>
<path d="M355.549 289.049H346.116V310.876H355.549V289.049Z" fill="#5C1A31"/>
<path d="M372.736 276.901H129.012V289.049H372.736V276.901Z" fill="#82423C"/>
<path d="M346.116 322.367H158.44V328.025H346.116V322.367Z" fill="#5C1A31"/>
<path d="M346.116 351.85H158.44V357.507H346.116V351.85Z" fill="#5C1A31"/>
<path opacity="0.2" d="M257.066 163.467C252.222 163.467 247.486 162.029 243.459 159.335C239.431 156.64 236.292 152.811 234.438 148.33C232.584 143.85 232.099 138.919 233.044 134.163C233.989 129.406 236.322 125.037 239.747 121.608C243.173 118.178 247.537 115.843 252.287 114.897C257.038 113.951 261.963 114.436 266.438 116.292C270.913 118.148 274.738 121.291 277.43 125.323C280.121 129.356 281.557 134.097 281.557 138.946C281.55 145.448 278.967 151.68 274.376 156.277C269.784 160.874 263.559 163.46 257.066 163.467Z" fill="black"/>
<path d="M257.066 161.044C252.222 161.044 247.486 159.605 243.459 156.911C239.431 154.217 236.292 150.387 234.438 145.906C232.584 141.426 232.099 136.495 233.044 131.739C233.989 126.982 236.322 122.613 239.747 119.184C243.173 115.754 247.537 113.419 252.287 112.473C257.038 111.527 261.963 112.012 266.438 113.868C270.913 115.724 274.738 118.867 277.43 122.9C280.121 126.932 281.557 131.673 281.557 136.523C281.55 143.024 278.967 149.256 274.376 153.853C269.784 158.45 263.559 161.036 257.066 161.044Z" fill="#2C2A40"/>
<path d="M257.066 157.435C268.602 157.435 277.954 148.071 277.954 136.521C277.954 124.971 268.602 115.607 257.066 115.607C245.529 115.607 236.177 124.971 236.177 136.521C236.177 148.071 245.529 157.435 257.066 157.435Z" fill="white"/>
<path d="M257.066 122.152C256.882 122.152 256.705 122.078 256.575 121.948C256.445 121.818 256.372 121.642 256.372 121.458V117.602C256.397 117.438 256.48 117.288 256.606 117.18C256.731 117.072 256.892 117.012 257.058 117.012C257.224 117.012 257.384 117.072 257.51 117.18C257.635 117.288 257.718 117.438 257.743 117.602V121.465C257.741 121.645 257.67 121.817 257.543 121.945C257.417 122.074 257.245 122.148 257.066 122.152Z" fill="#2C2A40"/>
<path d="M257.066 155.679C256.882 155.679 256.705 155.606 256.575 155.476C256.445 155.346 256.372 155.169 256.372 154.985V151.13C256.397 150.966 256.48 150.816 256.606 150.707C256.731 150.599 256.892 150.54 257.058 150.54C257.224 150.54 257.384 150.599 257.51 150.707C257.635 150.816 257.718 150.966 257.743 151.13V154.992C257.741 155.172 257.67 155.345 257.543 155.473C257.417 155.601 257.245 155.675 257.066 155.679Z" fill="#2C2A40"/>
<path d="M243.528 136.29C243.528 136.381 243.51 136.472 243.475 136.556C243.44 136.64 243.389 136.716 243.325 136.781C243.26 136.845 243.184 136.897 243.1 136.931C243.016 136.966 242.926 136.984 242.835 136.984H238.986C238.822 136.959 238.672 136.876 238.564 136.751C238.456 136.625 238.396 136.464 238.396 136.298C238.396 136.132 238.456 135.971 238.564 135.845C238.672 135.72 238.822 135.637 238.986 135.612H242.843C243.023 135.614 243.195 135.686 243.322 135.813C243.45 135.939 243.524 136.11 243.528 136.29Z" fill="#2C2A40"/>
<path d="M277.017 136.29C277.017 136.474 276.944 136.651 276.814 136.781C276.684 136.911 276.508 136.984 276.324 136.984H272.466C272.302 136.959 272.153 136.876 272.044 136.751C271.936 136.625 271.877 136.464 271.877 136.298C271.877 136.132 271.936 135.971 272.044 135.845C272.153 135.72 272.302 135.637 272.466 135.612H276.324C276.505 135.612 276.679 135.683 276.808 135.81C276.938 135.936 277.013 136.109 277.017 136.29Z" fill="#2C2A40"/>
<path d="M247.34 126.715C247.211 126.842 247.036 126.913 246.855 126.913C246.674 126.913 246.499 126.842 246.37 126.715L243.644 123.984C243.544 123.85 243.495 123.685 243.507 123.518C243.519 123.351 243.59 123.195 243.708 123.077C243.826 122.958 243.983 122.887 244.149 122.875C244.316 122.863 244.481 122.912 244.614 123.012L247.342 125.743C247.469 125.873 247.54 126.047 247.539 126.229C247.539 126.411 247.468 126.585 247.34 126.715Z" fill="#2C2A40"/>
<path d="M271.021 150.422C270.891 150.549 270.717 150.62 270.536 150.62C270.354 150.62 270.18 150.549 270.05 150.422L267.323 147.691C267.223 147.557 267.174 147.392 267.186 147.225C267.198 147.059 267.269 146.902 267.387 146.784C267.505 146.666 267.662 146.594 267.828 146.582C267.995 146.57 268.16 146.619 268.293 146.719L271.021 149.45C271.148 149.58 271.219 149.754 271.219 149.936C271.219 150.118 271.148 150.292 271.021 150.422Z" fill="#2C2A40"/>
<path d="M247.76 146.299C247.887 146.429 247.958 146.604 247.958 146.785C247.958 146.967 247.887 147.141 247.76 147.271L245.032 149.997C244.898 150.097 244.733 150.146 244.567 150.134C244.4 150.122 244.244 150.05 244.126 149.932C244.008 149.814 243.936 149.657 243.925 149.491C243.913 149.324 243.961 149.159 244.062 149.025L246.789 146.294C246.919 146.168 247.094 146.097 247.275 146.098C247.457 146.099 247.631 146.172 247.76 146.299Z" fill="#2C2A40"/>
<path d="M271.44 122.592C271.567 122.722 271.638 122.896 271.638 123.078C271.638 123.26 271.567 123.434 271.44 123.564L268.713 126.295C268.653 126.374 268.577 126.44 268.49 126.488C268.403 126.535 268.306 126.564 268.207 126.571C268.108 126.578 268.009 126.563 267.916 126.528C267.823 126.494 267.738 126.439 267.668 126.369C267.598 126.299 267.543 126.214 267.509 126.121C267.474 126.028 267.46 125.928 267.467 125.829C267.474 125.73 267.502 125.633 267.55 125.546C267.597 125.459 267.663 125.383 267.742 125.323L270.47 122.592C270.599 122.465 270.774 122.394 270.955 122.394C271.137 122.394 271.311 122.465 271.44 122.592Z" fill="#2C2A40"/>
<path opacity="0.2" d="M277.953 136.521C277.953 137.129 277.927 137.731 277.875 138.325C277.426 133.109 275.039 128.251 271.186 124.712C267.333 121.172 262.294 119.209 257.065 119.209C251.835 119.209 246.796 121.172 242.943 124.712C239.09 128.251 236.704 133.109 236.255 138.325C236.201 137.732 236.175 137.13 236.177 136.521C236.177 130.974 238.377 125.655 242.295 121.733C246.212 117.811 251.525 115.608 257.065 115.608C262.605 115.608 267.917 117.811 271.835 121.733C275.752 125.655 277.953 130.974 277.953 136.521Z" fill="black"/>
<path d="M257.618 136.984L263.538 151.272L256.622 137.671L257.618 136.984Z" fill="#FF6160"/>
<path d="M257.211 138.518C258.436 138.518 259.429 137.524 259.429 136.297C259.429 135.07 258.436 134.076 257.211 134.076C255.986 134.076 254.993 135.07 254.993 136.297C254.993 137.524 255.986 138.518 257.211 138.518Z" fill="#2C2A40"/>
<path d="M255.308 136.297L251.896 127.822L257.211 135.251L255.308 136.297Z" fill="#2C2A40"/>
<path d="M257.377 135.081L270.695 140.683L256.622 137.421L257.377 135.081Z" fill="#2C2A40"/>
<path d="M255.584 247.24V257.113H210.909C210.233 257.113 209.586 256.844 209.109 256.366C208.631 255.888 208.363 255.24 208.363 254.564V249.789C208.363 249.113 208.631 248.465 209.109 247.987C209.586 247.509 210.233 247.24 210.909 247.24H255.584Z" fill="#383851"/>
<path d="M255.584 248.49V255.864H215.049C214.74 255.864 214.434 255.803 214.148 255.684C213.863 255.566 213.604 255.392 213.385 255.173C213.167 254.955 212.994 254.695 212.876 254.409C212.757 254.123 212.697 253.817 212.697 253.507V250.849C212.697 250.54 212.757 250.233 212.875 249.947C212.993 249.661 213.166 249.401 213.384 249.182C213.603 248.963 213.862 248.789 214.148 248.67C214.433 248.551 214.739 248.49 215.049 248.49H255.584Z" fill="#EDEDED"/>
<path d="M255.587 249.985H216.813V250.636H255.587V249.985Z" fill="#9CA4AE"/>
<path d="M255.587 251.851H216.813V252.501H255.587V251.851Z" fill="#9CA4AE"/>
<path d="M255.587 253.716H216.813V254.366H255.587V253.716Z" fill="#9CA4AE"/>
<path d="M255.584 257.113V266.985H210.909C210.233 266.985 209.586 266.716 209.109 266.238C208.631 265.761 208.363 265.112 208.363 264.436V259.662C208.363 258.986 208.631 258.337 209.109 257.859C209.586 257.381 210.233 257.113 210.909 257.113H255.584Z" fill="#FF6160"/>
<path d="M255.584 258.362V265.736H215.049C214.74 265.736 214.434 265.675 214.148 265.556C213.863 265.438 213.604 265.264 213.385 265.046C213.167 264.827 212.994 264.567 212.876 264.281C212.757 263.995 212.697 263.689 212.697 263.38V260.722C212.697 260.412 212.757 260.105 212.875 259.819C212.993 259.533 213.166 259.273 213.384 259.054C213.603 258.835 213.862 258.661 214.148 258.542C214.433 258.424 214.739 258.362 215.049 258.362H255.584Z" fill="#EDEDED"/>
<path d="M255.587 259.858H216.813V260.508H255.587V259.858Z" fill="#9CA4AE"/>
<path d="M255.587 261.723H216.813V262.373H255.587V261.723Z" fill="#9CA4AE"/>
<path d="M255.587 263.588H216.813V264.239H255.587V263.588Z" fill="#9CA4AE"/>
<path d="M255.584 266.985V276.857H210.909C210.233 276.857 209.586 276.589 209.109 276.111C208.631 275.633 208.363 274.985 208.363 274.309V269.539C208.363 268.863 208.631 268.215 209.109 267.737C209.586 267.259 210.233 266.99 210.909 266.99H255.584V266.985Z" fill="#00B3D8"/>
<path d="M255.584 268.234V275.611H215.049C214.74 275.611 214.434 275.55 214.148 275.432C213.863 275.314 213.604 275.14 213.385 274.921C213.167 274.702 212.994 274.443 212.876 274.157C212.757 273.871 212.697 273.565 212.697 273.255V270.594C212.697 270.284 212.757 269.978 212.875 269.691C212.993 269.405 213.166 269.145 213.384 268.926C213.603 268.707 213.862 268.533 214.148 268.414C214.433 268.296 214.739 268.234 215.049 268.234H255.584Z" fill="#EDEDED"/>
<path d="M255.587 269.73H216.813V270.38H255.587V269.73Z" fill="#9CA4AE"/>
<path d="M255.587 271.595H216.813V272.246H255.587V271.595Z" fill="#9CA4AE"/>
<path d="M255.587 273.46H216.813V274.111H255.587V273.46Z" fill="#9CA4AE"/>
<path d="M293.969 258.608V252.449H275.319V277.173H293.969V273.387C295.926 273.387 297.803 272.609 299.187 271.223C300.572 269.837 301.349 267.957 301.349 265.998C301.349 264.038 300.572 262.158 299.187 260.773C297.803 259.387 295.926 258.608 293.969 258.608ZM293.969 270.346V261.65C295.121 261.65 296.226 262.108 297.041 262.924C297.856 263.74 298.314 264.846 298.314 266C298.314 267.154 297.856 268.261 297.041 269.077C296.226 269.892 295.121 270.351 293.969 270.351V270.346Z" fill="#383851"/>
</g>
<defs>
<radialGradient id="paint0_radial" cx="0" cy="0" r="1" gradientUnits="userSpaceOnUse" gradientTransform="translate(478.661 425.045) rotate(-150.452) scale(447.316 444.406)">
<stop stop-color="#0082F4"/>
<stop offset="1" stop-color="#00BFD8"/>
</radialGradient>
<clipPath id="clip0">
<rect width="375" height="312" fill="white" transform="translate(66 112)"/>
</clipPath>
</defs>
</svg>
